<svg width="250" height="103" viewBox="0 0 250 103" fill="none" xmlns="http://www.w3.org/2000/svg">
<mask id="mask0_3814_2" style="mask-type:luminance" maskUnits="userSpaceOnUse" x="0" y="0" width="250" height="103">
<path d="M250 0H0V103H250V0Z" fill="white"/>
</mask>
<g mask="url(#mask0_3814_2)">
<path d="M111.411 68.6417C111.21 71.5299 110.155 73.81 108.247 75.4314C106.338 77.1035 103.826 77.9142 100.712 77.9142C97.2963 77.9142 94.6341 76.7488 92.675 74.4687C90.7161 72.1379 89.7617 68.9965 89.7617 64.9429V63.3216C89.7617 60.7374 90.2137 58.4574 91.1179 56.5319C92.0221 54.5558 93.3281 53.0864 94.9857 52.0223C96.6433 50.9583 98.6023 50.4517 100.812 50.4517C103.876 50.4517 106.338 51.2624 108.196 52.9345C110.055 54.6065 111.16 56.9372 111.461 59.9267H105.986C105.835 58.204 105.383 56.9372 104.529 56.1772C103.726 55.4171 102.47 55.0118 100.762 55.0118C98.9539 55.0118 97.5474 55.6705 96.6433 56.9879C95.7391 58.3054 95.287 60.3321 95.2368 63.1188V65.1457C95.2368 68.0338 95.6889 70.1618 96.5428 71.4792C97.3968 72.7966 98.8032 73.5059 100.662 73.5059C102.369 73.5059 103.625 73.1006 104.429 72.3405C105.233 71.5806 105.735 70.3645 105.886 68.7431H111.411V68.6417Z" fill="white"/>
<path d="M130 72.0368H120.405L118.597 77.5597H112.77L122.665 50.7559H127.739L137.685 77.5597H131.858L130 72.0368ZM121.862 67.5779H128.492L125.178 57.5454L121.862 67.5779Z" fill="white"/>
<path d="M140.143 77.5597V50.7559H148.332C150.642 50.7559 152.752 51.2625 154.61 52.3265C156.469 53.3907 157.875 54.9107 158.93 56.8361C159.985 58.8122 160.488 61.0416 160.488 63.5244V64.7404C160.488 67.2232 159.985 69.4527 158.98 71.3781C157.975 73.3036 156.52 74.8236 154.66 75.8876C152.803 76.9516 150.743 77.5091 148.382 77.5091H140.143V77.5597ZM145.619 55.2148V73.1008H148.282C150.441 73.1008 152.049 72.3914 153.203 70.9728C154.359 69.554 154.912 67.5272 154.962 64.8924V63.4738C154.962 60.7377 154.409 58.6602 153.304 57.2921C152.2 55.8733 150.542 55.164 148.382 55.164H145.619V55.2148Z" fill="white"/>
<path d="M180.43 65.9562H169.933V73.1512H182.289V77.61H164.457V50.8062H182.239V55.2651H169.933V61.6493H180.43V65.9562Z" fill="white"/>
<path d="M192.586 50.7559L199.418 70.2127L206.198 50.7559H213.382V77.5597H207.907V70.2127L208.459 57.5454L201.276 77.5597H197.509L190.376 57.5962L190.929 70.2127V77.5597H185.453V50.7559H192.586Z" fill="white"/>
<path d="M224.031 77.5597H218.555V50.7559H224.031V77.5597Z" fill="white"/>
<path d="M249.951 68.6417C249.75 71.5299 248.695 73.81 246.787 75.4314C244.877 77.1035 242.366 77.9142 239.251 77.9142C235.836 77.9142 233.174 76.7488 231.214 74.4687C229.256 72.1379 228.301 68.9965 228.301 64.9429V63.3216C228.301 60.7374 228.753 58.4574 229.658 56.5319C230.561 54.5558 231.867 53.0864 233.526 52.0223C235.182 50.9583 237.142 50.4517 239.352 50.4517C242.416 50.4517 244.877 51.2624 246.736 52.9345C248.594 54.6065 249.7 56.9372 250.001 59.9267H244.526C244.375 58.204 243.923 56.9372 243.07 56.1772C242.266 55.4171 241.01 55.0118 239.301 55.0118C237.494 55.0118 236.087 55.6705 235.182 56.9879C234.279 58.3054 233.827 60.3321 233.777 63.1188V65.1457C233.777 68.0338 234.229 70.1618 235.082 71.4792C235.936 72.7966 237.343 73.5059 239.201 73.5059C240.909 73.5059 242.165 73.1006 242.969 72.3405C243.772 71.5806 244.274 70.3645 244.425 68.7431H249.951V68.6417Z" fill="white"/>
<path d="M112.669 61.2437C116.085 50.958 118.596 41.7363 120.505 34.5919C110.66 35.4533 100.161 37.632 90.3661 38.5948C86.9504 44.1177 83.6854 49.7926 80.5209 55.4675C80.1692 57.2915 79.667 59.1156 79.1143 60.8891C76.8539 68.4894 75.6986 73.607 73.3377 75.3804C72.8856 75.7351 72.4838 75.8871 72.082 75.8871C71.5294 75.8871 71.1275 75.3804 71.1275 74.215C71.1275 71.5802 73.137 65.6013 79.2149 55.1635C80.0688 52.022 81.0733 48.4246 81.0733 45.0804C81.0733 43.155 80.7217 41.3309 79.8677 39.7094C74.9451 40.1148 70.2234 40.3175 66.3556 40.3175C60.78 40.3175 56.9623 39.8614 56.661 38.8988C56.6108 38.7468 56.5605 38.6454 56.5605 38.4428C56.5605 36.416 63.6935 32.8692 70.2737 32.8692C73.9909 32.8692 77.5572 33.9839 79.5162 37.176C82.9319 36.8721 86.5987 36.5173 90.2657 36.2134C98.4533 22.938 107.294 10.1695 112.719 5.55864C112.92 5.35596 113.071 5.20396 113.322 5.05195C116.085 2.87319 118.797 1.30245 121.007 0.947773C121.359 0.897104 121.761 0.846436 122.112 0.846436C126.081 0.846436 127.337 5.05195 127.337 10.3722C127.337 18.8339 124.222 30.1838 123.419 33.2745H124.674C126.633 33.2745 127.789 33.4265 127.889 33.7812V33.8318C127.889 34.4905 126.332 35.2506 122.665 36.1626C120.555 43.915 117.642 53.1874 113.774 64.1826C113.724 64.9426 112.97 65.2972 112.217 65.2972C111.263 65.2972 110.208 64.7905 110.208 63.8785V63.7772C110.559 62.6625 112.267 62.3585 112.669 61.2437ZM71.0271 34.1359C65.0999 34.1359 58.5698 37.4294 58.5698 37.5814C58.6703 37.9361 60.1772 38.1387 62.6887 38.1387C66.2551 38.1387 71.8309 37.7841 78.4613 37.2267C76.653 34.9466 73.8903 34.1359 71.0271 34.1359ZM72.082 73.5563C72.082 73.7084 72.1322 73.759 72.1322 73.759C72.6848 73.759 75.347 68.9454 77.8587 60.5344L77.9088 60.281C73.5889 68.3881 72.082 72.5936 72.082 73.5563ZM80.8724 39.6082C81.7263 41.5335 81.9774 43.2563 81.9774 44.9284C81.9774 47.1072 81.4752 49.2352 81.1737 51.566C83.5849 47.2084 86.0462 42.9523 88.6582 38.7468C85.4434 38.9494 83.3337 39.1015 80.8724 39.6082ZM125.528 9.05479C125.528 5.00128 124.573 2.16383 121.962 2.16383C121.761 2.16383 121.51 2.2145 121.258 2.2145C119.249 2.56918 116.788 3.98791 114.126 6.06534C113.975 6.21734 113.824 6.31868 113.623 6.52135C108.45 10.9802 99.9601 23.0901 91.9735 36.0106C101.518 35.048 111.313 33.8826 120.907 33.4265C121.56 30.6397 125.528 17.4151 125.528 9.05479ZM126.533 34.0852H126.432C126.081 34.0852 124.875 34.1359 123.117 34.2879L123.017 34.6933C125.427 34.2373 126.533 34.2373 126.533 34.0852Z" fill="#FFD117" stroke="#FFD117" stroke-width="0.7"/>
<path d="M21.6496 55.6202H13.4619V77.9652H8.03697V55.6202H0V51.1614H21.6496V55.6202Z" fill="white"/>
<path d="M46.3631 77.9652H40.888V66.4633H30.239V77.9652H24.7637V51.1614H30.239V62.0044H40.9381V51.1614H46.4134V77.9652H46.3631Z" fill="white"/>
<path d="M67.1082 66.3113H56.6099V73.5063H68.9668V77.9652H51.1348V51.1614H68.9165V55.6202H56.6099V62.0044H67.1082V66.3113Z" fill="white"/>
<path fill-rule="evenodd" clip-rule="evenodd" d="M148.134 1L159.737 12.7045L155.819 13.9713L146.777 4.85083L148.134 1Z" fill="#FFD117"/>
<path fill-rule="evenodd" clip-rule="evenodd" d="M141.755 10.9816C139.294 10.9816 136.733 11.995 134.723 14.0724C133.065 15.6939 132.011 17.7712 131.71 19.8487C127.792 35.1001 118.599 41.687 137.485 22.6862C137.034 21.8248 137.185 20.6595 137.887 19.95C138.792 19.038 140.299 19.038 141.204 19.95C142.107 20.8621 142.107 22.3315 141.204 23.2941C140.45 24.1049 139.244 24.2063 138.39 23.6996C117.695 43.1564 128.194 32.2626 141.906 29.2731C143.664 28.8678 145.473 27.9051 146.929 26.4356C148.939 24.4089 149.994 21.8248 150.094 19.342L155.117 15.2378L145.875 5.91479L141.755 10.9816Z" fill="#FFD117"/>
<path d="M154.685 40.4983V46H152V31.1038C153.79 31.0518 154.843 31 155.159 31C157.527 31 159.264 31.3633 160.369 32.0899C161.474 32.8165 162 33.9585 162 35.4636C162 38.8893 159.948 40.6021 155.895 40.6021C155.579 40.5501 155.211 40.5501 154.685 40.4983ZM154.685 33.3876V38.1625C155.159 38.2146 155.474 38.2146 155.736 38.2146C156.948 38.2146 157.842 38.0069 158.422 37.5916C159 37.1765 159.264 36.5536 159.264 35.6193C159.264 34.0623 158.001 33.2837 155.474 33.2837C155.211 33.3355 154.948 33.3355 154.685 33.3876Z" fill="#FFD117"/>
<path d="M175.369 46L174.367 43.0104H169.681L168.725 46H166L171.45 31H172.502L178 46H175.369ZM171.975 35.5361L170.351 41.0001H173.649L171.975 35.5361Z" fill="#FFD117"/>
<path d="M189.684 40.4983V46H187V31.1038C188.789 31.0518 189.842 31 190.157 31C192.526 31 194.263 31.3633 195.368 32.0899C196.473 32.8165 197 33.9585 197 35.4636C197 38.8893 194.947 40.6021 190.895 40.6021C190.631 40.5501 190.21 40.5501 189.684 40.4983ZM189.684 33.3876V38.1625C190.157 38.2146 190.474 38.2146 190.737 38.2146C191.946 38.2146 192.841 38.0069 193.42 37.5916C194 37.1765 194.263 36.5536 194.263 35.6193C194.263 34.0623 192.999 33.2837 190.474 33.2837C190.263 33.3355 189.947 33.3355 189.684 33.3876Z" fill="#FFD117"/>
<path d="M207.508 33.3601V36.8741H212.181V39.1294H207.508V43.6399H213.901V46H205V31H214V33.3601H207.508Z" fill="#FFD117"/>
<path d="M230.064 45.9483L226.231 39.8448C225.833 39.8448 225.335 39.7931 224.638 39.7931V46H222V31.1034C222.148 31.1034 222.696 31.1034 223.642 31.0517C224.587 31 225.384 31 225.932 31C229.566 31 231.357 32.4483 231.357 35.3965C231.357 36.276 231.108 37.0517 230.612 37.7759C230.113 38.5001 229.466 39.0173 228.719 39.3275L233 45.9483H230.064ZM224.638 33.3794V37.5173C225.086 37.569 225.484 37.569 225.733 37.569C226.778 37.569 227.574 37.4138 228.072 37.1033C228.57 36.7931 228.819 36.1725 228.819 35.2931C228.819 34.569 228.57 34.0518 228.022 33.7414C227.474 33.431 226.677 33.3275 225.534 33.3275C225.236 33.3275 224.936 33.3275 224.638 33.3794Z" fill="#FFD117"/>
<path d="M239 45.8149L239.982 43.3368C241.016 44.091 242.051 44.468 243.035 44.468C244.585 44.468 245.362 43.9293 245.362 42.798C245.362 42.2593 245.155 41.7745 244.792 41.2895C244.43 40.8047 243.655 40.266 242.518 39.6734C241.379 39.0809 240.602 38.596 240.241 38.2189C239.827 37.8418 239.516 37.3569 239.311 36.8721C239.104 36.3333 239 35.7408 239 35.1482C239 33.963 239.414 32.9394 240.241 32.1852C241.069 31.431 242.155 31 243.5 31C245.206 31 246.5 31.3232 247.276 32.0236L246.5 34.3939C245.569 33.6936 244.585 33.3705 243.551 33.3705C242.932 33.3705 242.465 33.5321 242.155 33.8552C241.844 34.1784 241.637 34.6095 241.637 35.1482C241.637 36.01 242.569 36.9799 244.482 37.8956C245.465 38.3806 246.19 38.8654 246.655 39.2963C247.069 39.7272 247.432 40.2122 247.639 40.8047C247.846 41.3974 248 41.9899 248 42.6902C248 43.9293 247.535 44.953 246.551 45.7609C245.569 46.5691 244.327 47 242.725 47C241.379 46.8924 240.137 46.5691 239 45.8149Z" fill="#FFD117"/>
<path d="M16.3709 92.3855V97.0094C16.2004 97.2324 15.9317 97.4743 15.5646 97.7353C15.2028 97.9962 14.7292 98.2219 14.1438 98.4121C13.5586 98.5969 12.8401 98.6894 11.9887 98.6894C11.249 98.6894 10.5733 98.5644 9.96129 98.3143C9.34935 98.0587 8.82254 97.6863 8.38088 97.197C7.93921 96.7077 7.59865 96.1097 7.35919 95.4029C7.11973 94.6962 7 93.8887 7 92.9808V92.198C7 91.29 7.11175 90.4826 7.33523 89.7759C7.56405 89.0692 7.88865 88.4711 8.30904 87.9817C8.73473 87.4926 9.24291 87.1201 9.83358 86.8646C10.4296 86.6089 11.0947 86.4812 11.8291 86.4812C12.8135 86.4812 13.6224 86.647 14.2556 86.9787C14.8941 87.3103 15.3838 87.767 15.7242 88.3488C16.0648 88.925 16.2777 89.5883 16.3628 90.3386H14.2236C14.1651 89.9255 14.048 89.5639 13.8723 89.2539C13.6969 88.9386 13.4467 88.694 13.1222 88.5201C12.8029 88.3406 12.3878 88.2509 11.877 88.2509C11.4459 88.2509 11.0655 88.3379 10.7356 88.5118C10.4056 88.6858 10.1289 88.9386 9.90542 89.2702C9.68194 89.6019 9.51165 90.0124 9.39458 90.5016C9.28283 90.991 9.22696 91.5511 9.22696 92.1817V92.9808C9.22696 93.6168 9.29081 94.1823 9.41852 94.6771C9.54624 95.1665 9.72981 95.5796 9.96927 95.9167C10.214 96.2483 10.5147 96.5011 10.8712 96.675C11.2331 96.8436 11.6429 96.9279 12.1005 96.9279C12.5154 96.9279 12.8588 96.8926 13.1301 96.822C13.4069 96.7458 13.6277 96.6561 13.7926 96.5528C13.9576 96.4495 14.0852 96.3488 14.1759 96.251V94.0246H11.869V92.3855H16.3709ZM22.3291 98.6894C21.6747 98.6894 21.0866 98.5807 20.5651 98.3632C20.0436 98.1457 19.5993 97.8439 19.2322 97.458C18.8703 97.0665 18.5909 96.6126 18.3941 96.096C18.2024 95.5741 18.1068 95.0142 18.1068 94.4161V94.09C18.1068 93.4103 18.2024 92.7932 18.3941 92.2387C18.5856 91.6787 18.857 91.1976 19.2082 90.7953C19.5593 90.393 19.9797 90.083 20.4694 89.8655C20.9589 89.6482 21.499 89.5394 22.0897 89.5394C22.7016 89.5394 23.2417 89.6453 23.7099 89.8574C24.1783 90.0641 24.5693 90.3576 24.8834 90.7382C25.1974 91.1187 25.4341 91.5754 25.5938 92.1082C25.7534 92.6356 25.8332 93.22 25.8332 93.8616V94.7668H19.0645V93.2826H23.7579V93.1194C23.7472 92.7769 23.6834 92.4644 23.5663 92.1817C23.4492 91.8935 23.2684 91.6651 23.0236 91.4967C22.7787 91.3226 22.4622 91.2356 22.0736 91.2356C21.7598 91.2356 21.4857 91.3063 21.2515 91.4477C21.0228 91.5837 20.8312 91.7793 20.6768 92.0348C20.5278 92.285 20.4161 92.5839 20.3416 92.9318C20.2671 93.2799 20.2299 93.6658 20.2299 94.09V94.4161C20.2299 94.7859 20.2778 95.1283 20.3736 95.4437C20.4747 95.759 20.621 96.0336 20.8126 96.2673C21.0095 96.4957 21.2436 96.6751 21.5149 96.8056C21.7918 96.9307 22.1056 96.9932 22.4568 96.9932C22.8985 96.9932 23.2976 96.9062 23.6541 96.7322C24.0159 96.5528 24.3299 96.2891 24.596 95.9411L25.6576 97.0665C25.4768 97.3384 25.2319 97.5994 24.9232 97.8495C24.6199 98.0995 24.2527 98.3033 23.8218 98.4611C23.3907 98.6132 22.8932 98.6894 22.3291 98.6894ZM31.4962 89.7026V91.252H26.5475V89.7026H31.4962ZM27.8725 87.5332H29.9877V95.9819C29.9877 96.2429 30.0222 96.4441 30.0914 96.5854C30.1606 96.7267 30.2644 96.822 30.4027 96.8708C30.541 96.9197 30.706 96.9442 30.8975 96.9442C31.036 96.9442 31.1636 96.936 31.2806 96.9197C31.3977 96.9035 31.4962 96.8872 31.576 96.8708L31.5839 98.4855C31.4084 98.5453 31.2089 98.5942 30.9854 98.6323C30.7673 98.6704 30.5198 98.6894 30.243 98.6894C29.7694 98.6894 29.3544 98.6078 28.9979 98.4449C28.6414 98.2762 28.3646 98.0071 28.1677 97.6373C27.9709 97.2622 27.8725 96.7676 27.8725 96.1532V87.5332ZM38.8154 86.6524L41.3695 92.1898L43.9398 86.6524H46.3504L42.487 94.1796V98.5262H40.26V94.1796L36.3888 86.6524H38.8154ZM46.6176 94.2042V94.0329C46.6176 93.3859 46.708 92.7905 46.8889 92.2469C47.0699 91.6977 47.3331 91.2221 47.679 90.8197C48.025 90.4173 48.448 90.1048 48.9482 89.8819C49.4484 89.6536 50.0178 89.5394 50.6563 89.5394C51.3055 89.5394 51.8803 89.6536 52.3805 89.8819C52.8859 90.1048 53.3116 90.4173 53.6575 90.8197C54.0034 91.2221 54.2667 91.6977 54.4477 92.2469C54.6286 92.7905 54.7191 93.3859 54.7191 94.0329V94.2042C54.7191 94.8456 54.6286 95.4409 54.4477 95.99C54.2667 96.5337 54.0034 97.0094 53.6575 97.4172C53.3116 97.8196 52.8886 98.1321 52.3884 98.355C51.8882 98.5779 51.3161 98.6894 50.6723 98.6894C50.0338 98.6894 49.4618 98.5779 48.9561 98.355C48.4507 98.1321 48.025 97.8196 47.679 97.4172C47.3331 97.0094 47.0699 96.5337 46.8889 95.99C46.708 95.4409 46.6176 94.8456 46.6176 94.2042ZM48.7247 94.0329V94.2042C48.7247 94.5901 48.762 94.9516 48.8365 95.2887C48.911 95.6258 49.0253 95.9221 49.1797 96.1776C49.334 96.4332 49.5336 96.6344 49.7783 96.7811C50.0284 96.9225 50.3265 96.9932 50.6723 96.9932C51.0128 96.9932 51.3055 96.9225 51.5503 96.7811C51.7951 96.6344 51.9947 96.4332 52.149 96.1776C52.3085 95.9221 52.4256 95.6258 52.5002 95.2887C52.5746 94.9516 52.612 94.5901 52.612 94.2042V94.0329C52.612 93.6524 52.5746 93.2962 52.5002 92.9645C52.4256 92.6275 52.3085 92.3311 52.149 92.0755C51.9947 91.8146 51.7924 91.6108 51.5424 91.4641C51.2975 91.3118 51.0021 91.2356 50.6563 91.2356C50.3159 91.2356 50.0231 91.3118 49.7783 91.4641C49.5336 91.6108 49.334 91.8146 49.1797 92.0755C49.0253 92.3311 48.911 92.6275 48.8365 92.9645C48.762 93.2962 48.7247 93.6524 48.7247 94.0329ZM61.5555 96.4304V89.7026H63.6787V98.5262H61.6832L61.5555 96.4304ZM61.8268 94.6037L62.4814 94.5874C62.4814 95.18 62.4176 95.7264 62.2899 96.2266C62.1622 96.7267 61.9626 97.1617 61.6912 97.5313C61.4251 97.8955 61.0872 98.1811 60.6774 98.3876C60.2678 98.5889 59.7835 98.6894 59.2248 98.6894C58.7991 98.6894 58.4106 98.6296 58.0594 98.51C57.7082 98.3849 57.4049 98.1919 57.1495 97.9311C56.8994 97.6646 56.7051 97.3248 56.5668 96.9116C56.4285 96.493 56.3593 95.99 56.3593 95.4029V89.7026H58.4664V95.4193C58.4664 95.7128 58.4984 95.9574 58.5622 96.1532C58.6314 96.3488 58.7246 96.5092 58.8416 96.6344C58.9641 96.7539 59.1051 96.8409 59.2647 96.8953C59.4297 96.9442 59.6052 96.9687 59.7914 96.9687C60.3024 96.9687 60.7041 96.8653 60.9967 96.6588C61.2947 96.4468 61.5076 96.164 61.6354 95.8107C61.763 95.4519 61.8268 95.0495 61.8268 94.6037ZM67.8171 91.5048V98.5262H65.71V89.7026H67.7054L67.8171 91.5048ZM70.4432 89.6453L70.4113 91.6516C70.2942 91.6297 70.1612 91.6135 70.0121 91.6026C69.8685 91.5917 69.7327 91.5864 69.6052 91.5864C69.2804 91.5864 68.9958 91.6324 68.7511 91.725C68.5063 91.8119 68.3015 91.9397 68.1365 92.1082C67.9767 92.2768 67.8544 92.4833 67.7692 92.7281C67.6842 92.9672 67.6362 93.2391 67.6256 93.5435L67.1706 93.4865C67.1706 92.9264 67.2265 92.4073 67.3382 91.9288C67.45 91.4504 67.6123 91.0318 67.8251 90.6729C68.038 90.3141 68.304 90.0369 68.6233 89.8412C68.9479 89.6399 69.3205 89.5394 69.7408 89.5394C69.8579 89.5394 69.9829 89.5503 70.116 89.572C70.2543 89.5883 70.3634 89.6127 70.4432 89.6453ZM79.6302 98.5262H77.1237L77.1398 96.7647H79.6302C80.3059 96.7647 80.8727 96.6126 81.3302 96.3082C81.7878 95.9983 82.1337 95.5552 82.3679 94.9789C82.602 94.3971 82.7191 93.7011 82.7191 92.8911V92.2795C82.7191 91.6543 82.6525 91.1025 82.5195 90.6241C82.3865 90.1457 82.1895 89.7433 81.9289 89.417C81.6735 89.0908 81.3569 88.8436 80.979 88.675C80.6013 88.5064 80.1675 88.4221 79.678 88.4221H77.0758V86.6524H79.678C80.4549 86.6524 81.1626 86.7857 81.8012 87.0521C82.445 87.3184 83.0011 87.7018 83.4694 88.2019C83.9429 88.6967 84.3048 89.2894 84.555 89.9798C84.8104 90.6702 84.9381 91.4422 84.9381 92.2958V92.8911C84.9381 93.7393 84.8104 94.5113 84.555 95.2071C84.3048 95.8977 83.9429 96.4902 83.4694 96.9849C83.0011 97.4797 82.4425 97.8602 81.7932 98.1267C81.144 98.3932 80.4229 98.5262 79.6302 98.5262ZM78.3529 86.6524V98.5262H76.1579V86.6524H78.3529ZM90.6888 98.6894C90.0344 98.6894 89.4463 98.5807 88.9249 98.3632C88.4034 98.1457 87.959 97.8439 87.5919 97.458C87.2301 97.0665 86.9507 96.6126 86.7538 96.096C86.5622 95.5741 86.4665 95.0142 86.4665 94.4161V94.09C86.4665 93.4103 86.5622 92.7932 86.7538 92.2387C86.9454 91.6787 87.2168 91.1976 87.568 90.7953C87.9192 90.393 88.3395 90.083 88.829 89.8655C89.3186 89.6482 89.8588 89.5394 90.4494 89.5394C91.0613 89.5394 91.6015 89.6453 92.0698 89.8574C92.538 90.0641 92.9292 90.3576 93.2432 90.7382C93.557 91.1187 93.7939 91.5754 93.9534 92.1082C94.1132 92.6356 94.1929 93.22 94.1929 93.8616V94.7668H87.4242V93.2826H92.1176V93.1194C92.107 92.7769 92.0432 92.4644 91.9261 92.1817C91.809 91.8935 91.628 91.6651 91.3834 91.4967C91.1386 91.3226 90.8219 91.2356 90.4334 91.2356C90.1195 91.2356 89.8455 91.3063 89.6113 91.4477C89.3825 91.5837 89.1909 91.7793 89.0367 92.0348C88.8876 92.285 88.7759 92.5839 88.7014 92.9318C88.6269 93.2799 88.5897 93.6658 88.5897 94.09V94.4161C88.5897 94.7859 88.6376 95.1283 88.7332 95.4437C88.8344 95.759 88.9807 96.0336 89.1724 96.2673C89.3692 96.4957 89.6033 96.6751 89.8747 96.8056C90.1514 96.9307 90.4655 96.9932 90.8166 96.9932C91.2582 96.9932 91.6574 96.9062 92.0138 96.7322C92.3757 96.5528 92.6897 96.2891 92.9558 95.9411L94.0174 97.0665C93.8365 97.3384 93.5915 97.5994 93.283 97.8495C92.9797 98.0995 92.6125 98.3033 92.1815 98.4611C91.7505 98.6132 91.253 98.6894 90.6888 98.6894ZM101.261 89.7026H103.176V98.2573C103.176 99.0563 103.006 99.7338 102.666 100.288C102.33 100.848 101.859 101.272 101.253 101.56C100.646 101.854 99.9412 102 99.1376 102C98.7916 102 98.4166 101.951 98.0122 101.854C97.6131 101.756 97.2273 101.6 96.8548 101.389C96.4877 101.182 96.1816 100.913 95.9369 100.582L96.8866 99.3092C97.1741 99.652 97.4987 99.9098 97.8606 100.084C98.2223 100.264 98.6135 100.353 99.0339 100.353C99.4595 100.353 99.8214 100.271 100.119 100.109C100.423 99.9512 100.654 99.7172 100.814 99.407C100.979 99.1026 101.061 98.7275 101.061 98.2816V91.7168L101.261 89.7026ZM95.426 94.2204V94.0492C95.426 93.375 95.5058 92.7635 95.6655 92.2142C95.8251 91.6598 96.0539 91.1839 96.3519 90.7871C96.6552 90.3903 97.0197 90.083 97.4454 89.8655C97.8765 89.6482 98.3606 89.5394 98.8981 89.5394C99.4675 89.5394 99.9464 89.6453 100.335 89.8574C100.729 90.0695 101.053 90.3712 101.309 90.7627C101.569 91.1541 101.772 91.619 101.915 92.1571C102.064 92.69 102.179 93.2772 102.258 93.9186V94.3835C102.184 95.0088 102.064 95.5823 101.899 96.1043C101.74 96.6261 101.527 97.0828 101.261 97.4743C100.995 97.8602 100.665 98.1593 100.271 98.3714C99.8772 98.5834 99.4143 98.6894 98.8822 98.6894C98.35 98.6894 97.8711 98.5779 97.4454 98.355C97.0197 98.1321 96.6552 97.8196 96.3519 97.4172C96.0539 97.0149 95.8251 96.5418 95.6655 95.9983C95.5058 95.4546 95.426 94.862 95.426 94.2204ZM97.5332 94.0492V94.2204C97.5332 94.601 97.5704 94.9571 97.645 95.2887C97.7195 95.6204 97.8339 95.914 97.9882 96.1695C98.1424 96.4195 98.3368 96.6153 98.5708 96.7566C98.805 96.8979 99.0844 96.9687 99.4089 96.9687C99.8453 96.9687 100.202 96.8763 100.479 96.6914C100.761 96.5011 100.973 96.2429 101.117 95.9167C101.266 95.585 101.362 95.2126 101.404 94.7994V93.5191C101.378 93.1929 101.319 92.8911 101.229 92.6139C101.144 92.3366 101.024 92.0974 100.87 91.8962C100.715 91.6951 100.518 91.5374 100.279 91.4232C100.04 91.3091 99.7549 91.252 99.4249 91.252C99.1056 91.252 98.8262 91.3254 98.5868 91.4722C98.3475 91.6135 98.1505 91.8119 97.9962 92.0674C97.8419 92.3231 97.7248 92.6193 97.645 92.9564C97.5704 93.2935 97.5332 93.6577 97.5332 94.0492ZM107.347 91.5048V98.5262H105.24V89.7026H107.235L107.347 91.5048ZM109.973 89.6453L109.941 91.6516C109.824 91.6297 109.691 91.6135 109.542 91.6026C109.398 91.5917 109.263 91.5864 109.135 91.5864C108.81 91.5864 108.525 91.6324 108.281 91.725C108.036 91.8119 107.831 91.9397 107.666 92.1082C107.506 92.2768 107.384 92.4833 107.299 92.7281C107.214 92.9672 107.166 93.2391 107.155 93.5435L106.701 93.4865C106.701 92.9264 106.756 92.4073 106.868 91.9288C106.98 91.4504 107.142 91.0318 107.355 90.6729C107.568 90.3141 107.834 90.0369 108.153 89.8412C108.478 89.6399 108.85 89.5394 109.27 89.5394C109.388 89.5394 109.512 89.5503 109.646 89.572C109.784 89.5883 109.893 89.6127 109.973 89.6453ZM115.013 98.6894C114.358 98.6894 113.77 98.5807 113.249 98.3632C112.728 98.1457 112.284 97.8439 111.916 97.458C111.554 97.0665 111.275 96.6126 111.078 96.096C110.887 95.5741 110.791 95.0142 110.791 94.4161V94.09C110.791 93.4103 110.887 92.7932 111.078 92.2387C111.27 91.6787 111.541 91.1976 111.893 90.7953C112.244 90.393 112.664 90.083 113.154 89.8655C113.643 89.6482 114.183 89.5394 114.774 89.5394C115.386 89.5394 115.926 89.6453 116.394 89.8574C116.862 90.0641 117.254 90.3576 117.568 90.7382C117.881 91.1187 118.118 91.5754 118.278 92.1082C118.437 92.6356 118.517 93.22 118.517 93.8616V94.7668H111.749V93.2826H116.442V93.1194C116.431 92.7769 116.367 92.4644 116.251 92.1817C116.134 91.8935 115.953 91.6651 115.708 91.4967C115.462 91.3226 115.146 91.2356 114.758 91.2356C114.444 91.2356 114.17 91.3063 113.936 91.4477C113.707 91.5837 113.515 91.7793 113.361 92.0348C113.212 92.285 113.1 92.5839 113.026 92.9318C112.952 93.2799 112.914 93.6658 112.914 94.09V94.4161C112.914 94.7859 112.962 95.1283 113.057 95.4437C113.159 95.759 113.306 96.0336 113.497 96.2673C113.694 96.4957 113.927 96.6751 114.199 96.8056C114.475 96.9307 114.789 96.9932 115.141 96.9932C115.583 96.9932 115.982 96.9062 116.339 96.7322C116.7 96.5528 117.014 96.2891 117.281 95.9411L118.342 97.0665C118.161 97.3384 117.916 97.5994 117.607 97.8495C117.304 98.0995 116.937 98.3033 116.506 98.4611C116.075 98.6132 115.577 98.6894 115.013 98.6894ZM123.973 98.6894C123.318 98.6894 122.73 98.5807 122.209 98.3632C121.688 98.1457 121.243 97.8439 120.876 97.458C120.514 97.0665 120.235 96.6126 120.038 96.096C119.846 95.5741 119.751 95.0142 119.751 94.4161V94.09C119.751 93.4103 119.846 92.7932 120.038 92.2387C120.23 91.6787 120.501 91.1976 120.852 90.7953C121.203 90.393 121.623 90.083 122.113 89.8655C122.603 89.6482 123.143 89.5394 123.734 89.5394C124.345 89.5394 124.885 89.6453 125.354 89.8574C125.822 90.0641 126.214 90.3576 126.527 90.7382C126.841 91.1187 127.077 91.5754 127.237 92.1082C127.397 92.6356 127.477 93.22 127.477 93.8616V94.7668H120.708V93.2826H125.401V93.1194C125.391 92.7769 125.327 92.4644 125.21 92.1817C125.093 91.8935 124.912 91.6651 124.668 91.4967C124.422 91.3226 124.106 91.2356 123.717 91.2356C123.403 91.2356 123.129 91.3063 122.895 91.4477C122.667 91.5837 122.475 91.7793 122.321 92.0348C122.172 92.285 122.06 92.5839 121.985 92.9318C121.91 93.2799 121.873 93.6658 121.873 94.09V94.4161C121.873 94.7859 121.922 95.1283 122.017 95.4437C122.119 95.759 122.264 96.0336 122.456 96.2673C122.653 96.4957 122.887 96.6751 123.159 96.8056C123.435 96.9307 123.749 96.9932 124.1 96.9932C124.542 96.9932 124.941 96.9062 125.298 96.7322C125.66 96.5528 125.973 96.2891 126.239 95.9411L127.301 97.0665C127.12 97.3384 126.876 97.5994 126.567 97.8495C126.264 98.0995 125.897 98.3033 125.466 98.4611C125.035 98.6132 124.537 98.6894 123.973 98.6894ZM136.304 96.251L138.619 86.6524H139.873L139.952 88.675L137.477 98.5262H136.154L136.304 96.251ZM134.843 86.6524L136.744 96.2184V98.5262H135.299L132.666 86.6524H134.843ZM142.355 96.1776L144.223 86.6524H146.409L143.776 98.5262H142.332L142.355 96.1776ZM140.471 86.6524L142.785 96.2836L142.922 98.5262H141.597L139.13 88.6668L139.226 86.6524H140.471ZM150.038 89.7026V98.5262H147.922V89.7026H150.038ZM147.779 87.3946C147.779 87.0738 147.885 86.8075 148.098 86.5954C148.316 86.3834 148.609 86.2775 148.976 86.2775C149.343 86.2775 149.633 86.3834 149.846 86.5954C150.063 86.8075 150.173 87.0738 150.173 87.3946C150.173 87.7099 150.063 87.9737 149.846 88.1857C149.633 88.3976 149.343 88.5037 148.976 88.5037C148.609 88.5037 148.316 88.3976 148.098 88.1857C147.885 87.9737 147.779 87.7099 147.779 87.3946ZM156.3 89.7026V91.252H151.35V89.7026H156.3ZM152.676 87.5332H154.79V95.9819C154.79 96.2429 154.825 96.4441 154.895 96.5854C154.964 96.7267 155.067 96.822 155.205 96.8708C155.343 96.9197 155.509 96.9442 155.701 96.9442C155.839 96.9442 155.966 96.936 156.083 96.9197C156.2 96.9035 156.3 96.8872 156.379 96.8708L156.387 98.4855C156.212 98.5453 156.011 98.5942 155.788 98.6323C155.57 98.6704 155.322 98.6894 155.046 98.6894C154.573 98.6894 154.156 98.6078 153.801 98.4449C153.444 98.2762 153.167 98.0071 152.971 97.6373C152.773 97.2622 152.676 96.7676 152.676 96.1532V87.5332ZM159.935 86V98.5262H157.819V86H159.935ZM159.599 93.7964H158.977C158.977 93.182 159.057 92.6166 159.217 92.1001C159.376 91.5837 159.602 91.135 159.894 90.7545C160.188 90.3686 160.535 90.0695 160.941 89.8574C161.35 89.6453 161.802 89.5394 162.297 89.5394C162.722 89.5394 163.109 89.6019 163.455 89.7269C163.807 89.8466 164.107 90.0395 164.358 90.3059C164.606 90.5724 164.799 90.9204 164.932 91.3498C165.07 91.7739 165.139 92.2903 165.139 92.8993V98.5262H163.016V92.883C163.016 92.4752 162.958 92.1544 162.841 91.9206C162.722 91.6814 162.555 91.5102 162.337 91.4068C162.124 91.3036 161.861 91.252 161.547 91.252C161.205 91.252 160.914 91.3199 160.669 91.4558C160.424 91.5864 160.221 91.7684 160.063 92.0022C159.909 92.236 159.792 92.5051 159.71 92.8095C159.637 93.114 159.599 93.4429 159.599 93.7964ZM175.028 98.5262H172.522L172.539 96.7647H175.028C175.704 96.7647 176.27 96.6126 176.728 96.3082C177.186 95.9983 177.532 95.5552 177.766 94.9789C178 94.3971 178.117 93.7011 178.117 92.8911V92.2795C178.117 91.6543 178.051 91.1025 177.917 90.6241C177.784 90.1457 177.588 89.7433 177.326 89.417C177.071 89.0908 176.755 88.8436 176.377 88.675C175.999 88.5064 175.567 88.4221 175.076 88.4221H172.474V86.6524H175.076C175.853 86.6524 176.561 86.7857 177.199 87.0521C177.843 87.3184 178.4 87.7018 178.867 88.2019C179.342 88.6967 179.703 89.2894 179.953 89.9798C180.209 90.6702 180.336 91.4422 180.336 92.2958V92.8911C180.336 93.7393 180.209 94.5113 179.953 95.2071C179.703 95.8977 179.342 96.4902 178.867 96.9849C178.4 97.4797 177.84 97.8602 177.191 98.1267C176.542 98.3932 175.821 98.5262 175.028 98.5262ZM173.751 86.6524V98.5262H171.557V86.6524H173.751ZM184.442 89.7026V98.5262H182.327V89.7026H184.442ZM182.184 87.3946C182.184 87.0738 182.29 86.8075 182.504 86.5954C182.722 86.3834 183.014 86.2775 183.381 86.2775C183.749 86.2775 184.038 86.3834 184.251 86.5954C184.469 86.8075 184.579 87.0738 184.579 87.3946C184.579 87.7099 184.469 87.9737 184.251 88.1857C184.038 88.3976 183.749 88.5037 183.381 88.5037C183.014 88.5037 182.722 88.3976 182.504 88.1857C182.29 87.9737 182.184 87.7099 182.184 87.3946ZM191.367 96.1124C191.367 95.9275 191.318 95.7617 191.223 95.6149C191.127 95.4682 190.947 95.335 190.681 95.2153C190.419 95.0904 190.038 94.9735 189.532 94.8647C189.084 94.7668 188.672 94.6446 188.294 94.4977C187.916 94.3509 187.591 94.1742 187.319 93.9676C187.049 93.7557 186.835 93.5082 186.681 93.2255C186.532 92.9374 186.459 92.6057 186.459 92.2305C186.459 91.8663 186.535 91.5238 186.689 91.203C186.844 90.8768 187.067 90.5915 187.359 90.3467C187.653 90.0967 188.009 89.9009 188.43 89.7596C188.85 89.6127 189.324 89.5394 189.85 89.5394C190.584 89.5394 191.215 89.6617 191.742 89.9064C192.274 90.151 192.682 90.4881 192.963 90.9177C193.245 91.3416 193.386 91.82 193.386 92.353H191.279C191.279 92.1191 191.226 91.9072 191.12 91.7168C191.017 91.5265 190.861 91.3742 190.648 91.2601C190.436 91.1406 190.167 91.0806 189.843 91.0806C189.549 91.0806 189.303 91.1296 189.101 91.2275C188.903 91.3254 188.755 91.4531 188.652 91.6108C188.552 91.7684 188.501 91.9425 188.501 92.1328C188.501 92.2741 188.528 92.4017 188.58 92.5159C188.64 92.6246 188.733 92.7253 188.86 92.8177C188.988 92.9102 189.16 92.9944 189.38 93.0706C189.603 93.1466 189.877 93.22 190.202 93.2907C190.846 93.4212 191.406 93.5952 191.885 93.8127C192.37 94.0246 192.748 94.3074 193.019 94.6607C193.29 95.0142 193.426 95.4653 193.426 96.0146C193.426 96.4059 193.345 96.7647 193.178 97.0909C193.013 97.4118 192.774 97.6918 192.46 97.9311C192.146 98.1703 191.771 98.3577 191.334 98.4936C190.898 98.6242 190.407 98.6894 189.859 98.6894C189.065 98.6894 188.395 98.5453 187.847 98.2573C187.298 97.9636 186.883 97.594 186.601 97.1481C186.32 96.6968 186.179 96.2293 186.179 95.7455H188.199C188.214 96.0879 188.304 96.3625 188.469 96.569C188.635 96.7757 188.842 96.9252 189.091 97.0176C189.348 97.1046 189.616 97.1481 189.899 97.1481C190.217 97.1481 190.486 97.1046 190.704 97.0176C190.922 96.9252 191.087 96.8029 191.199 96.6506C191.311 96.4931 191.367 96.3135 191.367 96.1124ZM199.281 89.7026V91.252H194.333V89.7026H199.281ZM195.656 87.5332H197.772V95.9819C197.772 96.2429 197.807 96.4441 197.876 96.5854C197.946 96.7267 198.048 96.822 198.187 96.8708C198.325 96.9197 198.49 96.9442 198.682 96.9442C198.821 96.9442 198.949 96.936 199.066 96.9197C199.183 96.9035 199.281 96.8872 199.362 96.8708L199.369 98.4855C199.192 98.5453 198.994 98.5942 198.771 98.6323C198.551 98.6704 198.305 98.6894 198.029 98.6894C197.555 98.6894 197.139 98.6078 196.782 98.4449C196.426 98.2762 196.15 98.0071 195.952 97.6373C195.756 97.2622 195.656 96.7676 195.656 96.1532V87.5332ZM203.084 89.7026V98.5262H200.969V89.7026H203.084ZM200.825 87.3946C200.825 87.0738 200.931 86.8075 201.144 86.5954C201.363 86.3834 201.655 86.2775 202.022 86.2775C202.39 86.2775 202.68 86.3834 202.892 86.5954C203.111 86.8075 203.221 87.0738 203.221 87.3946C203.221 87.7099 203.111 87.9737 202.892 88.1857C202.68 88.3976 202.39 88.5037 202.022 88.5037C201.655 88.5037 201.363 88.3976 201.144 88.1857C200.931 87.9737 200.825 87.7099 200.825 87.3946ZM207.326 91.5864V98.5262H205.219V89.7026H207.199L207.326 91.5864ZM206.992 93.7964H206.369C206.374 93.1548 206.459 92.5731 206.624 92.0512C206.789 91.5292 207.02 91.0806 207.318 90.7055C207.622 90.3304 207.981 90.0423 208.396 89.8412C208.811 89.6399 209.274 89.5394 209.785 89.5394C210.199 89.5394 210.575 89.5992 210.909 89.7188C211.246 89.8385 211.533 90.0287 211.772 90.2897C212.017 90.5506 212.203 90.8931 212.33 91.3172C212.464 91.7359 212.53 92.2523 212.53 92.8667V98.5262H210.406V92.8504C210.406 92.448 210.349 92.1301 210.232 91.8962C210.12 91.6624 209.955 91.4967 209.736 91.3988C209.524 91.3008 209.261 91.252 208.946 91.252C208.622 91.252 208.337 91.3199 208.093 91.4558C207.852 91.5864 207.65 91.7684 207.485 92.0022C207.326 92.236 207.204 92.5051 207.119 92.8095C207.034 93.114 206.992 93.4429 206.992 93.7964ZM218.097 96.9932C218.395 96.9932 218.662 96.9334 218.896 96.8137C219.129 96.6941 219.316 96.5256 219.454 96.3082C219.599 96.0906 219.675 95.8378 219.686 95.5496H221.674C221.664 96.1477 221.497 96.6833 221.179 97.1563C220.86 97.6293 220.433 98.0043 219.902 98.2816C219.374 98.5535 218.783 98.6894 218.13 98.6894C217.465 98.6894 216.884 98.5752 216.389 98.3469C215.894 98.1186 215.481 97.8005 215.152 97.3927C214.828 96.9849 214.583 96.512 214.418 95.9738C214.258 95.4355 214.179 94.8592 214.179 94.2448V93.984C214.179 93.3695 214.258 92.7933 214.418 92.255C214.583 91.7167 214.828 91.2438 215.152 90.8361C215.481 90.4283 215.894 90.1103 216.389 89.8819C216.884 89.6536 217.462 89.5394 218.122 89.5394C218.819 89.5394 219.43 89.678 219.957 89.9553C220.489 90.2326 220.905 90.6241 221.203 91.1296C221.507 91.6353 221.664 92.2305 221.674 92.9156H219.686C219.675 92.6003 219.606 92.3176 219.478 92.0674C219.351 91.8173 219.17 91.6163 218.936 91.4641C218.702 91.3118 218.417 91.2356 218.083 91.2356C217.725 91.2356 217.427 91.3118 217.188 91.4641C216.953 91.6163 216.769 91.8256 216.638 92.0919C216.51 92.353 216.418 92.6465 216.366 92.9727C216.318 93.2935 216.294 93.6305 216.294 93.984V94.2448C216.294 94.6037 216.318 94.9462 216.366 95.2724C216.418 95.5986 216.51 95.8922 216.638 96.1532C216.769 96.4088 216.953 96.6126 217.188 96.7647C217.427 96.917 217.73 96.9932 218.097 96.9932ZM227.329 89.7026V91.252H222.38V89.7026H227.329ZM223.704 87.5332H225.82V95.9819C225.82 96.2429 225.854 96.4441 225.924 96.5854C225.993 96.7267 226.097 96.822 226.236 96.8708C226.374 96.9197 226.539 96.9442 226.729 96.9442C226.868 96.9442 226.996 96.936 227.113 96.9197C227.23 96.9035 227.329 96.8872 227.409 96.8708L227.416 98.4855C227.24 98.5453 227.041 98.5942 226.818 98.6323C226.6 98.6704 226.353 98.6894 226.076 98.6894C225.602 98.6894 225.187 98.6078 224.83 98.4449C224.474 98.2762 224.197 98.0071 224 97.6373C223.804 97.2622 223.704 96.7676 223.704 96.1532V87.5332ZM231.132 89.7026V98.5262H229.018V89.7026H231.132ZM228.873 87.3946C228.873 87.0738 228.98 86.8075 229.192 86.5954C229.411 86.3834 229.704 86.2775 230.07 86.2775C230.438 86.2775 230.727 86.3834 230.939 86.5954C231.159 86.8075 231.268 87.0738 231.268 87.3946C231.268 87.7099 231.159 87.9737 230.939 88.1857C230.727 88.3976 230.438 88.5037 230.07 88.5037C229.704 88.5037 229.411 88.3976 229.192 88.1857C228.98 87.9737 228.873 87.7099 228.873 87.3946ZM232.931 94.2042V94.0329C232.931 93.3859 233.022 92.7905 233.203 92.2469C233.385 91.6977 233.647 91.2221 233.993 90.8197C234.339 90.4173 234.763 90.1048 235.263 89.8819C235.762 89.6536 236.331 89.5394 236.971 89.5394C237.619 89.5394 238.194 89.6536 238.695 89.8819C239.2 90.1048 239.626 90.4173 239.972 90.8197C240.318 91.2221 240.581 91.6977 240.762 92.2469C240.943 92.7905 241.033 93.3859 241.033 94.0329V94.2042C241.033 94.8456 240.943 95.4409 240.762 95.99C240.581 96.5337 240.318 97.0094 239.972 97.4172C239.626 97.8196 239.202 98.1321 238.702 98.355C238.203 98.5779 237.631 98.6894 236.987 98.6894C236.348 98.6894 235.776 98.5779 235.271 98.355C234.765 98.1321 234.339 97.8196 233.993 97.4172C233.647 97.0094 233.385 96.5337 233.203 95.99C233.022 95.4409 232.931 94.8456 232.931 94.2042ZM235.039 94.0329V94.2042C235.039 94.5901 235.076 94.9516 235.15 95.2887C235.225 95.6258 235.339 95.9221 235.494 96.1776C235.648 96.4332 235.847 96.6344 236.092 96.7811C236.343 96.9225 236.641 96.9932 236.987 96.9932C237.327 96.9932 237.619 96.9225 237.864 96.7811C238.11 96.6344 238.309 96.4332 238.463 96.1776C238.623 95.9221 238.74 95.6258 238.814 95.2887C238.89 94.9516 238.925 94.5901 238.925 94.2042V94.0329C238.925 93.6524 238.89 93.2962 238.814 92.9645C238.74 92.6275 238.623 92.3311 238.463 92.0755C238.309 91.8146 238.106 91.6108 237.857 91.4641C237.612 91.3118 237.317 91.2356 236.971 91.2356C236.63 91.2356 236.337 91.3118 236.092 91.4641C235.847 91.6108 235.648 91.8146 235.494 92.0755C235.339 92.3311 235.225 92.6275 235.15 92.9645C235.076 93.2962 235.039 93.6524 235.039 94.0329ZM244.797 91.5864V98.5262H242.689V89.7026H244.668L244.797 91.5864ZM244.461 93.7964H243.838C243.843 93.1548 243.93 92.5731 244.094 92.0512C244.259 91.5292 244.49 91.0806 244.789 90.7055C245.092 90.3304 245.45 90.0423 245.866 89.8412C246.28 89.6399 246.744 89.5394 247.255 89.5394C247.67 89.5394 248.045 89.5992 248.381 89.7188C248.715 89.8385 249.003 90.0287 249.242 90.2897C249.487 90.5506 249.674 90.8931 249.802 91.3172C249.935 91.7359 250 92.2523 250 92.8667V98.5262H247.878V92.8504C247.878 92.448 247.819 92.1301 247.702 91.8962C247.59 91.6624 247.425 91.4967 247.207 91.3988C246.994 91.3008 246.731 91.252 246.417 91.252C246.092 91.252 245.807 91.3199 245.562 91.4558C245.324 91.5864 245.121 91.7684 244.957 92.0022C244.797 92.236 244.674 92.5051 244.589 92.8095C244.504 93.114 244.461 93.4429 244.461 93.7964Z" fill="#FFD117"/>
</g>
</svg>
