<svg width="96" height="83" viewBox="0 0 96 83" fill="none" xmlns="http://www.w3.org/2000/svg">
<path fill-rule="evenodd" clip-rule="evenodd" d="M29.0999 38.3462C26.2103 38.4203 23.601 39.6383 21.6964 41.5717C19.7303 43.5674 18.5149 46.3231 18.5149 49.3674C18.5149 52.4116 19.7303 55.1674 21.6964 57.1631C23.601 59.0964 26.2103 60.3145 29.0999 60.3885V38.3462ZM32.0758 60.0494C33.9901 59.5524 35.7008 58.539 37.0544 57.165C39.0204 55.1693 40.2358 52.4135 40.2358 49.3693C40.2358 46.3251 39.0204 43.5693 37.0544 41.5736C35.7008 40.1996 33.9901 39.1862 32.0758 38.6892V60.0494ZM19.5901 39.4356C22.0938 36.8943 25.5536 35.3215 29.3744 35.3215C29.8218 35.3215 30.2634 35.3429 30.7011 35.3858C30.7184 35.3877 30.7357 35.3897 30.753 35.3916C34.0246 35.7191 36.9603 37.2041 39.1606 39.4376C41.6643 41.979 43.2137 45.491 43.2137 49.3693C43.2137 53.2477 41.6643 56.7596 39.1606 59.301C36.9603 61.5345 34.0227 63.0196 30.751 63.347C30.7376 63.3489 30.7242 63.3489 30.7088 63.3509C30.2711 63.3938 29.8256 63.4152 29.3763 63.4152C25.5556 63.4152 22.0957 61.8424 19.5921 59.301C17.0884 56.7596 15.539 53.2477 15.539 49.3693C15.537 45.489 17.0865 41.977 19.5901 39.4356ZM29.3744 33.4583C33.7021 33.4583 37.6208 35.2396 40.4585 38.1182C43.2943 40.9967 45.0492 44.9745 45.0492 49.3693C45.0492 53.7622 43.2943 57.7399 40.4585 60.6204C37.6227 63.499 33.704 65.2803 29.3744 65.2803C25.0468 65.2803 21.1281 63.499 18.2903 60.6204C15.4545 57.7419 13.6996 53.7641 13.6996 49.3693C13.6996 44.9764 15.4545 40.9987 18.2903 38.1182C21.1281 35.2377 25.0468 33.4583 29.3744 33.4583ZM16.1879 35.9802C19.5018 32.6164 24.0599 30.5115 29.0999 30.4375V15.8712C29.0999 14.1835 29.7776 12.6536 30.8701 11.5446C31.9626 10.4357 33.4717 9.74773 35.1325 9.74773H36.6262V6.21433C36.6262 4.52657 37.304 2.99666 38.3964 1.88773C39.4889 0.77879 40.998 0.0908203 42.6588 0.0908203H82.8615C83.2417 0.0908203 83.6237 0.238938 83.9137 0.533226L95.5565 12.3515C95.831 12.6263 96 13.0063 96 13.4273V67.2175C96 68.9053 95.3223 70.4352 94.2298 71.5441C93.1373 72.6531 91.6282 73.341 89.9674 73.341H88.4736V76.8764C88.4736 78.5642 87.7959 80.0941 86.7034 81.203C85.6109 82.3119 84.1018 82.9999 82.441 82.9999H35.1325C33.4698 82.9999 31.9626 82.3119 30.8701 81.203C29.7776 80.0941 29.0999 78.5622 29.0999 76.8764V68.2992C25.2964 68.2427 21.7674 67.0304 18.8413 64.9938L16.0382 67.8315C16.3358 68.4025 16.2474 69.1255 15.7751 69.6069L6.77229 78.7454C6.19053 79.3359 5.24973 79.3359 4.66798 78.7454L0.436318 74.45C-0.145439 73.8595 -0.145439 72.9045 0.436318 72.314L9.43915 63.1755C9.89227 62.7155 10.5662 62.6142 11.1153 62.8714L13.9473 60.0124C11.9121 56.9799 10.7236 53.3159 10.7236 49.3693C10.7236 44.1404 12.8126 39.4064 16.1879 35.9802ZM32.0758 30.6343V15.8732C32.0758 15.0196 32.4195 14.2439 32.9725 13.6826C33.5274 13.1194 34.2896 12.7725 35.1305 12.7725H38.1142H73.8452V18.475C73.8452 20.1628 74.523 21.6927 75.6155 22.8016C76.7079 23.9105 78.217 24.5985 79.8778 24.5985H85.4957V71.8326V76.8783C85.4957 77.732 85.1521 78.5076 84.5991 79.0689C84.0442 79.6322 83.282 79.9791 82.441 79.9791H35.1325C34.2915 79.9791 33.5274 79.6302 32.9744 79.0689C32.4195 78.5057 32.0778 77.732 32.0778 76.8783V68.1062C36.1462 67.5079 39.7904 65.5746 42.5647 62.7584C45.9401 59.3322 48.0271 54.6002 48.0271 49.3713C48.0271 44.1442 45.9401 39.4103 42.5647 35.9841C39.7884 33.166 36.1462 31.2326 32.0758 30.6343ZM16.5201 63.0839C16.4068 62.9747 16.2954 62.8656 16.186 62.7545C16.0612 62.6278 15.9402 62.5011 15.8193 62.3706L13.2791 64.9353L13.9838 65.6506L16.5201 63.0839ZM12.515 68.6403L10.3108 66.5627L3.5947 73.38L5.72013 75.5375L12.515 68.6403ZM76.8231 14.9065V18.4711C76.8231 19.3247 77.1668 20.1004 77.7198 20.6617C78.2747 21.2249 79.0369 21.5718 79.8778 21.5718H83.3895L76.8231 14.9065ZM39.6022 9.74968V6.21433C39.6022 5.36071 39.9459 4.58503 40.4988 4.02374C41.0537 3.46051 41.816 3.1136 42.6569 3.1136H81.3716V8.81614C81.3716 10.5039 82.0494 12.0338 83.1418 13.1427C84.2343 14.2517 85.7434 14.9397 87.4042 14.9397H93.0221V67.2195C93.0221 68.0731 92.6784 68.8488 92.1255 69.4101C91.5706 69.9733 90.8083 70.3202 89.9674 70.3202H88.4736V23.0842C88.4736 22.6632 88.3028 22.2812 88.0301 22.0084L76.3873 10.1921C76.0974 9.89779 75.7153 9.74968 75.3351 9.74968H39.6022ZM84.3495 5.24767V8.81225C84.3495 9.66587 84.6932 10.4415 85.2461 11.0028C85.801 11.5661 86.5633 11.913 87.4042 11.913H90.9159L84.3495 5.24767Z" fill="#1055A0"/>
<path fill-rule="evenodd" clip-rule="evenodd" d="M66.1386 74.1016C69.8692 74.1016 73.2483 72.5658 75.6925 70.0849C78.1366 67.6019 79.6496 64.1738 79.6496 60.387C79.6496 56.6003 78.1366 53.1702 75.6925 50.6892C73.2464 48.2082 69.8692 46.6725 66.1386 46.6725C62.4081 46.6725 59.0289 48.2082 56.5848 50.6892C54.1406 53.1721 52.6276 56.6003 52.6276 60.387C52.6276 64.1738 54.1406 67.6039 56.5848 70.0849C59.0308 72.5678 62.4081 74.1016 66.1386 74.1016ZM58.6891 67.9488C60.5956 69.8841 63.2298 71.0808 66.1386 71.0808C69.0474 71.0808 71.6816 69.8841 73.5882 67.9488C75.4947 66.0136 76.6736 63.3396 76.6736 60.387C76.6736 57.4344 75.4947 54.7605 73.5882 52.8252C71.6816 50.8899 69.0474 49.6933 66.1386 49.6933C63.2298 49.6933 60.5956 50.8899 58.6891 52.8252C56.7825 54.7605 55.6036 57.4344 55.6036 60.387C55.6036 63.3396 56.7844 66.0136 58.6891 67.9488ZM66.1386 77.7928C70.8733 77.7928 75.1607 75.8439 78.2634 72.6945C81.3661 69.545 83.2861 65.1931 83.2861 60.387C83.2861 55.581 81.3661 51.229 78.2634 48.0796C75.1607 44.9301 70.8733 42.9812 66.1386 42.9812C61.4039 42.9812 57.1166 44.9301 54.0139 48.0796C50.9112 51.229 48.9912 55.581 48.9912 60.387C48.9912 65.1931 50.9112 69.545 54.0139 72.6945C57.1166 75.8459 61.4039 77.7928 66.1386 77.7928ZM56.1182 70.5585C58.6833 73.1622 62.2257 74.772 66.1386 74.772C70.0516 74.772 73.5959 73.1622 76.159 70.5585C78.7242 67.9547 80.3101 64.3589 80.3101 60.387C80.3101 56.4151 78.7242 52.8174 76.159 50.2156C73.5939 47.6118 70.0516 46.002 66.1386 46.002C62.2257 46.002 58.6814 47.6118 56.1182 50.2156C53.5531 52.8194 51.9672 56.4151 51.9672 60.387C51.9672 64.3589 53.555 67.9566 56.1182 70.5585ZM39.6696 23.7005H63.3489C64.1706 23.7005 64.8369 23.0242 64.8369 22.1901C64.8369 21.356 64.1706 20.6797 63.3489 20.6797H39.6696C38.8479 20.6797 38.1816 21.356 38.1816 22.1901C38.1816 23.0242 38.8479 23.7005 39.6696 23.7005ZM44.9208 31.5098H76.6352C77.457 31.5098 78.1232 30.8336 78.1232 29.9994C78.1232 29.1653 77.457 28.489 76.6352 28.489H44.9208C44.099 28.489 43.4328 29.1653 43.4328 29.9994C43.4328 30.8336 44.099 31.5098 44.9208 31.5098ZM50.7633 39.3172H76.6352C77.457 39.3172 78.1232 38.641 78.1232 37.8068C78.1232 36.9727 77.457 36.2964 76.6352 36.2964H50.7633C49.9416 36.2964 49.2753 36.9727 49.2753 37.8068C49.2753 38.641 49.9416 39.3172 50.7633 39.3172Z" fill="#FFC500"/>
<path fill-rule="evenodd" clip-rule="evenodd" d="M59.2612 62.067L62.4264 65.2008C62.5371 65.3109 62.6687 65.3982 62.8136 65.4578C62.9585 65.5174 63.1139 65.5481 63.2708 65.5481C63.4277 65.5481 63.583 65.5174 63.728 65.4578C63.8729 65.3982 64.0044 65.3109 64.1152 65.2008L72.7439 56.6545C72.9679 56.4328 73.0937 56.1321 73.0937 55.8185C73.0937 55.505 72.9679 55.2042 72.7439 54.9825C72.52 54.7608 72.2163 54.6362 71.8996 54.6362C71.5829 54.6362 71.2791 54.7608 71.0552 54.9825L63.2684 62.6968L60.9467 60.3982C60.7228 60.1765 60.419 60.0519 60.1023 60.0519C59.7856 60.0519 59.4819 60.1765 59.258 60.3982C59.034 60.6199 58.9082 60.9206 58.9082 61.2342C58.9082 61.5478 59.034 61.8485 59.258 62.0702L59.2612 62.067Z" fill="#FFC500"/>
</svg>