<?xml version="1.0" encoding="UTF-8"?>
<svg xmlns="http://www.w3.org/2000/svg" width="113" height="99" viewBox="0 0 113 99" fill="none"><path d="M56.7236 8.76108C57.1883 8.76106 57.6339 8.57644 57.9625 8.24784C58.2911 7.91924 58.4757 7.47357 58.4758 7.00887V1.75222C58.4758 1.2875 58.2912 0.841817 57.9626 0.513213C57.634 0.184608 57.1883 0 56.7236 0C56.2588 0 55.8132 0.184608 55.4846 0.513213C55.1559 0.841817 54.9713 1.2875 54.9713 1.75222V7.00887C54.9714 7.47357 55.156 7.91924 55.4846 8.24784C55.8132 8.57644 56.2588 8.76106 56.7236 8.76108Z" fill="#FFCD00"/><path d="M50.9536 9.12395C51.1163 8.96129 51.2454 8.76816 51.3335 8.55559C51.4216 8.34302 51.4669 8.11518 51.4669 7.88508C51.4669 7.65498 51.4216 7.42714 51.3335 7.21457C51.2454 7.002 51.1163 6.80887 50.9536 6.64621L47.4491 3.14178C47.1204 2.81424 46.675 2.63054 46.211 2.63098C45.7469 2.63143 45.3019 2.81598 44.9738 3.14414C44.6456 3.4723 44.461 3.91726 44.4606 4.38135C44.4602 4.84544 44.6439 5.29074 44.9714 5.61953L48.4758 9.12396C48.8062 9.44905 49.2512 9.63124 49.7147 9.63124C50.1782 9.63124 50.6232 9.44904 50.9536 9.12395Z" fill="#FFCD00"/><path d="M62.4934 9.12375C62.8287 9.43951 63.2718 9.61536 63.7324 9.61538C64.1929 9.6154 64.636 9.43959 64.9713 9.12385L68.4757 5.61942C68.8029 5.29055 68.9862 4.84538 68.9856 4.38152C68.985 3.91767 68.8004 3.47299 68.4724 3.14499C68.1444 2.817 67.6997 2.63246 67.2359 2.63184C66.772 2.63122 66.3269 2.81457 65.998 3.14168L62.4936 6.64611C62.3308 6.80876 62.2017 7.00188 62.1136 7.21444C62.0256 7.427 61.9802 7.65482 61.9802 7.88491C61.9802 8.11499 62.0255 8.34283 62.1136 8.55539C62.2016 8.76795 62.3307 8.96108 62.4934 9.12375Z" fill="#FFCD00"/><path d="M40.1622 24.188C40.0616 24.5 40.0505 24.8341 40.1302 25.1521C40.2099 25.4702 40.3772 25.7595 40.6131 25.9872L47.3914 32.5255L45.7923 41.7538C45.7365 42.0755 45.7718 42.4065 45.8941 42.7093C46.0164 43.0121 46.2209 43.2747 46.4845 43.4675C46.7481 43.6603 47.0603 43.7756 47.3859 43.8004C47.7115 43.8252 48.0376 43.7585 48.3274 43.6078L56.7236 39.2401L65.1202 43.6078C65.4099 43.7584 65.736 43.8251 66.0616 43.8003C66.3873 43.7755 66.6995 43.6603 66.9631 43.4675C67.2267 43.2747 67.4311 43.0121 67.5534 42.7093C67.6757 42.4065 67.711 42.0755 67.6552 41.7538L66.0553 32.5255L72.834 25.9872C73.0701 25.7595 73.2374 25.4701 73.3171 25.152C73.3968 24.8338 73.3856 24.4997 73.2848 24.1876C73.184 23.8755 72.9976 23.598 72.7468 23.3866C72.4961 23.1752 72.191 23.0385 71.8664 22.9919L62.4841 21.6435L58.2918 13.2358C58.1464 12.9443 57.9227 12.6991 57.6457 12.5277C57.3687 12.3563 57.0495 12.2655 56.7238 12.2655C56.398 12.2655 56.0788 12.3563 55.8018 12.5277C55.5248 12.6991 55.3011 12.9443 55.1557 13.2358L50.9625 21.6435L41.5803 22.9919C41.2557 23.0386 40.9507 23.1754 40.7 23.3869C40.4493 23.5983 40.263 23.8759 40.1622 24.188Z" fill="#FFCD00"/><path d="M26.9724 33.1119L26.4592 33.1832L20.6999 33.9831L20.6998 33.9832C20.5589 34.0027 20.4265 34.0618 20.3178 34.1535C20.2092 34.2453 20.1288 34.366 20.0859 34.5016C20.0431 34.6372 20.0395 34.7822 20.0757 34.9197C20.1119 35.0572 20.1864 35.1817 20.2904 35.2786L19.612 36.0067L20.2904 35.2786L24.41 39.1167L24.8089 39.4884L24.7126 40.025L23.7436 45.4245L23.7436 45.4246C23.7189 45.5621 23.733 45.7038 23.7843 45.8337C23.8356 45.9637 23.9221 46.0768 24.034 46.1604C24.1459 46.2439 24.2789 46.2947 24.4181 46.307C24.5573 46.3192 24.6971 46.2925 24.8219 46.2298L29.9913 43.6323L30.4403 43.4067L30.8893 43.6323L36.0586 46.2298C36.1835 46.2925 36.3233 46.3192 36.4625 46.307C36.6016 46.2947 36.7346 46.2439 36.8466 46.1604C36.9585 46.0768 37.045 45.9637 37.0962 45.8337C37.1475 45.7038 37.1616 45.5621 37.1369 45.4246L37.1369 45.4246L36.1679 40.025L36.0716 39.4884L36.4706 39.1167L40.5901 35.2786L41.1937 35.9264L40.5901 35.2786C40.6942 35.1817 40.7686 35.0572 40.8048 34.9197C40.841 34.7822 40.8375 34.6372 40.7947 34.5016C40.7518 34.366 40.6714 34.2453 40.5627 34.1536C40.4541 34.0618 40.3217 34.0027 40.1808 33.9832L40.1807 33.9831L34.4214 33.1832L33.9081 33.1119L33.6704 32.6514L31.1091 27.6904L26.9724 33.1119ZM26.9724 33.1119L27.2101 32.6514M26.9724 33.1119L27.2101 32.6514M27.2101 32.6514L29.7715 27.6904C29.7716 27.6903 29.7716 27.6902 29.7716 27.6902C29.7717 27.6901 29.7717 27.69 29.7717 27.6899C29.8352 27.5674 29.931 27.4647 30.0488 27.393C30.1668 27.3212 30.3022 27.2832 30.4403 27.2832C30.5784 27.2832 30.7139 27.3212 30.8318 27.393C30.9496 27.4647 31.0455 27.5674 31.1089 27.6899L27.2101 32.6514Z" stroke="#FFCD00" stroke-width="2"/><path d="M9.8738 51.4073L9.41374 51.169L8.95368 51.4073L5.42861 53.2339C5.30401 53.2984 5.16388 53.3268 5.02398 53.316C4.88421 53.3053 4.75022 53.2557 4.63705 53.173C4.52414 53.0903 4.43659 52.9776 4.38428 52.8478C4.33193 52.7179 4.31694 52.5759 4.34099 52.4379L4.34105 52.4376L5.0084 48.6012L5.09954 48.0772L4.71605 47.7087L1.88367 44.9871L1.88354 44.987C1.7819 44.8894 1.70974 44.7652 1.67529 44.6285C1.64083 44.4918 1.64547 44.3483 1.68867 44.2141C1.73188 44.08 1.81191 43.9606 1.91964 43.8698C2.02737 43.7789 2.15847 43.7201 2.29798 43.7002L2.29815 43.7002L6.23336 43.1363L6.75145 43.0621L6.98574 42.5941L8.74085 39.0881C8.8034 38.9633 8.89947 38.8582 9.01831 38.7849C9.13715 38.7115 9.27406 38.6726 9.41373 38.6726C9.5534 38.6726 9.69031 38.7115 9.80915 38.7849C9.92799 38.8582 10.0241 38.9633 10.0866 39.0881L11.8417 42.5941L12.076 43.0621L12.5941 43.1363L16.5293 43.7002L16.5295 43.7002C16.669 43.7201 16.8001 43.7789 16.9078 43.8698C17.0155 43.9606 17.0956 44.08 17.1388 44.2141C17.182 44.3482 17.1866 44.4918 17.1522 44.6285C17.1177 44.7652 17.0456 44.8894 16.9439 44.987L16.9438 44.9871L14.1114 47.7087L13.7279 48.0772L13.8191 48.6012L14.4864 52.4376L14.4865 52.4378C14.5105 52.5758 14.4955 52.7178 14.4432 52.8477C14.3908 52.9777 14.3032 53.0904 14.1902 53.1733C14.0772 53.2561 13.9432 53.3057 13.8035 53.3164C13.6639 53.3272 13.5239 53.2987 13.3996 53.2342L13.3992 53.234L9.8738 51.4073Z" stroke="#FFCD00" stroke-width="2"/><path d="M86.4747 33.1119L86.237 32.6514L83.6756 27.6904C83.6122 27.5677 83.5163 27.4648 83.3983 27.393C83.2804 27.3212 83.1449 27.2832 83.0068 27.2832C82.8687 27.2832 82.7333 27.3212 82.6153 27.393C82.4975 27.4647 82.4016 27.5674 82.3382 27.6899L86.4747 33.1119ZM86.4747 33.1119L86.988 33.1832L92.7468 33.983C92.7469 33.983 92.7469 33.983 92.7469 33.983C92.8879 34.0028 93.0205 34.062 93.1293 34.1539C93.238 34.2458 93.3186 34.3667 93.3616 34.5025C93.4042 34.6378 93.4077 34.7825 93.3715 34.9198C93.3353 35.0572 93.2609 35.1816 93.1569 35.2784L93.1567 35.2786L89.0371 39.1167L88.6382 39.4884L88.7345 40.0251L89.7039 45.4244C89.7039 45.4245 89.7039 45.4245 89.7039 45.4246C89.7285 45.562 89.7144 45.7036 89.6631 45.8334C89.6119 45.9634 89.5254 46.0764 89.4135 46.16C89.3016 46.2436 89.1686 46.2944 89.0295 46.3067C88.8904 46.319 88.7506 46.2923 88.6257 46.2296L83.4557 43.6322L83.0068 43.4067L82.5579 43.6322L77.3879 46.2296C77.3878 46.2297 77.3877 46.2297 77.3876 46.2297C77.2629 46.2923 77.1232 46.319 76.9841 46.3067C76.845 46.2944 76.712 46.2436 76.6001 46.16C76.4882 46.0765 76.4018 45.9634 76.3505 45.8334C76.2992 45.7035 76.2851 45.5619 76.3098 45.4244L77.2791 40.0251L77.3754 39.4884L76.9765 39.1167L72.8569 35.2786L72.8569 35.2786C72.7528 35.1816 72.6784 35.0572 72.6422 34.9197C72.606 34.7822 72.6095 34.6372 72.6523 34.5016C72.6951 34.366 72.7755 34.2453 72.8842 34.1536C72.9928 34.0618 73.1252 34.0027 73.266 33.9831L79.0256 33.1832L79.5389 33.1119L79.7766 32.6514L82.338 27.6904L86.4747 33.1119Z" stroke="#FFCD00" stroke-width="2"/><path d="M111.758 44.214L111.758 44.2141C111.801 44.3482 111.806 44.4919 111.772 44.6286C111.737 44.7653 111.665 44.8896 111.563 44.9872L108.731 47.7087L108.347 48.0773L108.438 48.6014L109.107 52.4378C109.107 52.4378 109.107 52.4378 109.107 52.4378C109.131 52.5758 109.116 52.7178 109.063 52.8478C109.011 52.9777 108.923 53.0904 108.81 53.1733C108.697 53.2561 108.563 53.3057 108.424 53.3164C108.284 53.3272 108.144 53.2987 108.02 53.2342L108.019 53.234L104.493 51.4073L104.033 51.169L103.573 51.4073L100.048 53.234L100.047 53.2342C99.9228 53.2987 99.7829 53.3272 99.6432 53.3164C99.5035 53.3057 99.3696 53.2561 99.2566 53.1733C99.1436 53.0905 99.056 52.9777 99.0036 52.8478C98.9512 52.7178 98.9362 52.5758 98.9603 52.4378C98.9603 52.4378 98.9603 52.4378 98.9603 52.4378L99.6285 48.6014L99.7198 48.0773L99.3361 47.7087L96.5035 44.9873C96.5034 44.9872 96.5034 44.9871 96.5033 44.9871C96.4018 44.8894 96.3297 44.7652 96.2953 44.6286C96.2609 44.4919 96.2655 44.3483 96.3088 44.2142C96.352 44.08 96.4321 43.9607 96.5398 43.8698C96.6475 43.7789 96.7787 43.7201 96.9182 43.7002L96.9183 43.7002L100.853 43.1363L101.371 43.0621L101.605 42.5942L103.361 39.088L103.361 39.0879C103.424 38.9631 103.52 38.8582 103.638 38.7848C103.757 38.7115 103.894 38.6726 104.033 38.6726C104.173 38.6726 104.31 38.7115 104.429 38.7848C104.547 38.8582 104.643 38.9631 104.706 39.0879L104.706 39.088L106.461 42.5942L106.696 43.0621L107.214 43.1363L111.149 43.7002L111.149 43.7002C111.288 43.7201 111.419 43.7789 111.527 43.8697C111.635 43.9606 111.715 44.0799 111.758 44.214Z" stroke="#FFCD00" stroke-width="2"/><path d="M50.5908 91.9914V96.3719C50.5908 96.8366 50.7754 97.2823 51.104 97.6109C51.4326 97.9395 51.8783 98.1241 52.343 98.1241H78.6263C79.091 98.1241 79.5366 97.9395 79.8652 97.6109C80.1938 97.2823 80.3785 96.8366 80.3785 96.3719V91.9914C80.3762 91.2649 80.1478 90.5571 79.7249 89.9663C79.3021 89.3756 78.7057 88.9312 78.0188 88.6948C79.029 84.2997 79.5251 79.802 79.4971 75.2923C79.4948 75.1392 79.3532 67.6172 79.3532 67.6172C79.3033 66.0338 78.6365 64.5326 77.4951 63.434C76.3537 62.3354 74.8281 61.7264 73.244 61.737L73.1646 61.7375C73.0154 61.7396 72.8675 61.747 72.7209 61.7595C72.1459 60.9996 71.4026 60.3835 70.5493 59.9593C69.6961 59.5352 68.7561 59.3147 67.8032 59.3151C67.7001 59.3276 67.5961 59.33 67.4926 59.3223C66.948 58.5968 66.2498 58.0006 65.4479 57.5764C64.6461 57.1522 63.7604 56.9104 62.8542 56.8684V51.6903L62.8539 51.6451C62.8091 48.1747 60.3454 45.5576 57.1231 45.5576L57.0547 45.558C56.3288 45.561 55.6106 45.7083 54.9421 45.9912C54.2736 46.2742 53.6679 46.6873 53.1604 47.2064C52.5955 47.8093 52.155 48.5177 51.8642 49.291C51.5733 50.0644 51.4378 50.8875 51.4655 51.7132V65.2528C50.6223 64.8965 49.7168 64.7114 48.8014 64.7081C47.5756 64.6758 46.3689 65.0168 45.3413 65.6859C44.3137 66.355 43.5137 67.3206 43.0474 68.4547C42.154 70.9372 42.9976 73.923 45.6263 77.5795L52.5256 88.8751C51.9461 89.1643 51.4583 89.6088 51.1166 90.1591C50.775 90.7093 50.593 91.3437 50.5908 91.9914ZM48.5464 75.637C47.4491 73.8407 44.3129 69.9872 47.4384 68.5329C49.0661 67.7756 50.7525 68.6192 52.0063 69.7589C52.5106 70.2239 52.9767 70.7288 53.3999 71.2686C53.514 71.4085 53.6681 71.5102 53.8416 71.5599C54.0151 71.6097 54.1997 71.6052 54.3706 71.547C54.5414 71.4889 54.6904 71.3799 54.7976 71.2346C54.9047 71.0893 54.9648 70.9148 54.9699 70.7343V51.6903C54.9489 50.3298 55.6551 49.0811 57.0945 49.0622L57.1231 49.0621C58.5441 49.0621 59.3323 50.3407 59.3498 51.6903V62.444C59.3498 62.444 59.3614 62.6656 59.387 62.6656C59.3927 62.6656 59.3992 62.6544 59.4064 62.627C59.4211 62.5706 59.4385 62.5146 59.4586 62.4589C59.7327 61.8644 60.1632 61.3557 60.7041 60.9871C61.245 60.6185 61.876 60.4039 62.5295 60.3663L62.564 60.3661C63.2299 60.3485 63.8761 60.5933 64.3632 61.0478C64.8504 61.5023 65.1394 62.1299 65.168 62.7955L65.1882 64.6729C65.1882 64.6729 65.2021 64.7528 65.2279 64.7528C65.242 64.7528 65.2596 64.7287 65.2804 64.6538C65.4413 64.1212 65.7701 63.6549 66.2176 63.3244C66.6652 62.9939 67.2075 62.8169 67.7639 62.8198L67.8032 62.8196C68.469 62.8032 69.1147 63.0485 69.6017 63.5029C70.0887 63.9572 70.3782 64.5843 70.408 65.2497L70.5984 67.2836C70.5984 67.2836 70.6223 67.354 70.6457 67.354C70.6568 67.354 70.6677 67.3383 70.6759 67.2919C70.7958 66.71 71.1137 66.1876 71.5754 65.8137C72.0372 65.4399 72.6143 65.2377 73.2085 65.2416L73.244 65.2414C73.9096 65.2246 74.5553 65.4696 75.0424 65.9236C75.5295 66.3776 75.8192 67.0045 75.8492 67.6697L75.982 76.545L75.993 75.3452C76.016 79.7713 75.5034 84.1839 74.4665 88.4869H56.395L48.5464 75.637Z" fill="#005AA2"/></svg>