<svg width="71" height="93" viewBox="0 0 71 93" fill="none" xmlns="http://www.w3.org/2000/svg">
<path d="M51.0998 38.388C62.6478 32.56 68.6088 21.172 70.6458 16.499C71.6128 14.267 69.9678 11.773 67.5218 11.773H59.0038C59.6488 5.887 59.6288 1.68 59.6268 1.489C59.6208 0.665 58.9508 0 58.1268 0H12.8058C11.9818 0 11.3118 0.665 11.3058 1.489C11.3048 1.68 11.2848 5.887 11.9288 11.773H3.40081C0.939806 11.773 -0.688193 14.286 0.286807 16.501C2.31381 21.172 8.25781 32.562 19.8298 38.388C21.5428 41.098 23.4968 43.296 25.6558 44.932L22.3208 47.119C19.9598 48.671 18.5508 51.281 18.5518 54.099V55.368L16.1138 55.294C16.1738 51.038 17.0648 51.834 4.68681 51.66C3.83781 51.669 3.17781 52.311 3.16581 53.139L2.82281 77.603C2.81181 78.431 3.47181 79.112 4.30181 79.124L12.7458 79.242V83.07C10.2358 83.217 8.63881 84.207 8.63881 85.692V90.171C8.63881 91.787 10.5038 92.832 13.3908 92.832H58.4418C61.3348 92.832 63.2038 91.787 63.2038 90.171V85.692C63.2038 84.206 61.6028 83.216 59.0868 83.07V78.835C59.0868 77.248 57.3818 76.183 54.8458 76.183H48.3788C49.4838 74.643 49.5838 72.307 48.4268 70.633C50.8038 68.853 50.8958 65.63 49.0348 63.665C50.8098 61.812 50.7168 58.985 49.0358 57.208C51.8598 54.261 49.7678 49.273 45.6068 49.273H43.1228C43.2348 48.22 43.3598 47.168 43.4968 46.118C46.3898 44.396 48.9428 41.802 51.0978 38.388H51.0998ZM45.6078 52.273C47.8808 52.273 47.9428 55.728 45.4198 55.728C40.8858 55.73 40.1158 55.474 39.5678 56.558C39.0858 57.513 39.7188 58.73 40.9618 58.73C45.8588 58.73 46.1768 58.551 46.8558 59.266C47.9378 60.405 47.0698 62.185 45.4188 62.185L40.8988 62.188C38.9148 62.19 38.9158 65.188 40.8988 65.188H45.6068C47.8788 65.188 47.9358 68.642 45.4208 68.642L40.8968 68.645C38.9258 68.647 38.9078 71.645 40.8968 71.645L44.7068 71.643C46.8258 71.689 46.6948 75.1 44.6758 75.1C26.2748 75.094 25.9538 75.25 24.0478 73.296C22.3138 71.512 20.5578 71.895 15.8808 71.829L16.0708 58.294L20.0038 58.415C20.7668 58.477 21.5488 57.809 21.5498 56.917C21.5538 50.764 21.9048 50.98 26.4718 47.986V50.772C26.4728 51.607 27.1638 52.271 27.9718 52.271L45.6058 52.274L45.6078 52.273ZM60.2048 89.593C59.0868 89.965 60.2008 89.832 13.3918 89.832C12.5838 89.832 11.9808 89.708 11.6398 89.595V86.276C12.7538 85.908 11.6458 86.04 58.4438 86.04C59.2538 86.04 59.8608 86.164 60.2058 86.278L60.2048 89.593ZM15.8408 74.828C22.7958 74.926 20.8098 74.638 22.8048 76.182C16.4368 76.182 16.6548 76.15 15.8198 76.28L15.8398 74.829L15.8408 74.828ZM6.14581 54.68L13.1218 54.778L12.8208 76.243L5.84481 76.145L6.14581 54.68ZM56.0888 82.796C55.2768 83.074 56.0798 82.975 16.9888 82.975C16.4338 82.975 16.0048 82.883 15.7478 82.795V79.36C16.4948 79.106 16.2448 79.181 28.0308 79.181C56.0818 79.181 55.2778 79.086 56.0888 79.359V82.796ZM14.3278 3H56.6058C56.3308 13.494 54.2448 27.554 48.7728 36.466C44.8798 42.821 39.4448 45.61 35.2458 45.61C19.2228 44.045 14.7478 18.993 14.3288 3.001L14.3278 3ZM40.1048 49.274L29.8148 49.271C29.7278 48.581 29.6298 47.893 29.5288 47.205C33.8438 49.067 36.6658 48.904 40.3008 47.615C40.2368 48.168 40.1628 48.72 40.1048 49.274ZM67.5228 14.774C67.8148 14.774 68.0018 15.057 67.8948 15.304C66.2468 19.085 61.8528 27.567 53.7838 33.277C56.4458 27.173 57.8738 20.267 58.6348 14.774H67.5228ZM3.03781 15.299C2.92681 15.045 3.11881 14.774 3.40281 14.774H12.2998C13.0608 20.269 14.4898 27.18 17.1548 33.287C9.06681 27.579 4.68181 19.089 3.03681 15.3L3.03781 15.299Z" fill="#1055A0"/>
<path d="M26.7059 33.066C26.4149 34.027 27.1349 35.001 28.1419 35.001C28.7699 35.001 28.2419 35.259 35.6509 30.103L42.3019 34.733C43.4709 35.542 45.0049 34.424 44.5939 33.067L42.2469 25.31L48.7049 20.414C49.8359 19.557 49.2479 17.749 47.8299 17.719L39.7279 17.554L37.0669 9.90002C36.6009 8.56002 34.6989 8.56002 34.2329 9.90002L31.5719 17.554L23.4699 17.719C22.0509 17.749 21.4639 19.557 22.5949 20.414L29.0529 25.31L26.7059 33.066ZM27.8459 20.63L32.6769 20.531C33.3039 20.518 33.8569 20.116 34.0629 19.523L35.6499 14.959L37.2359 19.523C37.4419 20.116 37.9949 20.518 38.6219 20.531L43.4529 20.63L39.6019 23.549C39.1019 23.928 38.8909 24.578 39.0729 25.179L40.4719 29.804L36.5059 27.043C35.9899 26.686 35.3079 26.686 34.7919 27.043L30.8259 29.804L32.2249 25.179C32.4069 24.578 32.1959 23.928 31.6959 23.549L27.8459 20.63Z" fill="#FFC500"/>
</svg>