<svg width="123" height="122" viewBox="0 0 123 122" fill="none" xmlns="http://www.w3.org/2000/svg">
<g id="Group 11939">
<g id="Group">
<g id="Group_2">
<path id="Vector" d="M21.7312 40.2423C26.4208 31.3708 33.9387 24.3066 43.0697 20.1496C43.7782 19.8271 43.9449 18.8156 43.582 18.196C43.1593 17.4743 42.3367 17.3612 41.6283 17.6838C32.0978 22.0226 24.1572 29.5464 19.2653 38.8011C18.4054 40.4277 20.8702 41.871 21.7312 40.2423Z" fill="#FFC500"/>
</g>
</g>
<g id="Group_3">
<g id="Group_4">
<path id="Vector_2" d="M43.0659 101.737C33.9329 97.5789 26.4129 90.5123 21.7233 81.6377C20.8626 80.009 18.3977 81.4522 19.2574 83.0792C24.1494 92.3367 32.0921 99.863 41.6245 104.203C42.3329 104.526 43.1554 104.413 43.5782 103.691C43.9411 103.071 43.7744 102.06 43.0659 101.737Z" fill="#FFC500"/>
</g>
</g>
<g id="Group_5">
<g id="Group_6">
<path id="Vector_3" d="M79.5634 20.1359C88.7081 24.2903 96.2383 31.361 100.933 40.2423C101.794 41.8709 104.259 40.4277 103.399 38.8009C98.5018 29.5367 90.549 22.0059 81.0049 17.67C80.2962 17.3479 79.4742 17.4603 79.0513 18.1822C78.6886 18.8014 78.8546 19.8138 79.5634 20.1359Z" fill="#FFC500"/>
</g>
</g>
<g id="Group_7">
<g id="Group_8">
<path id="Vector_4" d="M100.937 81.6377C96.2427 90.5227 88.711 97.5954 79.5635 101.751C78.8547 102.073 78.6885 103.085 79.0512 103.705C79.4742 104.427 80.2962 104.539 81.0048 104.217C90.5516 99.8798 98.5061 92.347 103.403 83.0791C104.263 81.4522 101.798 80.009 100.937 81.6377Z" fill="#FFC500"/>
</g>
</g>
<g id="Group_9">
<g id="Group_10">
<path id="Vector_5" d="M66.3583 7.9019C66.3182 10.6768 64.1054 12.8896 61.3304 12.9297C58.5551 12.9698 56.3418 10.6165 56.3025 7.9019C56.2624 5.12663 58.6158 2.9134 61.3304 2.8741C64.1058 2.83398 66.319 5.18728 66.3583 7.9019C66.3849 9.74183 69.2408 9.74442 69.2141 7.9019C69.1642 4.44505 66.9715 1.50156 63.7162 0.387125C60.4104 -0.744443 56.8515 0.70534 54.8456 3.42608C52.7973 6.20434 53.106 10.1593 55.1742 12.8095C57.232 15.4465 60.9284 16.465 64.0562 15.2948C67.1474 14.1384 69.1665 11.1882 69.2141 7.9019C69.2408 6.05938 66.3849 6.06196 66.3583 7.9019Z" fill="#1055A0"/>
</g>
</g>
<g id="Group_11">
<g id="Group_12">
<path id="Vector_6" d="M68.5162 15.4733C69.7721 16.2872 70.7172 17.491 71.194 18.9107C71.5051 19.837 71.5235 20.7637 71.5235 21.7244C71.5235 22.7724 71.5235 23.8205 71.5235 24.8686C71.5235 25.462 71.6368 26.3245 71.4067 26.7764C71.1537 27.2729 70.7384 27.3562 70.2043 27.3562C69.6948 27.3562 69.1856 27.3562 68.6761 27.3562C66.7656 27.3562 64.8552 27.3562 62.9447 27.3562C59.434 27.3562 55.9232 27.3562 52.4125 27.3562C51.8029 27.3562 51.4564 27.1928 51.1644 26.6196C50.9828 26.263 51.1274 25.2289 51.1274 24.7458C51.1274 22.7837 50.8853 20.6297 51.5131 18.7425C51.952 17.423 52.9238 16.2719 54.0728 15.5122C55.6013 14.5017 54.1726 12.0275 52.6314 13.0463C49.8866 14.861 48.2715 17.8253 48.2715 21.1214C48.2715 22.8302 48.2715 24.5391 48.2715 26.2481C48.2715 27.9203 49.3364 29.4556 50.9264 29.9977C51.4903 30.19 52.0644 30.2119 52.6495 30.2119C54.1435 30.2119 55.6375 30.2119 57.1315 30.2119C61.1385 30.2119 65.1456 30.2119 69.1524 30.2119C69.5587 30.2119 69.9652 30.2119 70.3715 30.2119C71.6965 30.2119 72.9193 29.5977 73.6818 28.5108C74.3175 27.6044 74.3793 26.5886 74.3793 25.5315C74.3793 24.4835 74.3793 23.4354 74.3793 22.3873C74.3793 21.018 74.3812 19.6811 74.0072 18.3445C73.3857 16.1234 71.8752 14.2498 69.9577 13.0073C68.407 12.0026 66.9772 14.476 68.5162 15.4733Z" fill="#1055A0"/>
</g>
</g>
<g id="Group_13">
<g id="Group_14">
<path id="Vector_7" d="M66.3583 99.5583C66.3182 102.333 64.1054 104.546 61.3304 104.586C58.5551 104.626 56.3418 102.273 56.3025 99.5583C56.2624 96.783 58.6158 94.5698 61.3304 94.5305C64.1058 94.4905 66.319 96.8437 66.3583 99.5583C66.3849 101.398 69.2408 101.401 69.2141 99.5583C69.1642 96.1015 66.9715 93.158 63.7162 92.0435C60.4104 90.912 56.8515 92.3619 54.8456 95.0825C52.7973 97.8608 53.106 101.816 55.1742 104.466C57.232 107.103 60.9284 108.122 64.0562 106.951C67.1474 105.795 69.1665 102.845 69.2141 99.5583C69.2408 97.7158 66.3849 97.7184 66.3583 99.5583Z" fill="#1055A0"/>
</g>
</g>
<g id="Group_15">
<g id="Group_16">
<path id="Vector_8" d="M68.5162 107.13C69.7721 107.944 70.7172 109.148 71.194 110.567C71.5051 111.494 71.5235 112.42 71.5235 113.381C71.5235 114.429 71.5235 115.477 71.5235 116.525C71.5235 117.119 71.6368 117.981 71.4067 118.433C71.1537 118.929 70.7384 119.013 70.2043 119.013C69.6948 119.013 69.1856 119.013 68.6761 119.013C66.7656 119.013 64.8552 119.013 62.9447 119.013C59.434 119.013 55.9232 119.013 52.4125 119.013C51.8029 119.013 51.4564 118.849 51.1644 118.276C50.9828 117.92 51.1274 116.885 51.1274 116.402C51.1274 114.44 50.8853 112.286 51.5131 110.399C51.952 109.08 52.9238 107.929 54.0728 107.169C55.6013 106.158 54.1726 103.684 52.6314 104.703C49.8866 106.518 48.2715 109.482 48.2715 112.778C48.2715 114.487 48.2715 116.196 48.2715 117.905C48.2715 119.577 49.3364 121.112 50.9264 121.654C51.4903 121.846 52.0644 121.868 52.6495 121.868C54.1435 121.868 55.6375 121.868 57.1315 121.868C61.1385 121.868 65.1456 121.868 69.1524 121.868C69.5587 121.868 69.9652 121.868 70.3715 121.868C71.6965 121.868 72.9193 121.254 73.6818 120.167C74.3175 119.261 74.3793 118.245 74.3793 117.188C74.3793 116.14 74.3793 115.092 74.3793 114.044C74.3793 112.675 74.3812 111.338 74.0072 110.001C73.3857 107.78 71.8752 105.906 69.9577 104.664C68.407 103.659 66.9772 106.133 68.5162 107.13Z" fill="#1055A0"/>
</g>
</g>
<g id="Group_17">
<g id="Group_18">
<path id="Vector_9" d="M114.63 53.7302C114.59 56.505 112.377 58.7179 109.602 58.758C106.827 58.7981 104.613 56.4448 104.574 53.7302C104.534 50.9549 106.887 48.7417 109.602 48.7024C112.377 48.6623 114.59 51.0156 114.63 53.7302C114.656 55.5701 117.512 55.5727 117.486 53.7302C117.436 50.2733 115.243 47.3298 111.988 46.2154C108.682 45.0838 105.123 46.5338 103.117 49.2544C101.069 52.0326 101.378 55.9876 103.446 58.6378C105.504 61.2747 109.2 62.2933 112.328 61.1231C115.419 59.9667 117.438 57.0165 117.486 53.7302C117.512 51.8877 114.656 51.8902 114.63 53.7302Z" fill="#1055A0"/>
</g>
</g>
<g id="Group_19">
<g id="Group_20">
<path id="Vector_10" d="M116.799 61.3016C118.055 62.1154 119 63.3191 119.477 64.739C119.788 65.6654 119.807 66.5921 119.807 67.5526C119.807 68.6007 119.807 69.6488 119.807 70.6967C119.807 71.2903 119.92 72.1526 119.69 72.6045C119.437 73.1011 119.022 73.1845 118.487 73.1845C117.978 73.1845 117.469 73.1845 116.959 73.1845C115.049 73.1845 113.138 73.1845 111.228 73.1845C107.717 73.1845 104.207 73.1845 100.696 73.1845C100.086 73.1845 99.7396 73.021 99.4476 72.4478C99.2659 72.0914 99.4106 71.0572 99.4106 70.5742C99.4106 68.6121 99.1685 66.458 99.7963 64.5709C100.235 63.2514 101.207 62.1003 102.356 61.3408C103.885 60.3304 102.456 57.856 100.915 58.8749C98.1697 60.6894 96.5547 63.6538 96.5547 66.9499C96.5547 68.6586 96.5547 70.3676 96.5547 72.0764C96.5547 73.7487 97.6196 75.284 99.2096 75.8261C99.7736 76.0182 100.348 76.0401 100.933 76.0401C102.427 76.0401 103.921 76.0401 105.415 76.0401C109.422 76.0401 113.429 76.0401 117.436 76.0401C117.842 76.0401 118.248 76.0401 118.655 76.0401C119.98 76.0401 121.203 75.426 121.965 74.3389C122.601 73.4325 122.662 72.4167 122.662 71.3596C122.662 70.3116 122.662 69.2635 122.662 68.2156C122.662 66.8463 122.664 65.5093 122.29 64.1728C121.669 61.9516 120.158 60.0782 118.241 58.8356C116.69 57.831 115.26 60.3043 116.799 61.3016Z" fill="#1055A0"/>
</g>
</g>
<g id="Group_21">
<g id="Group_22">
<path id="Vector_11" d="M18.0828 53.7301C18.0427 56.505 15.8299 58.7178 13.0549 58.7579C10.2796 58.798 8.06625 56.4447 8.02708 53.7301C7.98697 50.9549 10.3404 48.7416 13.0549 48.7023C15.8303 48.6622 18.0436 51.0155 18.0828 53.7301C18.1095 55.5701 20.9652 55.5726 20.9386 53.7301C20.8885 50.2733 18.696 47.3298 15.4407 46.2154C12.135 45.0838 8.57607 46.5337 6.57023 49.2543C4.52196 52.0326 4.83065 55.9875 6.89878 58.6377C8.95657 61.2747 12.653 62.2932 15.7808 61.1231C18.872 59.9666 20.8911 57.0164 20.9386 53.7301C20.9652 51.8876 18.1095 51.8902 18.0828 53.7301Z" fill="#1055A0"/>
</g>
</g>
<g id="Group_23">
<g id="Group_24">
<path id="Vector_12" d="M20.2446 61.3015C21.5005 62.1153 22.4454 63.3191 22.9224 64.7389C23.2335 65.6653 23.2519 66.5921 23.2519 67.5526C23.2519 68.6006 23.2519 69.6487 23.2519 70.6966C23.2519 71.2902 23.3651 72.1525 23.1349 72.6044C22.882 73.1011 22.4667 73.1844 21.9326 73.1844C21.4232 73.1844 20.9139 73.1844 20.4045 73.1844C18.4941 73.1844 16.5836 73.1844 14.6733 73.1844C11.1625 73.1844 7.65171 73.1844 4.14101 73.1844C3.53137 73.1844 3.18487 73.021 2.8929 72.4478C2.71136 72.0913 2.85591 71.0571 2.85591 70.5741C2.85591 68.6121 2.61385 66.458 3.24158 64.5709C3.68055 63.2514 4.65233 62.1003 5.80131 61.3407C7.32996 60.3302 5.90126 57.856 4.35995 58.8748C1.61501 60.6893 0 63.6538 0 66.9499C0 68.6586 0 70.3675 0 72.0764C0 73.7486 1.06493 75.284 2.65492 75.826C3.21887 76.0182 3.79288 76.0401 4.37804 76.0401C5.87202 76.0401 7.366 76.0401 8.85998 76.0401C12.8669 76.0401 16.874 76.0401 20.8809 76.0401C21.2872 76.0401 21.6937 76.0401 22.1 76.0401C23.4251 76.0401 24.6479 75.4259 25.4103 74.3388C26.0459 73.4325 26.1076 72.4166 26.1076 71.3596C26.1076 70.3115 26.1076 69.2634 26.1076 68.2155C26.1076 66.8462 26.1095 65.5092 25.7356 64.1727C25.1141 61.9516 23.6037 60.0782 21.686 58.8355C20.1354 57.831 18.7055 60.3042 20.2446 61.3015Z" fill="#1055A0"/>
</g>
</g>
<path id="Vector_13" d="M76.5563 46.4437C72.4012 42.2884 66.8764 40 61 40C55.1236 40 49.599 42.2884 45.4437 46.4437C41.2884 50.5989 39 56.1236 39 62C39 67.8764 41.2884 73.4011 45.4437 77.5563C49.599 81.7116 55.1236 84 61 84C66.8764 84 72.4012 81.7116 76.5563 77.5563C80.7116 73.4011 83 67.8764 83 62C83 56.1236 80.7116 50.5989 76.5563 46.4437ZM71.3108 49.4558L72.2779 45.438C76.129 48.0687 79.0196 52.0059 80.3064 56.6063L79.7998 56.7037C79.0433 56.8493 78.4345 57.4264 78.2491 58.1743L78.0525 58.9665C78.0504 58.9754 78.0489 58.9813 78.0345 58.9863C78.0204 58.9914 78.0154 58.9878 78.008 58.9823L76.8342 58.1021C76.2258 57.6457 75.3974 57.5788 74.7238 57.9316L73.2589 58.6984C72.5563 59.0662 72.1502 59.7865 72.1991 60.5782C72.2479 61.3698 72.7393 62.0346 73.4821 62.3135L73.5515 62.3396C73.5595 62.3426 73.5655 62.3447 73.569 62.3591C73.5727 62.3734 73.5686 62.3781 73.5629 62.3847L72.6504 63.4341C72.6412 63.4445 72.6254 63.4469 72.6135 63.4392L70.154 61.8523C69.59 61.4883 68.8869 61.4335 68.2735 61.706C67.6601 61.9784 67.229 62.5364 67.1208 63.1988L66.931 64.3583C66.8237 65.0128 67.0489 65.6742 67.5333 66.1274L68.816 67.3277C68.8261 67.3371 68.828 67.3524 68.8203 67.3639L66.7298 70.5329C66.5309 70.8344 66.418 71.1848 66.4035 71.546L66.2221 76.0829C66.2218 76.0901 66.2188 76.0968 66.2136 76.1019L63.4296 78.8307C63.4204 78.8397 63.4063 78.8414 63.3954 78.835L61.5901 77.7775C61.5833 77.7735 61.5783 77.7668 61.5768 77.7591C61.5768 77.7591 60.7009 73.7851 60.6682 73.6969L59.872 71.5599C59.6059 70.8459 58.9437 70.3419 58.1849 70.2761L54.5409 69.9591C54.5318 69.9583 54.5235 69.9532 54.5189 69.945L52.4459 66.3708C52.4426 66.3652 52.4415 66.3586 52.4424 66.3523L52.9637 62.8858C52.9648 62.8784 52.9687 62.8718 52.9746 62.8674L56.1575 60.4658C56.1656 60.4598 56.1763 60.4586 56.1856 60.4623L59.2697 61.749C59.4453 61.8221 59.6301 61.8696 59.819 61.8902L64.0906 62.3545C64.5775 62.4074 65.0633 62.2795 65.4608 61.9946L68.2909 59.966C69.0533 59.4196 69.3291 58.4012 68.9466 57.5446L68.684 56.9569C68.3794 56.2749 67.7268 55.8259 66.9811 55.7852L59.033 55.35C59.0287 55.3497 59.0244 55.3484 59.0206 55.3463C59.0125 55.3418 59.0078 55.3381 59.0078 55.3381C59.0039 55.3291 59.0069 55.3066 59.0114 55.3003C59.0126 55.2996 59.0176 55.2969 59.0273 55.2942L61.4134 54.6511C61.7291 54.566 62.0214 54.4025 62.2589 54.1784L65.177 51.4247C65.1813 51.4205 65.1872 51.4178 65.1934 51.4171L69.5852 50.9649C70.4208 50.8789 71.1141 50.2726 71.3108 49.4558ZM56.4349 47.8413L58.0766 44.7511C58.3192 44.2944 58.3957 43.7638 58.2917 43.2572L58.0688 42.1705C59.0259 42.0296 60.0043 41.9556 60.9999 41.9556C62.004 41.9556 62.9909 42.0308 63.9557 42.174C63.9557 42.174 63.7205 42.4311 63.6799 42.4473L61.3546 43.38C61.0224 43.5134 60.7237 43.7276 60.4908 43.9997L56.8679 48.2342C56.8187 48.2917 56.747 48.3266 56.6712 48.3298C56.5562 48.3349 56.4851 48.2714 56.4519 48.2344C56.323 48.0911 56.4223 47.8652 56.4349 47.8413ZM47.888 46.8507V49.7846C47.888 50.604 47.4773 51.3588 46.79 51.8046L44.6848 53.1707C44.1969 53.4874 43.7833 53.8913 43.4557 54.3714L41.545 57.1712C42.5557 53.1001 44.8129 49.516 47.888 46.8507ZM49.166 75.7143L48.889 77.9607C45.7547 75.5766 43.3407 72.2924 42.0368 68.4964H43.2817C43.4342 68.4964 43.575 68.5736 43.6571 68.7017L46.1729 72.6216C46.2864 72.7976 46.4213 72.958 46.5758 73.0988L49.0233 75.331C49.1298 75.4278 49.1836 75.5716 49.166 75.7143ZM61 82.0444C57.2395 82.0444 53.718 81.0026 50.7075 79.1937L51.1069 75.9538C51.2017 75.1824 50.9153 74.4089 50.3413 73.8858C50.3413 73.8858 47.8401 71.5978 47.8185 71.5655L45.3027 67.6457C44.8588 66.9534 44.103 66.5407 43.2817 66.5407H41.4744C41.1351 65.0812 40.9555 63.5611 40.9555 62C40.9555 61.8314 40.9577 61.6635 40.9619 61.4959L45.0709 55.4743C45.2519 55.2084 45.4797 54.9854 45.7495 54.8105L47.8537 53.4455C49.0993 52.6379 49.8435 51.269 49.8435 49.7847V45.3553C51.7418 44.0788 53.8695 43.1189 56.1504 42.55L56.3761 43.6501C56.3887 43.7124 56.3794 43.7776 56.3496 43.8337L54.708 46.9237C54.6054 47.1167 54.4725 47.624 54.4725 47.624C54.3392 48.2988 54.5194 48.9853 54.9672 49.5074C55.3941 50.0054 56.0058 50.2858 56.6576 50.2858C56.6893 50.2858 57.6347 50.3319 58.3538 49.5056L61.9766 45.2714C62.0052 45.2379 62.0421 45.2115 62.0828 45.1952L64.4078 44.2626C64.7385 44.13 65.036 43.9171 65.2682 43.6471L66.1458 42.6266C67.6908 43.0374 69.1633 43.6272 70.5387 44.3746C70.516 44.4265 69.4093 48.9983 69.4093 48.9983C69.4066 49.0099 69.3966 49.0186 69.3846 49.0198L64.9927 49.4721C64.5611 49.5166 64.1497 49.705 63.8344 50.0027L60.9163 52.7564C60.9129 52.7595 60.9089 52.7619 60.9043 52.763L58.518 53.4062C57.7395 53.6159 57.1698 54.2683 57.0668 55.0679C56.9636 55.8676 57.3491 56.643 58.049 57.0436C58.3158 57.1962 58.6191 57.2858 58.9259 57.3027L66.874 57.7378C66.8846 57.7384 66.8939 57.7449 66.8982 57.7546L67.1607 58.3421C67.1662 58.3543 67.1622 58.3689 67.1513 58.3767L64.3211 60.4052C64.3155 60.4094 64.3089 60.4112 64.3017 60.4104L60.0224 59.9442L56.9386 58.6577C56.2907 58.3873 55.5403 58.4821 54.9798 58.9049L51.7968 61.3065C51.3801 61.621 51.1077 62.0786 51.0301 62.595L50.5086 66.0616C50.442 66.5054 50.5293 66.9636 50.7543 67.3517L52.8274 70.9263C53.1512 71.4847 53.7286 71.8514 54.3717 71.9075L58.0157 72.2244C58.0265 72.2254 58.036 72.2325 58.0398 72.2428L58.837 74.3837L59.6665 78.1771C59.7845 78.7165 60.1254 79.1859 60.6018 79.4651L62.4071 80.5226C62.7182 80.7049 63.0641 80.7937 63.4078 80.7937C63.9153 80.7937 64.4183 80.6001 64.7985 80.2275L67.5825 77.4988C67.9451 77.1433 68.1559 76.6683 68.1762 76.1611L68.3576 71.6246C68.3578 71.6193 68.3593 71.6142 68.3624 71.6101L70.453 68.4411C70.9869 67.6314 70.8604 66.5627 70.1522 65.9002L68.8694 64.6999C68.8625 64.6934 68.8593 64.684 68.8608 64.6746L69.0507 63.515C69.0522 63.5056 69.0531 63.4999 69.0671 63.4937C69.0808 63.4874 69.0858 63.4906 69.0939 63.4958L71.5533 65.0827C72.3768 65.614 73.4827 65.4572 74.1259 64.7176L75.0384 63.6682C75.4649 63.178 75.6241 62.5094 75.4647 61.8796C75.3052 61.2499 74.8471 60.7375 74.2386 60.5091L74.1691 60.483C74.1602 60.4797 74.1556 60.4767 74.1556 60.4767C74.1501 60.4694 74.149 60.4472 74.1527 60.44C74.1535 60.4391 74.1576 60.4357 74.166 60.4313L75.6309 59.6643C75.6406 59.6593 75.6522 59.6602 75.6609 59.6667L76.8348 60.547C77.3684 60.9472 78.0622 61.0526 78.6906 60.8287C79.3188 60.6051 79.7899 60.085 79.9505 59.4375L80.147 58.6454C80.1496 58.6348 80.1583 58.6264 80.1692 58.6244L80.7405 58.5146C80.9401 59.6469 81.0448 60.8116 81.0448 62.0002C81.0444 73.0526 72.0525 82.0444 61 82.0444Z" fill="#FFC500" stroke="#FFC500" stroke-width="0.5"/>
</g>
</svg>