<?xml version="1.0" encoding="UTF-8"?>
<svg xmlns="http://www.w3.org/2000/svg" width="78" height="78" viewBox="0 0 78 78" fill="none"><path d="M52.8381 42.2792H52.6881V42.4292V44.8233V44.9733H52.8381H65.1143H65.2643V44.8233V42.4292V42.2792H65.1143H52.8381Z" fill="#FFC500" stroke="#FFC500" stroke-width="0.3"/><path d="M61.4976 62.692L61.4976 62.6921C61.4822 62.7131 61.4669 62.7341 61.4506 62.7552C61.4449 62.7638 61.4381 62.7724 61.4314 62.7801C61.4084 62.8079 61.3854 62.8337 61.3595 62.8596L47.5488 76.6495C47.521 76.6773 47.4913 76.7041 47.4606 76.729C47.4423 76.7434 47.4222 76.7568 47.403 76.7711C47.3965 76.7762 47.3899 76.7812 47.3833 76.7861C47.3774 76.7905 47.3715 76.7948 47.3656 76.7989C47.3436 76.8132 47.3217 76.8256 47.2997 76.838L47.2994 76.8382C47.287 76.8449 47.2764 76.8525 47.264 76.8592L61.4976 62.692ZM61.4976 62.692L61.5149 62.6661L61.4976 62.692ZM47.0888 77.0924C47.0659 77.0992 47.0353 77.1059 47.026 77.1082C47.0197 77.1097 46.9849 77.1196 46.9624 77.1241L46.9611 77.1244C46.9378 77.1288 46.9063 77.1324 46.8949 77.134L47.0971 76.9311M47.0888 77.0924C47.0883 77.0926 47.0878 77.0927 47.0873 77.0928L47.0472 76.9483L47.0902 77.092C47.0898 77.0921 47.0893 77.0923 47.0888 77.0924ZM47.0888 77.0924C47.1076 77.0871 47.1297 77.0789 47.1409 77.0747C47.1436 77.0737 47.1457 77.073 47.1469 77.0725L47.0971 76.9311M47.0971 76.9311C47.1172 76.9243 47.1374 76.9176 47.1575 76.909C47.1666 76.9051 47.1757 76.9008 47.1851 76.8963C47.1896 76.8942 47.1941 76.892 47.1987 76.8899M47.0971 76.9311L47.1444 77.0734L47.1462 77.0728C47.1653 77.0664 47.1905 77.058 47.2165 77.0469C47.2285 77.0418 47.2427 77.035 47.253 77.0301C47.2557 77.0288 47.2582 77.0276 47.2603 77.0267M47.1987 76.8899L47.2585 77.0275C47.2591 77.0272 47.2597 77.0269 47.2603 77.0267M47.1987 76.8899L47.2621 77.0258C47.2615 77.0261 47.261 77.0264 47.2603 77.0267M47.1987 76.8899L47.2603 77.0267M47.4935 76.8907C47.4958 76.889 47.5002 76.8859 47.5057 76.882C47.5199 76.8718 47.5414 76.8563 47.5534 76.8468L47.5551 76.8455C47.5898 76.8173 47.6234 76.787 47.6548 76.7557L61.4655 62.9657C61.495 62.9362 61.5209 62.9072 61.5458 62.8772C61.5546 62.8669 61.5637 62.8555 61.5721 62.8433C61.5887 62.8217 61.6042 62.8005 61.6184 62.7809L61.6189 62.7803L61.619 62.7804L61.6224 62.7753L61.631 62.7623L61.6396 62.7494L61.6403 62.7484C61.6606 62.7174 61.6803 62.6848 61.698 62.6516L61.6981 62.6516L61.6998 62.6481L61.7012 62.6453L61.7019 62.6439C61.702 62.6437 61.7022 62.6434 61.7023 62.6431C61.7192 62.6103 61.7362 62.5754 61.7516 62.5384C61.756 62.5284 61.7611 62.5159 61.7656 62.5019C61.7759 62.4759 61.7849 62.4497 61.7928 62.427L61.7929 62.4271L61.7947 62.421L61.7981 62.4105L61.7984 62.4097C61.7999 62.4051 61.8022 62.3983 61.8043 62.3914L61.8045 62.3906C61.8147 62.356 61.8244 62.3197 61.8322 62.2823C61.8323 62.2818 61.8324 62.2813 61.8325 62.2808C61.8332 62.2781 61.8338 62.2751 61.8343 62.272L61.8356 62.2658V62.2649C61.8424 62.2285 61.8472 62.1928 61.851 62.1575L61.8511 62.1563L61.8527 62.1408L61.854 62.1266L61.8541 62.1266L61.8544 62.1224C61.8562 62.0969 61.8585 62.0652 61.8586 62.0332L61.8586 62.0327L61.8592 62.0253C61.8593 62.0236 61.8594 62.0214 61.8595 62.0189C61.8595 62.0168 61.8596 62.0145 61.8596 62.0121V52.4071C70.5451 51.0228 77.2048 43.4901 77.2048 34.4331C77.2048 29.4288 75.2124 24.7643 71.5959 21.2981C68.889 18.7041 65.5052 17.0362 61.8596 16.459V5.82476C61.8596 3.11395 59.6515 0.90957 56.9372 0.90957H5.77237C3.05803 0.90957 0.85 3.11395 0.85 5.82476V39.0298V39.1798H1H3.39769H3.54769V39.0298V5.82476C3.54769 4.60064 4.54586 3.60366 5.77237 3.60366H56.9372C58.1637 3.60366 59.1619 4.60064 59.1619 5.82476V16.2331C59.1003 16.2323 59.0384 16.2317 58.9762 16.2317C48.9249 16.2317 40.7476 24.3964 40.7476 34.4331C40.7476 39.1538 42.5503 43.6297 45.8217 47.0342L45.9181 46.9416L45.8217 47.0342C49.2921 50.6452 53.9645 52.6346 58.9762 52.6346C59.0384 52.6346 59.1003 52.634 59.1619 52.6331V60.666H50.2735C47.5592 60.666 45.3512 62.8704 45.3512 65.5812V74.4559H5.77237C4.54586 74.4559 3.54769 73.4589 3.54769 72.2348V43.6264V43.4764H3.39769H1H0.85V43.6264V72.2348C0.85 74.9456 3.05803 77.15 5.77237 77.15H46.7C46.7055 77.15 46.7103 77.1498 46.7137 77.1496L46.7207 77.149C46.7586 77.1489 46.7956 77.1467 46.8302 77.1437L46.8319 77.1435C46.8512 77.1416 46.8749 77.1375 46.888 77.1352L47.4935 76.8907ZM57.2537 63.3601L48.0489 72.5511V65.5812C48.0489 64.357 49.047 63.3601 50.2735 63.3601H57.2537ZM58.9762 49.9405C54.706 49.9405 50.7265 48.2458 47.7682 45.1686C44.9802 42.2682 43.4453 38.4557 43.4453 34.4331C43.4453 25.8831 50.4128 18.9258 58.9762 18.9258C63.005 18.9258 66.8233 20.4585 69.7282 23.2423C72.81 26.1952 74.5071 30.1695 74.5071 34.4331C74.5071 42.9832 67.5396 49.9405 58.9762 49.9405Z" fill="#00387D" stroke="#00387D" stroke-width="0.3"/><path d="M64.1605 30.4162L60.3251 34.2458V25.24V25.09H60.1751H57.7774H57.6274V25.24V34.2458L53.7919 30.4162L53.6859 30.3103L53.58 30.4162L51.8843 32.1093L51.778 32.2154L51.8843 32.3215L58.0224 38.4504C58.2857 38.7133 58.6313 38.8448 58.9762 38.8448C59.3212 38.8448 59.6667 38.7133 59.93 38.4504L66.0681 32.3215L66.1744 32.2154L66.0681 32.1093L64.3725 30.4162L64.2665 30.3103L64.1605 30.4162Z" fill="#FFC500" stroke="#FFC500" stroke-width="0.3"/><path d="M12.9405 37.6828H12.7905V37.8328V40.2269V40.3769H12.9405H35.9583H36.1083V40.2269V37.8328V37.6828H35.9583H12.9405Z" fill="#FFC500" stroke="#FFC500" stroke-width="0.3"/><path d="M29.8203 62.1984H29.6703V62.3484V64.7425V64.8925H29.8203H35.9583H36.1083V64.7425V62.3484V62.1984H35.9583H29.8203Z" fill="#FFC500" stroke="#FFC500" stroke-width="0.3"/><path d="M12.9405 62.1984H12.7905V62.3484V64.7425V64.8925H12.9405H26.7512H26.9012V64.7425V62.3484V62.1984H26.7512H12.9405Z" fill="#FFC500" stroke="#FFC500" stroke-width="0.3"/><path d="M34.4238 25.4247H34.2738V25.5747V27.9688V28.1188H34.4238H37.4929H37.6429V27.9688V25.5747V25.4247H37.4929H34.4238Z" fill="#FFC500" stroke="#FFC500" stroke-width="0.3"/><path d="M23.6822 15.8612H23.8322V15.7112V13.3171V13.1671H23.6822H12.9405C12.1961 13.1671 11.5917 13.7704 11.5917 14.5142V26.7719C11.5917 27.5157 12.1961 28.1189 12.9405 28.1189H31.3548H31.5048V27.969V25.5749V25.4249H31.3548H14.2894V15.8612H23.6822Z" fill="#FFC500" stroke="#FFC500" stroke-width="0.3"/><path d="M26.7512 13.1671H26.6012V13.3171V15.7112V15.8612H26.7512H45.1655H45.3155V15.7112V13.3171V13.1671H45.1655H26.7512Z" fill="#FFC500" stroke="#FFC500" stroke-width="0.3"/><path d="M12.9405 49.9406H12.7905V50.0906V52.4847V52.6347H12.9405H17.5441H17.6941V52.4847V50.0906V49.9406H17.5441H12.9405Z" fill="#FFC500" stroke="#FFC500" stroke-width="0.3"/><path d="M20.6131 49.9406H20.4631V50.0906V52.4847V52.6347H20.6131H42.0965H42.2465V52.4847V50.0906V49.9406H42.0965H20.6131Z" fill="#FFC500" stroke="#FFC500" stroke-width="0.3"/></svg>