<?xml version="1.0" encoding="UTF-8"?>
<svg xmlns="http://www.w3.org/2000/svg" width="131" height="76" viewBox="0 0 131 76" fill="none"><g id="expert working teams"><g id="get in touch writer"><g id="Group"><g id="Group_2"><g id="Group_3"><g id="Group 11888"><path id="Vector" d="M46.0693 10.0809L45.9737 11.3808C45.4535 11.4662 45.0561 11.9049 45.0561 12.4349C45.0561 12.9119 45.3777 13.3153 45.8205 13.4522L44.9348 25.5169L46.1587 29.084L47.3857 25.5169L46.4985 13.4522C46.9428 13.3138 47.2629 12.9119 47.2629 12.4349C47.2629 11.9049 46.8655 11.4662 46.3468 11.3808L46.2588 10.1839L48.3806 11.3779L48.4671 11.4265L50.1521 12.3731L49.6925 18.0705L49.8639 18.1323C49.7775 18.655 49.7107 19.1938 49.6637 19.7414C49.3755 20.8897 49.2042 22.0822 49.2042 23.3145H49.2315C49.2315 23.3248 49.2299 23.3336 49.2299 23.3439C49.2117 23.3454 49.1935 23.3468 49.1753 23.3498C48.0758 23.5353 47.5753 25.8142 48.0576 28.4362C48.5004 30.8477 49.6182 32.7115 50.6526 32.8514C51.9675 36.286 54.0483 39.619 56.6221 42.0585C58.078 43.4394 59.6917 44.5332 61.4116 45.1957C62.5946 45.6521 63.8291 45.9024 65.0986 45.9024C66.3665 45.9024 67.601 45.6477 68.787 45.1957C70.5691 44.5082 72.2344 43.3628 73.7328 41.9113C76.2413 39.4807 78.2721 36.1991 79.5613 32.8234C80.5516 32.5407 81.5936 30.7373 82.0152 28.4362C82.4762 25.9379 82.041 23.7576 81.046 23.3954C81.0794 22.7859 81.1067 22.1691 81.1007 21.536C81.0946 18.9052 80.6199 16.6056 79.7463 14.6388L79.5688 12.906L81.3706 11.8931L82.2867 11.3794L86.1101 9.23141C86.3497 8.99881 86.3497 8.6234 86.1101 8.39226L65.7674 0.174455C65.5308 -0.0581518 65.141 -0.0581518 64.9014 0.174455L44.5587 8.39226C44.3191 8.6234 44.3191 8.99881 44.5587 9.23141L46.0693 10.0809ZM50.8952 26.1028C51.0014 25.7966 51.147 25.5566 51.3305 25.4285C51.4063 25.3741 51.4913 25.3373 51.5823 25.3225C51.787 25.2887 52.0009 25.3638 52.2117 25.5286C52.2117 25.5124 52.2132 25.4963 52.2147 25.4786C52.2678 24.9795 52.7941 21.645 55.4042 20.1183L62.4475 22.6431C65.3291 23.7414 65.3291 23.7414 68.2122 22.6431L73.9072 20.6822C74.3167 20.8912 74.7156 21.1017 75.1205 21.2828C75.0917 20.9707 74.9567 20.6542 74.8293 20.3642L75.4754 20.1419C76.3915 21.2048 77.2711 22.8816 77.9749 25.4918C77.9779 25.5036 77.9779 25.5169 77.9779 25.5286C77.9809 25.5272 77.9809 25.5257 77.987 25.5228V25.5272L77.9961 25.5139C78.2023 25.3593 78.4101 25.2872 78.6088 25.3211C78.6589 25.3299 78.7074 25.3446 78.7544 25.3667C79.402 25.6582 79.6735 27.1157 79.3671 28.7793C79.1366 30.0542 78.6209 31.1024 78.0749 31.5529C77.855 31.731 77.6306 31.8135 77.4167 31.7781C77.2984 31.759 77.1908 31.7016 77.0906 31.6118C75.9001 35.2098 73.6282 38.8005 70.7556 40.9764C69.0449 42.2764 67.1218 43.0758 65.094 43.0758C63.1042 43.0758 61.222 42.3088 59.5386 41.0618C56.619 38.8903 54.3031 35.2599 53.0959 31.6147C52.9973 31.703 52.8881 31.7619 52.7698 31.7811C52.5211 31.8223 52.2617 31.7016 52.0099 31.4601C51.5034 30.9684 51.0423 29.9747 50.8209 28.7822C50.8057 28.7027 50.7982 28.6276 50.7875 28.5496C50.7997 27.7119 50.8361 26.9037 50.8952 26.1028Z" fill="#FFB600"/><path id="Vector_2" d="M46.0348 46.8678L46.3909 48.3249C47.6127 48.0263 48.9962 47.9344 50.4175 47.8482C50.4801 47.8444 50.5432 47.8406 50.6067 47.8368C51.3646 47.7913 52.1778 47.7424 52.9364 47.6359C53.1188 47.9926 53.3403 48.3704 53.5854 48.7574C54.1785 49.694 54.968 50.7754 55.8345 51.8906C57.5709 54.1255 59.692 56.592 61.3606 58.4793L63.2639 60.6322L63.942 57.8398L65.3202 52.1642L66.7286 57.8437L67.4165 60.6179L69.3087 58.4757C70.9754 56.5887 73.0961 54.1223 74.8324 51.8879C75.6988 50.7731 76.4883 49.692 77.0815 48.756C77.327 48.3686 77.5488 47.9905 77.7314 47.6336C78.4876 47.7388 79.2983 47.7873 80.0545 47.8324C80.1212 47.8364 80.1875 47.8404 80.2533 47.8443C81.6743 47.9301 83.0571 48.0224 84.2768 48.3215L84.279 48.3221C84.4057 48.3529 84.547 48.3819 84.7023 48.4137C85.4538 48.5678 86.5317 48.7887 87.853 49.6143C89.8959 50.8958 92.6631 53.7772 94.5845 60.6891C94.7288 61.2085 94.7813 61.7739 94.7661 62.382C94.7495 63.0254 94.4315 63.7024 93.9338 64.6805L93.9318 64.6845C93.4269 65.6843 92.3019 66.6762 90.4489 67.5812C88.6209 68.474 86.2529 69.2001 83.5256 69.7665C78.0764 70.8982 71.4328 71.3448 65.3784 71.3448H65.3783H65.3783H65.3782H65.3781H65.378H65.3779H65.3778H65.3777H65.3776H65.3775H65.3774H65.3773H65.3772H65.3771H65.377H65.3769H65.3768H65.3767H65.3766H65.3765H65.3764H65.3764H65.3763H65.3762H65.3761H65.376H65.3759H65.3758H65.3757H65.3756H65.3755H65.3754H65.3753H65.3752H65.3751H65.375H65.3749H65.3749H65.3748H65.3747H65.3746H65.3745H65.3744H65.3743H65.3742H65.3741H65.374H65.3739H65.3738H65.3737H65.3737H65.3736H65.3735H65.3734H65.3733H65.3732H65.3731H65.373H65.3729H65.3728H65.3727H65.3727H65.3726H65.3725H65.3724H65.3723H65.3722H65.3721H65.372H65.3719H65.3718H65.3717H65.3717H65.3716H65.3715H65.3714H65.3713H65.3712H65.3711H65.371H65.3709H65.3708H65.3708H65.3707H65.3706H65.3705H65.3704H65.3703H65.3702H65.3701H65.37H65.37H65.3699H65.3698H65.3697H65.3696H65.3695H65.3694H65.3693H65.3692H65.3692H65.3691H65.369H65.3689H65.3688H65.3687H65.3686H65.3685H65.3685H65.3684H65.3683H65.3682H65.3681H65.368H65.3679H65.3678H65.3677H65.3677H65.3676H65.3675H65.3674H65.3673H65.3672H65.3671H65.367H65.367H65.3669H65.3668H65.3667H65.3666H65.3665H65.3664H65.3663H65.3663H65.3662H65.3661H65.366H65.3659H65.3658H65.3657H65.3656H65.3656H65.3655H65.3654H65.3653H65.3652H65.3651H65.365H65.365H65.3649H65.3648H65.3647H65.3646H65.3645H65.3644H65.3643H65.3643H65.3642H65.3641H65.364H65.3639H65.3638H65.3637H65.3637H65.3636H65.3635H65.3634H65.3633H65.3632H65.3631H65.363H65.363H65.3629H65.3628H65.3627H65.3626H65.3625H65.3624H65.3624H65.3623H65.3622H65.3621H65.362H65.3619H65.3618H65.3617H65.3617H65.3616H65.3615H65.3614H65.3613H65.3612H65.3611H65.3611H65.361H65.3609H65.3608H65.3607H65.3606H65.3605H65.3605H65.3604H65.3603H65.3602H65.3601H65.36H65.3599H65.3598H65.3598H65.3597H65.3596H65.3595H65.3594H65.3593H65.3592H65.3592H65.3591H65.359H65.3589H65.3588H65.3587H65.3586H65.3586H65.3585H65.3584H65.3583H65.3582H65.3581H65.358H65.3579H65.3579H65.3578H65.3577H65.3576H65.3575H65.3574H65.3573H65.3573H65.3572H65.3571H65.357H65.3569H65.3568H65.3567H65.3566H65.3566H65.3565H65.3564H65.3563H65.3562H65.3561H65.356H65.3559H65.3559H65.3558H65.3557H65.3556H65.3555H65.3554H65.3553H65.3552H65.3552H65.3551H65.355H65.3549H65.3548H65.3547H65.3546H65.3545H65.3545H65.3544H65.3543H65.3542H65.3541H65.354H65.3539H65.3538H65.3537H65.3537H65.3536H65.3535H65.3534H65.3533H65.3532H65.3531H65.353H65.353H65.3529H65.3528H65.3527H65.3526H65.3525H65.3524H65.3523H65.3522H65.3522H65.3521H65.352H65.3519H65.3518H65.3517H65.3516H65.3515H65.3514H65.3513H65.3513H65.3512H65.3511H65.351H65.3509H65.3508H65.3507H65.3506H65.3505H65.3504H65.3504H65.3503H65.3502H65.3501H65.35H65.3499H65.3498H65.3497H65.3496H65.3495H65.3494H65.3494H65.3493H65.3492H65.3491H65.349H65.3489H65.3488H65.3487H65.3486H65.3485H65.3484H65.3483H65.3483H65.3482H65.3481H65.348H65.3479H65.3478H65.3477H65.3476H65.3475H65.3474H65.3473H65.3472H65.3471H65.3471H65.347H65.3469H65.3468H65.3467H65.3466H65.3465H65.3464H65.3463H65.3462H65.3461H65.346H65.3459H65.3458H65.3457H65.3456H65.3455H65.3455H65.3454H65.3453H65.3452H65.3451H65.345H65.3449H65.3448H65.3447H65.3446H65.3445H65.3444H65.3443H65.3442H65.3441H65.344H65.3439H65.3438H65.3437H65.3436H65.3435H65.3434H65.3433H65.3433H65.3432H65.3431H65.343H65.3429H65.3428H65.3427H65.3426H65.3425H65.3424H65.3423H65.3422H65.3421H65.342H65.3419H65.3418H65.3417H65.3416H65.3415H65.3414H65.3413H65.3412H65.3411H65.341H65.3409H65.3408H65.3407H65.3406H65.3405H65.3404H65.3403H65.3402H65.3401H65.34H65.3399H65.3398H65.3397H65.3396H65.3395H65.3394H65.3393H65.3392H65.3391H65.339H65.3389H65.3388H65.3387H65.3386H65.3385H65.3384H65.3383H65.3382H65.338H65.3379H65.3378H65.3377H65.3376H65.3375H65.3374H65.3373H65.3372H65.3371H65.337H65.3369H65.3368H65.3367H65.3366H65.3365H65.3364H65.3363H65.3362H65.3361H65.336H65.3358H65.3357H65.3356H65.3355H65.3354H65.3353H65.3352H65.3351H65.335H65.3349H65.3348H65.3347H65.3346H65.3345H65.3343H65.3342H65.3341H65.334H65.3339H65.3338H65.3337H65.3336H65.3335H65.3334H65.3333H65.3331H65.333H65.3329H65.3328H65.3327H65.3326H65.3325H65.3324H65.3323H65.3321H65.332H65.3319H65.3318H65.3317H65.3316H65.3315H65.3314H65.3312H65.3311H65.331H65.3309H65.3308H65.3307H65.3306H65.3306H65.3305H65.3305H65.3304H65.3304H65.3303H65.3303H65.3302H65.3302H65.3301H65.3301H65.33H65.3299H65.3299H65.3298H65.3298H65.3297H65.3297H65.3296H65.3296H65.3295H65.3295H65.3294H65.3294H65.3293H65.3293H65.3292H65.3291H65.3291H65.329H65.329H65.3289H65.3289H65.3288H65.3288H65.3287H65.3287H65.3286H65.3286H65.3285H65.3284H65.3284H65.3283H65.3283H65.3282H65.3282H65.3281H65.3281H65.328H65.328H65.3279H65.3279H65.3278H65.3277H65.3277H65.3276H65.3276H65.3275H65.3275H65.3274H65.3274H65.3273H65.3273H65.3272H65.3271H65.3271H65.327H65.327H65.3269H65.3269H65.3268H65.3268H65.3267H65.3267H65.3266H65.3265H65.3265H65.3264H65.3264H65.3263H65.3263H65.3262H65.3262H65.3261H65.326H65.326H65.3259H65.3259H65.3258H65.3258H65.3257H65.3257H65.3256H65.3255H65.3255H65.3254H65.3254H65.3253H65.3253H65.3252H65.3252H65.3251H65.325H65.325H65.3249H65.3249H65.3248H65.3248H65.3247H65.3246H65.3246H65.3245H65.3245H65.3244H65.3244H65.3243H65.3243H65.3242H65.3241H65.3241H65.324H65.324H65.3239H65.3239H65.3238H65.3237H65.3237H65.3236H65.3236H65.3235H65.3235H65.3234H65.3233H65.3233H65.3232H65.3232H65.3231H65.3231H65.323H65.3229H65.3229H65.3228H65.3228H65.3227H65.3227H65.3226H65.3225H65.3225H65.3224H65.3224H65.3223H65.3223H65.3222H65.3221H65.3221H65.322H65.322H65.3219H65.3219H65.3218H65.3217H65.3217H65.3216H65.3216H65.3215H65.3214H65.3214H65.3213H65.3213H65.3212H65.3212H65.3211H65.321H65.321H65.3209H65.3209H65.3208H65.3207H65.3207H65.3206H65.3206H65.3205H65.3204H65.3204H65.3203H65.3203H65.3202H65.3202H65.3201H65.32H65.32H65.3199H65.3199H65.3198H65.3197H65.3197H65.3196H65.3196H65.3195H65.3194H65.3194H65.3193H65.3193H65.3192H65.3192H65.3191H65.319H65.319H65.3189H65.3189H65.3188H65.3187H65.3187H65.3186H65.3186H65.3185H65.3184H65.3184H65.3183H65.3183H65.3182H65.3181H65.3181H65.318H65.318H65.3179H65.3178H65.3178H65.3177H65.3177H65.3176H65.3175H65.3175H65.3174H65.3174H65.3173H65.3172H65.3172H65.3171H65.317H65.317H65.3169H65.3169H65.3168H65.3167H65.3167H65.3166H65.3166H65.3165H65.3164H65.3164H65.3163H65.3163H65.3162H65.3161H65.3161H65.316H65.3159H65.3159H65.3158H65.3158H65.3157H65.3156H65.3156H65.3155H65.3155H65.3154H65.3153H65.3153H65.3152H65.3151H65.3151H65.315H65.315H65.3149H65.3148H65.3148H65.3147H65.3147H65.3146H65.3145H65.3145H65.3144H65.3143H65.3143H65.3142H65.3142H65.3141H65.314H65.314H65.3139H65.3138H65.3138H65.3137H65.3137H65.3136H65.3135H65.3135H65.3134H65.3133H65.3133H65.3132H65.3132H65.3131H65.313H65.313H65.3129H65.3128H65.3128H65.3127H65.3127H65.3126H65.3125H65.3125H65.3124H65.3123H65.3123H65.3122H65.3121H65.3121H65.312H65.312H65.3119H65.3118H65.3118H65.3117H65.3116H65.3116H65.3115H65.3114H65.3114H65.3113H65.3113H65.3112H65.3111H65.3111H65.311H65.3109H65.3109H65.3108H65.3107H65.3107H65.3106H65.3105H65.3105H65.3104H65.3104H65.3103H65.3102H65.3102H65.3101H65.31H65.31H65.3099H65.3098H65.3098H65.3097H65.3096H65.3096H65.3095H65.3095H65.3094H65.3093H65.3093H65.3092H65.3091H65.3091H65.309H65.3089H65.3089H65.3088H65.3087H65.3087H65.3086H65.3085H65.3085H65.3084H65.3083H65.3083H65.3082H65.3081H65.3081H65.308H65.308H65.3079H65.3078H65.3078H65.3077H65.3076H65.3076H65.3075H65.3074H65.3074H65.3073H65.3072H65.3072H65.3071H65.307H65.307H65.3069H65.3068H65.3068H65.3067H65.3066H65.3066H65.3065H65.3064H65.3064H65.3063H65.3062H65.3062H65.3061H65.306H65.306H65.3059H65.3058H65.3058H65.3057H65.3056H65.3056H65.3055H65.3054H65.3054H65.3053H65.3052H65.3052H65.3051H65.305H65.305H65.3049H65.3048H65.3048H65.3047H65.3046H65.3046H65.3045H65.3044H65.3044H65.3043H65.3042H65.3042H65.3041H65.304H65.304H65.3039H65.3038H65.3038H65.3037H65.3036H65.3035H65.3035H65.3034H65.3033H65.3033H65.3032H65.3031H65.3031H65.303H65.3029H65.3029H65.3028H65.3027H65.3027H65.3026H65.3025H65.3025H65.3024H65.3023H65.3023H65.3022H65.3021H65.302H65.302H65.3019H65.3018H65.3018H65.3017H65.3016H65.3016H65.3015H65.3014H65.3014H65.3013H65.3012H65.3012H65.3011H65.301H65.3009H65.3009H65.3008H65.3007H65.3007H65.3006H65.3005H65.3005H65.3004H65.3003H65.3002H65.3002H65.3001H65.3H65.3H65.2999H65.2998H65.2998H65.2997H65.2996H65.2996H65.2995H65.2994H65.2993C59.2439 71.3448 52.5224 70.9095 46.9949 69.7875C44.2283 69.226 41.8214 68.5042 39.9645 67.6134C38.0797 66.7093 36.9448 65.7189 36.4439 64.7263L36.443 64.7244C36.1025 64.052 35.9226 63.2502 35.9028 62.3862L35.9028 62.3829C35.8875 61.7745 35.94 61.2088 36.0843 60.6891L36.0843 60.689C36.6849 58.527 37.3691 56.7567 38.0868 55.3125L38.0873 55.3115C39.6598 52.1416 41.398 50.5052 42.8169 49.6161C44.1314 48.7952 45.2025 48.5747 45.9564 48.4195C46.1166 48.3866 46.2625 48.3565 46.3934 48.3243L46.0348 46.8678ZM46.0348 46.8678C45.941 46.8909 45.8241 46.9145 45.6866 46.9423C44.9403 47.0931 43.5867 47.3667 42.0213 48.3445L52.4146 46.1908C51.7991 46.2617 51.1135 46.3033 50.3944 46.3469C48.9781 46.4327 47.4317 46.5264 46.0348 46.8678ZM64.3112 49.8101H66.3576C66.2364 50.1543 66.0891 50.3162 65.9577 50.3971L65.3236 50.7876L64.7052 50.3937C64.5761 50.3114 64.4308 50.1483 64.3112 49.8101Z" stroke="#00387D" stroke-width="3"/><path id="Vector 137" d="M65.3345 65.7289L68.5045 61.4791L66.509 62.5696L66.0103 57.9041H64.8128L62.6172 62.0706L65.3345 65.7289Z" fill="#00387D"/><circle id="Ellipse 353" cx="80.8015" cy="67.3563" r="3.49257" fill="white"/><path id="Vector_3" d="M80.968 69.3521C82.1988 69.3521 83.1966 68.3543 83.1966 67.1234C83.1966 65.8926 82.1988 64.8948 80.968 64.8948C79.7371 64.8948 78.7393 65.8926 78.7393 67.1234C78.7393 68.3543 79.7371 69.3521 80.968 69.3521Z" fill="#FFB600"/><path id="Vector_4" d="M89.6162 67.1234C89.6162 66.2981 87.5386 65.8114 87.2968 65.0667C87.0461 64.2949 88.4322 62.6816 87.9647 62.0392C87.4925 61.3904 85.5267 62.2127 84.8779 61.7405C84.2355 61.2729 84.4129 59.1471 83.6411 58.8964C82.8964 58.6546 81.7933 60.4709 80.968 60.4709C80.1426 60.4709 79.0396 58.6546 78.2949 58.8964C77.5232 59.147 77.7006 61.2729 77.0582 61.7404C76.4094 62.2126 74.4437 61.3902 73.9715 62.0391C73.5039 62.6815 74.8899 64.2949 74.6392 65.0666C74.3974 65.8114 72.3197 66.298 72.3197 67.1234C72.3197 67.9487 74.3974 68.4354 74.6392 69.1801C74.8898 69.9518 73.5038 71.5652 73.9713 72.2076C74.4435 72.8564 76.4093 72.0341 77.058 72.5063C77.7005 72.9739 77.5231 75.0997 78.2948 75.3503C79.0396 75.5922 80.1426 73.7759 80.968 73.7759C81.7933 73.7759 82.8963 75.5922 83.6411 75.3503C84.4128 75.0998 84.2354 72.9739 84.8778 72.5064C85.5266 72.0342 87.4923 72.8566 87.9645 72.2077C88.432 71.5653 87.0461 69.9519 87.2968 69.1802C87.5386 68.4354 89.6162 67.9488 89.6162 67.1234ZM80.9681 70.3499C79.1891 70.3499 77.7415 68.9028 77.7415 67.1233C77.7415 65.3439 79.1891 63.8968 80.9681 63.8968C82.747 63.8968 84.1946 65.3439 84.1946 67.1233C84.1946 68.9028 82.747 70.3499 80.9681 70.3499Z" fill="#00387D"/></g></g></g></g></g><g id="Group_4"><path id="Vector_5" d="M130.701 49.503C128.19 40.8785 123.563 40.583 122.562 40.35C120.6 39.8925 118.22 40.0857 116.956 39.6921C116.808 40.9354 113.191 45.0259 110.819 47.5934L109.789 43.6335C110.563 43.1803 110.73 42.1729 110.73 41.3403H106.838C106.838 42.1672 107.003 43.1632 107.76 43.6193L106.747 47.5934C104.377 45.0259 100.761 40.9354 100.612 39.6921C99.3432 40.0871 96.969 39.8925 95.0068 40.35C94.356 40.5034 90.0985 41.7086 87.9502 44.2263C91.3105 46.2936 95.8976 49.1776 97.5373 54.8084C97.7462 55.5387 97.8413 56.3145 97.8158 57.1783C97.8158 57.2366 97.8044 57.2892 97.8044 57.3446C101.327 57.8475 105.214 58.0692 108.786 58.0692C117.516 58.072 128.314 56.8757 130.366 52.9954C130.918 51.9454 131.041 50.6723 130.701 49.503Z" fill="#00387D"/><path id="Vector_6" d="M0.188946 49.503C2.69956 40.8785 7.32721 40.583 8.32748 40.35C10.2896 39.8925 12.6695 40.0857 13.9341 39.6921C14.0819 40.9354 17.6993 45.0259 20.0707 47.5934L21.1008 43.6335C20.3264 43.1803 20.1602 42.1729 20.1602 41.3403H24.0518C24.0518 42.1672 23.887 43.1632 23.1297 43.6193L24.1428 47.5934C26.5127 45.0259 30.1287 40.9354 30.2779 39.6921C31.5467 40.0871 33.9209 39.8925 35.8831 40.35C36.5338 40.5034 40.7914 41.7086 42.9397 44.2263C39.5794 46.2936 34.9922 49.1776 33.3526 54.8084C33.1437 55.5387 33.0485 56.3145 33.0741 57.1783C33.0741 57.2366 33.0855 57.2892 33.0855 57.3446C29.5632 57.8475 25.6758 58.0692 22.1039 58.0692C13.3743 58.072 2.57594 56.8757 0.524261 52.9954C-0.0284424 51.9454 -0.150635 50.6723 0.188946 49.503Z" fill="#00387D"/><path id="Vector_7" d="M95.254 14.0296L95.1872 14.9701C94.8206 15.0312 94.5422 15.3495 94.5422 15.7331C94.5422 16.0784 94.7681 16.3711 95.0792 16.4705L94.4555 25.203L95.3179 27.7846L96.1775 25.203L95.5538 16.4705C95.8678 16.3697 96.0923 16.0798 96.0923 15.7331C96.0923 15.3495 95.8124 15.0327 95.4486 14.9701L95.3847 14.1049L96.878 14.9673L96.9391 15.0028L98.1212 15.6877L97.7973 19.8123L97.9166 19.8564C97.8555 20.2358 97.8101 20.6251 97.7746 21.0215C97.5728 21.8527 97.4506 22.7151 97.4506 23.6074H97.4705C97.4705 23.6159 97.4705 23.6216 97.4705 23.6287C97.4563 23.6301 97.4407 23.6301 97.4336 23.633C96.6606 23.7679 96.3083 25.4161 96.6464 27.3143C96.9562 29.0605 97.7419 30.4089 98.4693 30.5112C99.39 32.9962 100.856 35.4102 102.662 37.1749C103.684 38.1738 104.82 38.9666 106.027 39.4482C106.861 39.775 107.725 39.9583 108.616 39.9583C109.506 39.9583 110.37 39.775 111.203 39.4482C112.456 38.951 113.625 38.1183 114.677 37.0698C116.439 35.3108 117.864 32.9352 118.77 30.4913C119.466 30.2867 120.197 28.981 120.497 27.3158C120.82 25.507 120.515 23.9299 119.816 23.6671C119.844 23.2252 119.857 22.779 119.856 22.3215C119.849 20.4176 119.515 18.7524 118.899 17.3287L118.78 16.0741L120.05 15.341L120.694 14.9687L123.382 13.4129C123.55 13.2453 123.55 12.9725 123.382 12.8048L109.087 6.85719C108.92 6.68953 108.645 6.68953 108.479 6.85719L94.1855 12.8048C94.0164 12.9725 94.0164 13.2453 94.1855 13.4129L95.254 14.0296ZM98.6455 25.6264C98.7237 25.4047 98.8203 25.2314 98.951 25.139C99.0036 25.0993 99.0647 25.0737 99.1286 25.0623C99.2735 25.0367 99.4199 25.0922 99.5719 25.2115C99.5719 25.2001 99.5733 25.1874 99.5748 25.1746C99.6089 24.8137 99.9825 22.3997 101.815 21.2957L106.76 23.1243C108.789 23.92 108.789 23.92 110.815 23.1243L114.813 21.7049C115.099 21.8555 115.379 22.0075 115.667 22.1397C115.646 21.9138 115.552 21.685 115.46 21.4747L115.91 21.3127C116.555 22.0828 117.172 23.2962 117.668 25.1845C117.67 25.1945 117.67 25.203 117.67 25.2115C117.67 25.2115 117.673 25.2101 117.675 25.2072V25.2101L117.683 25.2001C117.827 25.0879 117.975 25.0367 118.115 25.0609C118.149 25.0666 118.185 25.0779 118.216 25.0936C118.666 25.3039 118.864 26.3595 118.648 27.563C118.485 28.4851 118.124 29.2452 117.74 29.5706C117.585 29.6999 117.426 29.761 117.28 29.734C117.193 29.7212 117.119 29.6786 117.05 29.6147C116.211 32.2191 114.616 34.8192 112.601 36.3935C111.399 37.334 110.049 37.9123 108.621 37.9123C107.223 37.9123 105.9 37.3596 104.718 36.4546C102.666 34.886 101.041 32.256 100.19 29.6161C100.118 29.68 100.042 29.7226 99.9598 29.7354C99.7879 29.7653 99.6017 29.6786 99.427 29.5024C99.0689 29.1472 98.7464 28.4268 98.5915 27.5644C98.5802 27.5061 98.5745 27.4536 98.566 27.3967C98.5787 26.7915 98.6029 26.2061 98.6455 25.6264Z" fill="#FFB600"/><path id="Vector_8" d="M8.57283 13.3291L8.50605 14.2697C8.13948 14.3308 7.86099 14.6491 7.86099 15.0327C7.86099 15.378 8.0869 15.6706 8.39807 15.7701L7.77574 24.5025L8.63677 27.0842L9.49779 24.5025L8.87405 15.7701C9.18521 15.6692 9.41112 15.3794 9.41112 15.0327C9.41112 14.6491 9.13264 14.3322 8.76748 14.2697L8.70497 13.4044L10.1968 14.2669L10.2565 14.3024L11.4401 14.9872L11.119 19.1119L11.2369 19.1559C11.1772 19.5353 11.1303 19.9246 11.0962 20.321C10.893 21.1522 10.7751 22.0147 10.7751 22.9069H10.7936C10.7936 22.9155 10.7936 22.9212 10.7936 22.9283C10.7808 22.9297 10.7666 22.9297 10.7538 22.9325C9.9823 23.0675 9.62993 24.7157 9.96951 26.6139C10.2792 28.3601 11.065 29.7085 11.7924 29.8108C12.7174 32.2958 14.1794 34.7098 15.9867 36.4745C17.0097 37.4733 18.1436 38.2661 19.3527 38.7478C20.1839 39.0746 21.052 39.2579 21.9429 39.2579C22.8337 39.2579 23.7019 39.0746 24.5316 38.7478C25.7834 38.2505 26.9556 37.4179 28.0056 36.3693C29.7688 34.6103 31.1953 32.2347 32.1004 29.7909C32.798 29.5863 33.5269 28.2805 33.8253 26.6153C34.1478 24.8066 33.8423 23.2295 33.1447 22.9666C33.1703 22.5247 33.1873 22.0786 33.1873 21.6211C33.1816 19.7172 32.8463 18.052 32.2354 16.6283L32.1103 15.3737L33.3777 14.6405L34.0214 14.2683L36.7096 12.7125C36.8772 12.5448 36.8772 12.272 36.7096 12.1044L22.416 6.15675C22.2469 5.98909 21.9741 5.98909 21.8065 6.15675L7.51289 12.1044C7.34523 12.272 7.34523 12.5448 7.51289 12.7125L8.57283 13.3291ZM11.9644 24.926C12.0397 24.7043 12.1405 24.531 12.2698 24.4386C12.3238 24.3988 12.3835 24.3732 12.446 24.3619C12.5909 24.3363 12.7387 24.3917 12.8879 24.5111C12.8879 24.4997 12.8893 24.4869 12.8922 24.4741C12.9277 24.1132 13.2985 21.6992 15.1328 20.5953L20.0802 22.4239C22.1048 23.2195 22.1048 23.2195 24.1309 22.4239L28.1306 21.0045C28.4176 21.1551 28.6989 21.3071 28.9831 21.4392C28.9632 21.2133 28.868 20.9846 28.7785 20.7743L29.2303 20.6123C29.8754 21.3824 30.4892 22.5958 30.9879 24.4841C30.9879 24.494 30.9879 24.5025 30.9907 24.5111C30.9907 24.5111 30.9921 24.5096 30.995 24.5068C30.995 24.5068 30.995 24.5082 30.995 24.5096L31.0021 24.4997C31.1456 24.3875 31.2934 24.3363 31.4312 24.3605C31.4681 24.3661 31.5008 24.3775 31.5335 24.3931C31.9867 24.6034 32.18 25.6591 31.9654 26.8625C31.802 27.7847 31.4397 28.5448 31.0575 28.8702C30.9041 28.9995 30.7449 29.0606 30.5957 29.0336C30.5119 29.0208 30.4352 28.9782 30.367 28.9142C29.5301 31.5186 27.9331 34.1187 25.9184 35.693C24.7149 36.6336 23.3665 37.2119 21.9386 37.2119C20.5419 37.2119 19.2191 36.6592 18.0356 35.7541C15.9839 34.1855 14.3585 31.5556 13.5074 28.9156C13.4378 28.9796 13.3625 29.0222 13.2786 29.035C13.1039 29.0648 12.922 28.9782 12.7458 28.802C12.3906 28.4468 12.0652 27.7264 11.9118 26.864C11.9004 26.8057 11.8947 26.7531 11.8876 26.6963C11.8962 26.091 11.9217 25.5057 11.9644 24.926Z" fill="#FFB600"/><g id="Group 11890"><path id="Vector_9" d="M17.7143 53.6703C17.7143 53.0808 16.1809 52.7332 16.0024 52.2012C15.8175 51.65 16.8404 50.4977 16.4954 50.0389C16.1469 49.5755 14.696 50.1628 14.2172 49.8255C13.7431 49.4916 13.874 47.9732 13.3044 47.7942C12.7547 47.6214 11.9406 48.9187 11.3314 48.9187C10.7222 48.9187 9.90817 47.6214 9.35854 47.7942C8.78895 47.9731 8.9199 49.4916 8.44575 49.8254C7.96692 50.1627 6.51609 49.5753 6.16758 50.0388C5.82249 50.4976 6.84541 51.65 6.66044 52.2012C6.48193 52.7331 4.94849 53.0807 4.94849 53.6703C4.94849 54.2597 6.48193 54.6073 6.66044 55.1393C6.84537 55.6905 5.82244 56.8428 6.16749 57.3016C6.51596 57.765 7.96683 57.1777 8.44566 57.515C8.91981 57.8489 8.78886 59.3673 9.35849 59.5463C9.90817 59.7191 10.7222 58.4218 11.3314 58.4218C11.9406 58.4218 12.7547 59.7191 13.3043 59.5463C13.8739 59.3674 13.743 57.8489 14.2171 57.5151C14.696 57.1778 16.1468 57.7652 16.4953 57.3017C16.8403 56.8429 15.8175 55.6905 16.0024 55.1393C16.1809 54.6074 17.7143 54.2598 17.7143 53.6703ZM11.3315 55.9748C10.0185 55.9748 8.95011 54.9412 8.95011 53.6702C8.95011 52.3993 10.0185 51.3657 11.3315 51.3657C12.6444 51.3657 13.7129 52.3993 13.7129 53.6702C13.7129 54.9412 12.6444 55.9748 11.3315 55.9748Z" fill="#FFB600"/><circle id="Ellipse 354" cx="11.3314" cy="54.1613" r="3.43696" fill="white"/><path id="Vector_10" d="M11.3315 55.6342C12.145 55.6342 12.8045 54.9747 12.8045 54.1612C12.8045 53.3477 12.145 52.6882 11.3315 52.6882C10.518 52.6882 9.85852 53.3477 9.85852 54.1612C9.85852 54.9747 10.518 55.6342 11.3315 55.6342Z" fill="#00387D"/></g><g id="Group 11891"><path id="Vector_11" d="M127.836 54.3707C127.836 53.7812 126.303 53.4336 126.124 52.9017C125.939 52.3505 126.962 51.1981 126.617 50.7393C126.269 50.2759 124.818 50.8632 124.339 50.526C123.865 50.192 123.996 48.6736 123.426 48.4946C122.876 48.3219 122.062 49.6191 121.453 49.6191C120.844 49.6191 120.03 48.3219 119.48 48.4946C118.911 48.6736 119.042 50.192 118.567 50.5259C118.089 50.8631 116.638 50.2758 116.289 50.7392C115.944 51.1981 116.967 52.3504 116.782 52.9016C116.604 53.4336 115.07 53.7812 115.07 54.3707C115.07 54.9602 116.604 55.3078 116.782 55.8397C116.967 56.3909 115.944 57.5432 116.289 58.002C116.638 58.4655 118.089 57.8782 118.567 58.2154C119.042 58.5494 118.911 60.0678 119.48 60.2468C120.03 60.4195 120.844 59.1223 121.453 59.1223C122.062 59.1223 122.876 60.4195 123.426 60.2468C123.996 60.0678 123.865 58.5494 124.339 58.2155C124.818 57.8782 126.268 58.4656 126.617 58.0022C126.962 57.5433 125.939 56.391 126.124 55.8397C126.303 55.3078 127.836 54.9602 127.836 54.3707ZM121.453 56.6752C120.14 56.6752 119.072 55.6416 119.072 54.3706C119.072 53.0997 120.14 52.0661 121.453 52.0661C122.766 52.0661 123.835 53.0997 123.835 54.3706C123.835 55.6416 122.766 56.6752 121.453 56.6752Z" fill="#FFB600"/><circle id="Ellipse 354_2" cx="121.453" cy="54.8618" r="3.43696" fill="white"/><path id="Vector_12" d="M121.453 56.3349C122.267 56.3349 122.926 55.6754 122.926 54.8619C122.926 54.0484 122.267 53.3889 121.453 53.3889C120.64 53.3889 119.98 54.0484 119.98 54.8619C119.98 55.6754 120.64 56.3349 121.453 56.3349Z" fill="#00387D"/></g></g></g></svg>