<?xml version="1.0" encoding="UTF-8"?>
<svg xmlns="http://www.w3.org/2000/svg" width="64" height="86" viewBox="0 0 64 86" fill="none"><path d="M12.0711 10.7636L11.9723 12.1084C11.4341 12.1967 11.0231 12.6505 11.0231 13.1988C11.0231 13.6922 11.3557 14.1095 11.8138 14.2511L10.8976 26.7315L12.1637 30.4215L13.4329 26.7315L12.5151 14.2511C12.9748 14.108 13.3058 13.6922 13.3058 13.1988C13.3058 12.6505 12.8948 12.1967 12.3582 12.1084L12.2672 10.8702L14.4621 12.1053L14.5515 12.1556L16.2946 13.1348L15.8192 19.0285L15.9965 19.0925C15.9071 19.6331 15.838 20.1905 15.7894 20.757C15.4913 21.9449 15.314 23.1785 15.314 24.4532H15.3423C15.3423 24.4638 15.3407 24.473 15.3407 24.4836C15.3219 24.4851 15.303 24.4867 15.2842 24.4897C14.1467 24.6816 13.629 27.0391 14.1279 29.7514C14.586 32.2459 15.7423 34.174 16.8123 34.3186C18.1725 37.8716 20.3251 41.3195 22.9875 43.843C24.4936 45.2715 26.1629 46.403 27.942 47.0883C29.1658 47.5604 30.4429 47.8193 31.756 47.8193C33.0676 47.8193 34.3447 47.5559 35.5716 47.0883C37.415 46.3771 39.1377 45.1923 40.6877 43.6907C43.2827 41.1763 45.3834 37.7818 46.717 34.2897C47.7415 33.9973 48.8193 32.1317 49.2555 29.7514C49.7324 27.167 49.2822 24.9116 48.253 24.5369C48.2875 23.9064 48.3157 23.2683 48.3094 22.6135C48.3032 19.892 47.8121 17.5132 46.9084 15.4786L46.7249 13.6861L48.5887 12.6384L49.5363 12.1069L53.4915 9.88492C53.7394 9.64429 53.7394 9.25595 53.4915 9.01685L32.4479 0.515915C32.2032 0.275294 31.8 0.275294 31.5521 0.515915L10.5085 9.01685C10.2606 9.25595 10.2606 9.64429 10.5085 9.88492L12.0711 10.7636ZM17.0633 27.3376C17.1732 27.0208 17.3238 26.7726 17.5136 26.6401C17.592 26.5837 17.6799 26.5457 17.774 26.5304C17.9858 26.4954 18.2071 26.5731 18.4251 26.7436C18.4251 26.7269 18.4267 26.7101 18.4283 26.6919C18.4832 26.1756 19.0276 22.7262 21.7277 21.1469L29.0136 23.7587C31.9945 24.8948 31.9945 24.8948 34.977 23.7587L40.8682 21.7302C41.2918 21.9464 41.7044 22.1642 42.1233 22.3515C42.0935 22.0287 41.9538 21.7012 41.8221 21.4012L42.4904 21.1713C43.438 22.2708 44.348 24.0054 45.0759 26.7056C45.0791 26.7177 45.0791 26.7315 45.0791 26.7436C45.0822 26.7421 45.0822 26.7406 45.0885 26.7375V26.7421L45.0979 26.7284C45.3113 26.5685 45.5262 26.4939 45.7317 26.5289C45.7835 26.538 45.8337 26.5533 45.8824 26.5761C46.5523 26.8777 46.8331 28.3853 46.5162 30.1062C46.2777 31.4251 45.7443 32.5094 45.1795 32.9754C44.952 33.1597 44.7198 33.245 44.4986 33.2084C44.3762 33.1886 44.2648 33.1292 44.1613 33.0363C42.9297 36.7584 40.5795 40.4728 37.608 42.7236C35.8383 44.0684 33.8489 44.8953 31.7513 44.8953C29.6929 44.8953 27.7459 44.1019 26.0045 42.812C22.9843 40.5657 20.5886 36.8101 19.3398 33.0394C19.2378 33.1308 19.1249 33.1917 19.0025 33.2115C18.7452 33.2541 18.4769 33.1292 18.2165 32.8795C17.6925 32.3708 17.2155 31.3429 16.9865 30.1093C16.9708 30.0271 16.9629 29.9494 16.9519 29.8687C16.9645 29.0021 17.0021 28.166 17.0633 27.3376Z" fill="#FFC500"/><path fill-rule="evenodd" clip-rule="evenodd" d="M31.9637 75.6901C19.3231 75.6901 3.69943 73.878 0.728796 67.9909C0.253247 67.0517 0.0278258 65.9865 0.00312193 64.9067C-0.0154059 64.168 0.0463521 63.4228 0.247071 62.7002C0.890915 60.3822 1.63203 58.457 2.4241 56.8632C4.16572 53.3522 6.14975 51.4319 7.88365 50.3456C9.50296 49.3342 10.9032 49.0512 11.6753 48.8951C11.8175 48.8664 11.9384 48.842 12.0354 48.8181C13.4804 48.4649 15.0801 48.368 16.5452 48.2792C16.7632 48.266 16.9781 48.2529 17.1892 48.2393C18.3517 48.164 19.395 48.0694 20.1599 47.8191C20.1853 48.0413 20.28 48.323 20.433 48.6534C21.2822 50.4882 23.9271 53.8263 26.474 56.8285L21.6682 55.7148C21.4509 55.4419 21.2374 55.1707 21.0291 54.9025C20.1205 53.7332 19.2719 52.5729 18.6226 51.5477C18.541 51.4188 18.4607 51.2892 18.3824 51.1593C17.8634 51.2063 17.3604 51.2361 16.9093 51.2628L16.6568 51.2779C15.1639 51.3685 13.8639 51.4595 12.7477 51.7323L12.0354 48.8181L12.7526 51.7311C12.5745 51.7749 12.3942 51.8125 12.209 51.8512C11.4463 52.0102 10.5993 52.1869 9.47475 52.8889C8.25516 53.6534 6.63075 55.1339 5.11161 58.1963L5.11064 58.1983C4.4145 59.5991 3.73772 61.3426 3.13764 63.5031C3.03625 63.8681 2.98895 64.3041 3.00218 64.8315L3.00234 64.8381C3.01881 65.558 3.16816 66.1674 3.40524 66.6356L3.40714 66.6394C3.71572 67.2509 4.55423 68.0956 6.38243 68.9726C8.15479 69.8228 10.517 70.5398 13.3168 71.1081C18.9046 72.2423 25.7522 72.6901 31.9637 72.6901H31.9647H31.9657H31.9668H31.9679H31.9689H31.9699H31.971H31.972H31.973H31.974H31.975H31.9761H31.9772H31.9782H31.9792H31.9803H31.9813H31.9823H31.9833H31.9844H31.9854H31.9865H31.9875H31.9885H31.9895H31.9906H31.9916H31.9926H31.9937H31.9947H31.9958H31.9968H31.9979H31.9989H31.9999H32.0009H32.002H32.0031H32.0042H32.0052H32.0063H32.0073H32.0083H32.0093H32.0104H32.0115H32.0126H32.0136H32.0147H32.0157H32.0168H32.0178H32.0188H32.0198H32.0208H32.0219H32.023H32.0241H32.0251H32.0262H32.0273H32.0284H32.0294H32.0305H32.0316H32.0327H32.0338H32.0348H32.0358H32.0369H32.0379H32.0389H32.0399H32.041H32.042H32.0431H32.0442H32.0452C38.2539 72.6901 45.019 72.2308 50.5234 71.0876C53.281 70.5149 55.6022 69.7945 57.3441 68.9438C59.1362 68.0685 59.9733 67.2226 60.2898 66.5958L60.2939 66.5878C60.8422 65.5101 60.9905 65.109 60.9979 64.8299C61.0109 64.3035 60.9636 63.8677 60.8624 63.5032C58.9464 56.6112 56.2614 53.9758 54.5259 52.8867C53.3947 52.1802 52.5391 52.0025 51.7781 51.8445C51.5991 51.8073 51.4254 51.7712 51.2545 51.7296L51.25 51.7285C50.1366 51.4554 48.8376 51.364 47.3456 51.2739L47.0861 51.2585C46.6357 51.232 46.1342 51.2024 45.6169 51.156C45.5381 51.2866 45.4573 51.417 45.3751 51.5466C44.7258 52.5711 43.8773 53.7309 42.9688 54.8999C41.7318 56.4917 40.3137 58.1899 38.9894 59.7292L35.6829 58.9627C36.2178 58.3508 36.7814 57.6991 37.3521 57.0283C39.9604 53.9628 42.7186 50.4996 43.5757 48.6302C43.7226 48.3096 43.8137 48.0359 43.8385 47.8191C44.6043 48.0673 45.6477 48.1607 46.8098 48.2354C47.0167 48.2486 47.2273 48.2613 47.4408 48.2742C48.9106 48.3628 50.516 48.4596 51.9646 48.8148C52.0597 48.838 52.1779 48.8618 52.3166 48.8897C53.087 49.0448 54.4916 49.3276 56.1179 50.344C58.6361 51.9233 61.6886 55.2742 63.7529 62.7002C63.9536 63.4228 64.0154 64.168 63.9969 64.9067C63.9693 65.9797 63.4529 66.9945 62.9768 67.9304L62.9677 67.9481C59.9971 73.8304 44.6877 75.6901 32.0455 75.6901H31.9961H31.9637ZM35.6829 58.9627L38.9894 59.7292C38.361 60.4595 37.7537 61.1541 37.1967 61.7847L36.1348 62.987L32 68.5L28.5806 63.7983L26.8042 61.7889C25.2691 60.0526 23.3536 57.8313 21.6682 55.7148L26.474 56.8285C26.5291 56.8935 26.5843 56.9585 26.6393 57.0231C27.4817 58.013 28.3088 58.9616 29.0517 59.8019L29.5979 57.5527L34.6836 58.7313L34.9482 59.7987C35.1852 59.5304 35.431 59.2509 35.6829 58.9627ZM34.6836 58.7313L29.5979 57.5527L29.9176 56.2361L30.4402 54.0839L30.5155 53.7741C30.451 53.7331 30.3895 53.6892 30.3308 53.6428C30.2049 53.5431 30.0921 53.4314 29.991 53.31C29.3384 52.5259 29.1784 51.3337 29.1784 50.31H31.8201H32.1784H34.8201C34.8201 51.3323 34.6626 52.5258 34.0095 53.31C33.8971 53.445 33.77 53.5679 33.6265 53.6757C33.5728 53.716 33.5167 53.7543 33.4583 53.7903L33.5292 54.0764L34.0679 56.2484L34.6836 58.7313Z" fill="#00387D"/><path d="M51.8551 78.9004V85.1352C51.8551 85.5069 51.4422 85.7236 51.1325 85.5172L48.4383 83.6694C48.2731 83.5559 48.0666 83.5559 47.9118 83.6694L45.2073 85.5172C44.8977 85.7236 44.4847 85.5069 44.4847 85.1352V78.9004C44.6396 79.0553 44.8357 79.1792 45.0835 79.2617C45.2383 79.3134 45.3931 79.334 45.5583 79.334C46.3325 79.334 46.9415 78.7869 47.5196 78.2604C47.695 78.1056 47.9531 77.8785 48.1286 77.7546C48.1492 77.7443 48.1596 77.734 48.1699 77.7236C48.1802 77.734 48.1905 77.7443 48.2112 77.7546C48.3866 77.8785 48.6447 78.1056 48.8202 78.2604C49.4086 78.7869 50.0176 79.334 50.7918 79.334C50.9467 79.334 51.1015 79.3134 51.2564 79.2617C51.5041 79.1792 51.7002 79.0553 51.8551 78.9004Z" fill="#FFC500"/><path d="M51.6129 70.0128C51.6129 72.0082 49.9953 73.6257 48 73.6257C46.0046 73.6257 44.3871 72.0082 44.3871 70.0128C44.3871 68.0175 46.0046 66.3999 48 66.3999C49.9953 66.3999 51.6129 68.0175 51.6129 70.0128Z" fill="white"/><path d="M48.1721 72.0774C49.4454 72.0774 50.4776 71.0453 50.4776 69.772C50.4776 68.4987 49.4454 67.4666 48.1721 67.4666C46.8989 67.4666 45.8667 68.4987 45.8667 69.772C45.8667 71.0453 46.8989 72.0774 48.1721 72.0774Z" fill="#FFC500"/><path d="M57.1183 69.7721C57.1183 68.9183 54.969 68.4149 54.7189 67.6445C54.4596 66.8462 55.8934 65.1773 55.4098 64.5128C54.9213 63.8416 52.8878 64.6922 52.2167 64.2037C51.5522 63.7201 51.7357 61.521 50.9373 61.2617C50.1669 61.0115 49.0258 62.8904 48.1721 62.8904C47.3182 62.8904 46.1772 61.0115 45.4069 61.2617C44.6085 61.5209 44.7921 63.7201 44.1275 64.2036C43.4564 64.6921 41.4229 63.8414 40.9345 64.5126C40.4508 65.1772 41.8845 66.8461 41.6252 67.6445C41.3751 68.4149 39.2258 68.9183 39.2258 69.7721C39.2258 70.6259 41.3751 71.1293 41.6252 71.8997C41.8844 72.698 40.4507 74.3669 40.9343 75.0314C41.4228 75.7026 43.4563 74.852 44.1274 75.3405C44.792 75.8241 44.6084 78.0232 45.4068 78.2825C46.1772 78.5327 47.3182 76.6538 48.1721 76.6538C49.0258 76.6538 50.1668 78.5327 50.9372 78.2825C51.7356 78.0233 51.552 75.8241 52.2165 75.3406C52.8877 74.8521 54.9212 75.7028 55.4096 75.0316C55.8933 74.3671 54.4596 72.6981 54.7189 71.8998C54.969 71.1293 57.1183 70.6259 57.1183 69.7721ZM48.1721 73.1097C46.3319 73.1097 44.8344 71.6128 44.8344 69.772C44.8344 67.9313 46.3319 66.4343 48.1721 66.4343C50.0123 66.4343 51.5098 67.9313 51.5098 69.772C51.5098 71.6128 50.0123 73.1097 48.1721 73.1097Z" fill="#00387D"/></svg>