<svg width="117" height="44" viewBox="0 0 117 44" fill="none" xmlns="http://www.w3.org/2000/svg">
<path d="M30.0995 14.4074L27.1088 10.5064C29.029 10.0509 30.3715 8.7807 30.3715 6.67547V6.63951C30.3715 5.58352 29.9904 4.64404 29.3467 3.99113C28.5241 3.15765 27.236 2.65894 25.6289 2.65894H20.8844C20.4183 2.65894 20.0166 3.06186 20.0166 3.55649V15.0253C20.0166 15.5201 20.4183 15.923 20.8844 15.923C21.3707 15.923 21.7696 15.519 21.7696 15.0253V10.8399H25.1685L28.6878 15.4726C28.881 15.7338 29.142 15.923 29.4857 15.923C29.9295 15.923 30.3715 15.516 30.3715 15.0429C30.3715 14.8029 30.2706 14.6029 30.0995 14.4074ZM28.6004 6.69447L28.6005 6.73106H28.6004C28.6004 8.29267 27.3 9.21017 25.5017 9.21017H21.7696V4.32528H25.5198C27.4528 4.32528 28.6004 5.20352 28.6004 6.69447Z" fill="black"/>
<path d="M32.9268 14.9337C32.9268 15.4277 33.3284 15.8308 33.7946 15.8308H41.7625C42.2144 15.8308 42.5755 15.4643 42.5755 15.0064C42.5755 14.5492 42.2145 14.1827 41.7625 14.1827H34.6799V10.0137H40.8572C41.3092 10.0137 41.6708 9.6478 41.6708 9.18991C41.6708 8.7548 41.3092 8.36553 40.8572 8.36553H34.6799V4.3077H41.6722C42.1233 4.3077 42.4857 3.9412 42.4857 3.48332C42.4857 3.02543 42.1233 2.65894 41.6722 2.65894H33.7946C33.3286 2.65894 32.9268 3.06186 32.9268 3.55665V14.9337Z" fill="black"/>
<path d="M49.9459 15.9781L50.0409 15.9778C50.5152 15.9694 50.8107 15.6987 50.9983 15.2756L55.9088 3.78228C55.9525 3.67174 55.9747 3.56119 55.9747 3.42851C55.9747 2.97643 55.5975 2.56738 55.1069 2.56738C54.7181 2.56738 54.4081 2.86479 54.2563 3.17114C54.2546 3.1746 54.253 3.17805 54.2515 3.18166L50.0007 13.499L45.7667 3.21825C45.6158 2.8461 45.308 2.56738 44.8758 2.56738C44.3867 2.56738 43.9893 2.99716 43.9893 3.44609C43.9893 3.60296 44.0128 3.71445 44.0784 3.84792L48.9642 15.2721C49.1345 15.7024 49.457 15.9781 49.9459 15.9781Z" fill="black"/>
<path d="M58.2939 3.46494V15.0253C58.2939 15.52 58.6956 15.923 59.1618 15.923C59.648 15.923 60.0469 15.5189 60.0469 15.0253V3.46494C60.0469 2.97125 59.648 2.56738 59.1618 2.56738C58.6956 2.56738 58.2939 2.97015 58.2939 3.46494Z" fill="black"/>
<path d="M72.0222 2.65925L72.0011 2.65894H64.1231C63.6577 2.65894 63.2559 3.06186 63.2559 3.55665V14.9337C63.2559 15.4277 63.6575 15.8308 64.1231 15.8308C64.1229 15.8308 72.0915 15.8308 72.0915 15.8308C72.5427 15.8308 72.9044 15.4643 72.9044 15.0064C72.9044 14.5492 72.5427 14.1827 72.0915 14.1827H65.0088V10.0137H71.1855C71.6383 10.0137 71.9991 9.6478 71.9991 9.18991C71.9991 8.7548 71.6383 8.36553 71.1855 8.36553H65.0088V4.3077H72.0011C72.4522 4.3077 72.8147 3.9412 72.8147 3.48332C72.8147 3.03265 72.4634 2.6704 72.0222 2.65925Z" fill="black"/>
<path d="M87.5522 15.996H87.701C88.1234 15.9869 88.4271 15.6936 88.5758 15.2624C88.5751 15.2638 92.6322 3.85076 92.6322 3.85076C92.6326 3.84919 92.6331 3.84778 92.6337 3.84621C92.6742 3.72059 92.7321 3.5722 92.7321 3.44658C92.7321 2.99671 92.3123 2.56787 91.8462 2.56787C91.429 2.56787 91.1371 2.84769 91.0047 3.2481C91.0053 3.24638 87.6491 13.0282 87.6491 13.0282L84.484 3.24842C84.3529 2.84895 84.0625 2.56787 83.6252 2.56787V2.56928L83.5341 2.56787C83.0743 2.56787 82.8057 2.84895 82.6746 3.24842L79.5097 13.0279L76.1714 3.28233C76.042 2.8893 75.7103 2.56787 75.2764 2.56787C74.7902 2.56787 74.373 2.99466 74.373 3.46495C74.373 3.59261 74.4112 3.72012 74.453 3.84699L78.5107 15.2627C78.6599 15.7146 78.9638 15.9875 79.3855 15.996H79.5342C79.956 15.9869 80.2606 15.6934 80.4084 15.2621L83.5345 5.84843L86.678 15.2624C86.8267 15.6936 87.1312 15.9869 87.5522 15.996Z" fill="black"/>
<path d="M101.878 12.3276V12.3642C101.878 13.5496 100.808 14.3847 99.2147 14.3847C97.6486 14.3847 96.4859 13.9037 95.3245 12.9066L95.3212 12.9036C95.2064 12.7899 95.0037 12.6959 94.7782 12.6959C94.3099 12.6959 93.9277 13.0782 93.9277 13.5752C93.9277 13.8698 94.0647 14.1185 94.2646 14.2575C95.7057 15.4162 97.2763 16.0144 99.1605 16.0144C101.779 16.0144 103.649 14.5082 103.649 12.2177V12.1803C103.649 10.1453 102.322 9.03498 99.3937 8.38804C99.3936 8.38804 99.3934 8.38788 99.3931 8.38788C96.7331 7.81003 96.0799 7.20753 96.0799 6.05183V6.01524C96.0799 4.93616 97.079 4.10535 98.6167 4.10535C99.7599 4.10535 100.762 4.42725 101.8 5.19337C101.8 5.19369 101.801 5.19384 101.801 5.19416C101.955 5.30659 102.111 5.35307 102.311 5.35307C102.78 5.35307 103.161 4.96867 103.161 4.4921C103.161 4.15685 102.965 3.90922 102.788 3.77434C102.787 3.77371 102.786 3.77292 102.785 3.7723C101.599 2.9085 100.359 2.47559 98.653 2.47559C96.1433 2.47559 94.3262 4.04081 94.3262 6.144L94.4876 6.30762C94.4875 6.30762 94.3262 6.1451 94.3262 6.1451V6.17917L94.4876 6.34358L94.3262 6.18012C94.3262 8.36574 95.6902 9.38232 98.7097 10.047C98.71 10.047 98.7103 10.0472 98.7106 10.0472C101.244 10.5891 101.878 11.1922 101.878 12.3276Z" fill="black"/>
<path d="M105.645 14.1176L105.63 14.1174C105.29 14.1174 105.047 14.3646 105.047 14.6978V14.9032C105.047 15.2359 105.29 15.4941 105.63 15.4941C105.958 15.4941 106.203 15.2365 106.203 14.9032C106.203 14.9575 106.159 15.0013 106.106 15.0013C106.106 15.0013 106.203 14.9903 106.203 14.8986V14.6978C106.203 14.3691 105.966 14.1251 105.645 14.1176ZM105.152 14.9999C105.147 15.001 105.144 15.0013 105.144 15.0013C105.147 15.0013 105.15 15.0013 105.153 15.001L105.152 14.9999Z" fill="black"/>
<path d="M107.712 10.3875V14.9955C107.712 15.2766 107.927 15.4941 108.203 15.4941C108.482 15.4941 108.685 15.2772 108.685 14.9955V10.3875C108.685 10.1056 108.471 9.8889 108.193 9.8889C107.928 9.8889 107.712 10.1188 107.712 10.3875ZM107.641 8.50913C107.641 8.81046 107.884 9.02794 108.193 9.02794C108.515 9.02794 108.756 8.80983 108.756 8.50913V8.37628C108.756 8.06271 108.515 7.85669 108.193 7.85669C107.884 7.85669 107.641 8.06208 107.641 8.37628L107.641 8.50913Z" fill="black"/>
<path fill-rule="evenodd" clip-rule="evenodd" d="M115.634 12.6991L115.634 12.6768C115.634 11.1244 114.439 9.82739 112.813 9.82739C111.177 9.82739 109.981 11.1458 109.981 12.697L110.001 12.7174L109.981 12.6976V12.7174C109.981 14.2692 111.167 15.566 112.793 15.566C114.429 15.566 115.634 14.2494 115.634 12.6991ZM114.641 12.7174V12.697C114.641 11.6132 113.843 10.7212 112.793 10.7212C111.714 10.7212 110.975 11.6129 110.975 12.6768V12.697C110.975 13.7806 111.763 14.6612 112.813 14.6612C113.892 14.6612 114.641 13.7811 114.641 12.7174Z" fill="black"/>
<path fill-rule="evenodd" clip-rule="evenodd" d="M14.7447 3.67407L13.9661 4.06977C15.4839 5.31168 16.2259 6.91585 16.3638 8.85699C16.2485 12.6038 14.5039 15.0119 11.507 16.0446C8.04455 17.1017 5.85053 16.2464 3.72749 14.0545L3.59375 14.8971L4.45692 15.8085C7.4594 18.979 12.4374 19.0831 15.5663 16.0407C18.6953 12.9982 18.798 7.95425 15.7954 4.78361L14.7447 3.67407Z" fill="#FEEF7C"/>
<path fill-rule="evenodd" clip-rule="evenodd" d="M3.1667 14.4277L3.68832 13.9661C1.52111 10.8541 1.4303 6.29822 4.39621 3.79007C6.59472 1.93089 10.957 0.967233 14.447 4.08088L14.7075 3.61655L13.8571 2.71837C10.8545 -0.452114 5.87661 -0.556221 2.74752 2.48629C-0.381421 5.52865 -0.484009 10.5728 2.51847 13.7432L3.1667 14.4277Z" fill="#5CD3CB"/>
<path d="M1.29199 9.28599C1.29199 13.6912 4.81687 17.2629 9.16431 17.2629C13.5125 17.2629 17.0372 13.6912 17.0372 9.28599C17.0372 4.88004 13.5125 1.30835 9.16431 1.30835C4.81687 1.30835 1.29199 4.88004 1.29199 9.28599ZM6.77147 10.7287C6.85422 10.4634 6.76217 10.1741 6.54212 10.0075C5.95944 9.5666 4.81067 8.69731 4.03878 8.11318C3.92736 8.02885 3.8818 7.88172 3.92565 7.74794C3.96951 7.61415 4.09286 7.52402 4.23202 7.52402H7.22381C7.50229 7.52402 7.74931 7.34313 7.83686 7.0754C8.07272 6.35356 8.5415 4.91898 8.85236 3.96804C8.89606 3.83441 9.01926 3.74396 9.15827 3.7438C9.29727 3.74365 9.42093 3.83362 9.46495 3.96709C9.77906 4.91882 10.2534 6.35575 10.4916 7.07728C10.5798 7.34407 10.8263 7.52402 11.104 7.52402C11.8118 7.52402 13.1752 7.52402 14.1034 7.52402C14.2421 7.52402 14.3655 7.61384 14.4095 7.74731C14.4535 7.88078 14.4085 8.02775 14.2976 8.11239C13.528 8.69982 12.3786 9.57696 11.7972 10.0207C11.5784 10.1876 11.4874 10.4764 11.57 10.7408C11.7949 11.4603 12.2458 12.9032 12.5505 13.8779C12.593 14.014 12.5434 14.1626 12.4279 14.2445C12.3125 14.3265 12.158 14.3232 12.0461 14.2362C11.2729 13.6348 10.1434 12.7562 9.55188 12.2963C9.31928 12.1154 8.99571 12.1159 8.76372 12.2977C8.17795 12.7566 7.06373 13.6296 6.29711 14.2302C6.18554 14.3177 6.03072 14.3216 5.91496 14.2397C5.7992 14.1578 5.7493 14.0093 5.79177 13.873C6.09643 12.8955 6.54676 11.4501 6.77147 10.7287Z" fill="black"/>
<path d="M44.0109 32.5323C44.0032 32.5383 43.9978 32.5467 43.9955 32.5561C43.9931 32.5655 43.994 32.5754 43.9978 32.5843L44.8777 35.843C44.9152 35.9782 44.9209 36.1203 44.8946 36.2581C44.8682 36.3959 44.8105 36.5258 44.7258 36.6377C44.6411 36.7496 44.5318 36.8405 44.4063 36.9033C44.2808 36.9661 44.1425 36.9992 44.0022 37C43.8193 37.0002 43.6407 36.9443 43.4907 36.8397L40.5217 34.829C40.5152 34.8248 40.5077 34.8225 40.5 34.8225C40.4923 34.8225 40.4848 34.8248 40.4783 34.829L37.5093 36.8397C37.3552 36.9446 37.1725 36.9996 36.9861 36.9973C36.7996 36.9949 36.6184 36.9353 36.467 36.8265C36.3156 36.7177 36.2013 36.565 36.1396 36.389C36.078 36.2131 36.0719 36.0225 36.1223 35.843L37.0022 32.5843C37.006 32.5754 37.0069 32.5655 37.0045 32.5561C37.0022 32.5467 36.9968 32.5383 36.9891 32.5323L34.2845 29.9757C34.1577 29.8544 34.0681 29.6994 34.0264 29.5289C33.9847 29.3585 33.9925 29.1797 34.049 29.0136C34.1054 28.8474 34.2082 28.7009 34.3451 28.5911C34.482 28.4813 34.6475 28.413 34.822 28.394L38.1508 28.0733C38.1585 28.0731 38.166 28.0705 38.1722 28.0658C38.1784 28.0612 38.183 28.0547 38.1854 28.0473L39.6635 24.559C39.732 24.3935 39.848 24.2521 39.9969 24.1526C40.1458 24.0531 40.3209 24 40.5 24C40.6791 24 40.8542 24.0531 41.0031 24.1526C41.152 24.2521 41.268 24.3935 41.3365 24.559L42.8146 28.0473C42.817 28.0547 42.8216 28.0612 42.8278 28.0658C42.834 28.0705 42.8415 28.0731 42.8492 28.0733L46.178 28.394C46.3525 28.413 46.518 28.4813 46.6549 28.5911C46.7918 28.7009 46.8946 28.8474 46.951 29.0136C47.0075 29.1797 47.0153 29.3585 46.9736 29.5289C46.9319 29.6994 46.8423 29.8544 46.7155 29.9757L44.0109 32.5323Z" fill="#FCCA00"/>
<path d="M58.0109 32.5323C58.0032 32.5383 57.9978 32.5467 57.9955 32.5561C57.9931 32.5655 57.994 32.5754 57.9978 32.5843L58.8777 35.843C58.9152 35.9782 58.9209 36.1203 58.8946 36.2581C58.8682 36.3959 58.8105 36.5258 58.7258 36.6377C58.6411 36.7496 58.5318 36.8405 58.4063 36.9033C58.2808 36.9661 58.1425 36.9992 58.0022 37C57.8193 37.0002 57.6407 36.9443 57.4907 36.8397L54.5217 34.829C54.5152 34.8248 54.5077 34.8225 54.5 34.8225C54.4923 34.8225 54.4848 34.8248 54.4783 34.829L51.5093 36.8397C51.3552 36.9446 51.1725 36.9996 50.9861 36.9973C50.7996 36.9949 50.6184 36.9353 50.467 36.8265C50.3156 36.7177 50.2013 36.565 50.1396 36.389C50.078 36.2131 50.0719 36.0225 50.1223 35.843L51.0022 32.5843C51.006 32.5754 51.0069 32.5655 51.0045 32.5561C51.0022 32.5467 50.9968 32.5383 50.9891 32.5323L48.2845 29.9757C48.1577 29.8544 48.0681 29.6994 48.0264 29.5289C47.9847 29.3585 47.9925 29.1797 48.049 29.0136C48.1054 28.8474 48.2082 28.7009 48.3451 28.5911C48.482 28.4813 48.6475 28.413 48.822 28.394L52.1508 28.0733C52.1585 28.0731 52.166 28.0705 52.1722 28.0658C52.1784 28.0612 52.183 28.0547 52.1854 28.0473L53.6635 24.559C53.732 24.3935 53.848 24.2521 53.9969 24.1526C54.1458 24.0531 54.3209 24 54.5 24C54.6791 24 54.8542 24.0531 55.0031 24.1526C55.152 24.2521 55.268 24.3935 55.3365 24.559L56.8146 28.0473C56.817 28.0547 56.8216 28.0612 56.8278 28.0658C56.834 28.0705 56.8415 28.0731 56.8492 28.0733L60.178 28.394C60.3525 28.413 60.518 28.4813 60.6549 28.5911C60.7918 28.7009 60.8946 28.8474 60.951 29.0136C61.0075 29.1797 61.0153 29.3585 60.9736 29.5289C60.9319 29.6994 60.8423 29.8544 60.7155 29.9757L58.0109 32.5323Z" fill="#FCCA00"/>
<path d="M73.0109 32.5323C73.0032 32.5383 72.9978 32.5467 72.9955 32.5561C72.9931 32.5655 72.994 32.5754 72.9978 32.5843L73.8777 35.843C73.9152 35.9782 73.9209 36.1203 73.8946 36.2581C73.8682 36.3959 73.8105 36.5258 73.7258 36.6377C73.6411 36.7496 73.5318 36.8405 73.4063 36.9033C73.2808 36.9661 73.1425 36.9992 73.0022 37C72.8193 37.0002 72.6407 36.9443 72.4907 36.8397L69.5217 34.829C69.5152 34.8248 69.5077 34.8225 69.5 34.8225C69.4923 34.8225 69.4848 34.8248 69.4783 34.829L66.5093 36.8397C66.3552 36.9446 66.1725 36.9996 65.9861 36.9973C65.7996 36.9949 65.6184 36.9353 65.467 36.8265C65.3156 36.7177 65.2013 36.565 65.1396 36.389C65.078 36.2131 65.0719 36.0225 65.1223 35.843L66.0022 32.5843C66.006 32.5754 66.0069 32.5655 66.0045 32.5561C66.0022 32.5467 65.9968 32.5383 65.9891 32.5323L63.2845 29.9757C63.1577 29.8544 63.0681 29.6994 63.0264 29.5289C62.9847 29.3585 62.9925 29.1797 63.049 29.0136C63.1054 28.8474 63.2082 28.7009 63.3451 28.5911C63.482 28.4813 63.6475 28.413 63.822 28.394L67.1508 28.0733C67.1585 28.0731 67.166 28.0705 67.1722 28.0658C67.1784 28.0612 67.183 28.0547 67.1854 28.0473L68.6635 24.559C68.732 24.3935 68.848 24.2521 68.9969 24.1526C69.1458 24.0531 69.3209 24 69.5 24C69.6791 24 69.8542 24.0531 70.0031 24.1526C70.152 24.2521 70.268 24.3935 70.3365 24.559L71.8146 28.0473C71.817 28.0547 71.8216 28.0612 71.8278 28.0658C71.834 28.0705 71.8415 28.0731 71.8492 28.0733L75.178 28.394C75.3525 28.413 75.518 28.4813 75.6549 28.5911C75.7918 28.7009 75.8946 28.8474 75.951 29.0136C76.0075 29.1797 76.0153 29.3585 75.9736 29.5289C75.9319 29.6994 75.8423 29.8544 75.7155 29.9757L73.0109 32.5323Z" fill="#FCCA00"/>
<path d="M87.2408 32.5323C87.2338 32.5383 87.2288 32.5467 87.2266 32.5561C87.2244 32.5655 87.2252 32.5754 87.2288 32.5843L88.041 35.843C88.0755 35.9782 88.0808 36.1203 88.0565 36.2581C88.0322 36.3959 87.9789 36.5258 87.9007 36.6377C87.8226 36.7496 87.7216 36.8405 87.6058 36.9033C87.49 36.9661 87.3623 36.9992 87.2328 37C87.064 37.0002 86.8991 36.9443 86.7607 36.8397L84.02 34.829C84.0141 34.8248 84.0071 34.8225 84 34.8225C83.9929 34.8225 83.9859 34.8248 83.98 34.829L81.2393 36.8397C81.0971 36.9446 80.9285 36.9996 80.7564 36.9973C80.5843 36.9949 80.417 36.9353 80.2772 36.8265C80.1375 36.7177 80.032 36.565 79.9751 36.389C79.9181 36.2131 79.9125 36.0225 79.959 35.843L80.7712 32.5843C80.7748 32.5754 80.7756 32.5655 80.7734 32.5561C80.7712 32.5467 80.7662 32.5383 80.7592 32.5323L78.2626 29.9757C78.1455 29.8544 78.0629 29.6994 78.0244 29.5289C77.9859 29.3585 77.9931 29.1797 78.0452 29.0136C78.0973 28.8474 78.1922 28.7009 78.3186 28.5911C78.445 28.4813 78.5977 28.413 78.7587 28.394L81.8315 28.0733C81.8386 28.0731 81.8455 28.0705 81.8513 28.0658C81.857 28.0612 81.8613 28.0547 81.8635 28.0473L83.2278 24.559C83.291 24.3935 83.3981 24.2521 83.5356 24.1526C83.6731 24.0531 83.8347 24 84 24C84.1653 24 84.3269 24.0531 84.4644 24.1526C84.6019 24.2521 84.709 24.3935 84.7722 24.559L86.1365 28.0473C86.1387 28.0547 86.143 28.0612 86.1487 28.0658C86.1545 28.0705 86.1614 28.0731 86.1685 28.0733L89.2413 28.394C89.4023 28.413 89.555 28.4813 89.6814 28.5911C89.8078 28.7009 89.9027 28.8474 89.9548 29.0136C90.0069 29.1797 90.0141 29.3585 89.9756 29.5289C89.9371 29.6994 89.8545 29.8544 89.7374 29.9757L87.2408 32.5323Z" fill="#FCCA00"/>
<path d="M102.011 32.5323C102.003 32.5383 101.998 32.5467 101.995 32.5561C101.993 32.5655 101.994 32.5754 101.998 32.5843L102.878 35.843C102.915 35.9782 102.921 36.1203 102.895 36.2581C102.868 36.3959 102.81 36.5258 102.726 36.6377C102.641 36.7496 102.532 36.8405 102.406 36.9033C102.281 36.9661 102.143 36.9992 102.002 37C101.819 37.0002 101.641 36.9443 101.491 36.8397L98.5217 34.829C98.5152 34.8248 98.5077 34.8225 98.5 34.8225C98.4923 34.8225 98.4848 34.8248 98.4783 34.829L95.5093 36.8397C95.3552 36.9446 95.1725 36.9996 94.9861 36.9973C94.7996 36.9949 94.6184 36.9353 94.467 36.8265C94.3156 36.7177 94.2013 36.565 94.1396 36.389C94.078 36.2131 94.0719 36.0225 94.1223 35.843L95.0022 32.5843C95.006 32.5754 95.0069 32.5655 95.0045 32.5561C95.0022 32.5467 94.9968 32.5383 94.9891 32.5323L92.2845 29.9757C92.1577 29.8544 92.0681 29.6994 92.0264 29.5289C91.9847 29.3585 91.9925 29.1797 92.049 29.0136C92.1054 28.8474 92.2082 28.7009 92.3451 28.5911C92.482 28.4813 92.6475 28.413 92.822 28.394L96.1508 28.0733C96.1585 28.0731 96.166 28.0705 96.1722 28.0658C96.1784 28.0612 96.183 28.0547 96.1854 28.0473L97.6635 24.559C97.732 24.3935 97.848 24.2521 97.9969 24.1526C98.1458 24.0531 98.3209 24 98.5 24C98.6791 24 98.8542 24.0531 99.0031 24.1526C99.152 24.2521 99.268 24.3935 99.3365 24.559L100.815 28.0473C100.817 28.0547 100.822 28.0612 100.828 28.0658C100.834 28.0705 100.841 28.0731 100.849 28.0733L104.178 28.394C104.353 28.413 104.518 28.4813 104.655 28.5911C104.792 28.7009 104.895 28.8474 104.951 29.0136C105.007 29.1797 105.015 29.3585 104.974 29.5289C104.932 29.6994 104.842 29.8544 104.716 29.9757L102.011 32.5323Z" fill="#FCCA00"/>
<path d="M6.10254 33.1133H9.50391V27.4883C9.36328 27.7285 8.22949 29.6035 6.10254 33.1133ZM9.48633 38V34.6338H3.94043V33.2363L9.12598 25.2031H11.4463V33.1133H13.4238V34.6338H11.4727V38H9.48633ZM15.1553 38V35.7764H17.5107V38H15.1553ZM24.1201 31.707C24.835 31.707 25.4121 31.4844 25.8516 31.0391C26.291 30.5879 26.5107 29.9551 26.5107 29.1406C26.5107 28.4609 26.3086 27.8838 25.9043 27.4092C25.5 26.9346 24.9434 26.6973 24.2344 26.6973C23.5254 26.6973 22.9629 26.9287 22.5469 27.3916C22.1309 27.8545 21.9229 28.4609 21.9229 29.2109C21.9229 29.9551 22.1074 30.5586 22.4766 31.0215C22.8457 31.4785 23.3936 31.707 24.1201 31.707ZM23.7422 38.2109C22.7168 38.2109 21.6357 37.9268 20.499 37.3584L21.2021 35.7236C22.0107 36.2217 22.8076 36.4707 23.5928 36.4707C24.4775 36.4707 25.1953 36.1309 25.7461 35.4512C26.2969 34.7656 26.5723 33.749 26.5723 32.4014V32.0674C26.0391 32.9463 25.1484 33.3857 23.9004 33.3857C22.6758 33.3857 21.7002 33.0049 20.9736 32.2432C20.2471 31.4814 19.8838 30.4854 19.8838 29.2549C19.8838 28.4463 20.0537 27.7197 20.3936 27.0752C20.7393 26.4248 21.2402 25.9121 21.8965 25.5371C22.5586 25.1562 23.3232 24.9658 24.1904 24.9658C25.6143 24.9658 26.7012 25.499 27.4512 26.5654C28.207 27.626 28.585 29.1787 28.585 31.2236C28.585 33.4033 28.1543 35.1143 27.293 36.3564C26.4316 37.5928 25.248 38.2109 23.7422 38.2109Z" fill="black"/>
</svg>