<svg width="24" height="17" viewBox="0 0 24 17" fill="none" xmlns="http://www.w3.org/2000/svg">
<g id="Group 12025">
<path id="Vector" fill-rule="evenodd" clip-rule="evenodd" d="M11.2705 0.0489446C11.4225 -0.0163149 11.5948 -0.0163149 11.747 0.0489446L21.8344 4.37479C22.0569 4.47017 22.2011 4.689 22.2011 4.93112C22.2011 5.17323 22.0569 5.39206 21.8344 5.48744L11.747 9.81325C11.5948 9.8785 11.4225 9.8785 11.2705 9.81325L1.18302 5.48744C0.960612 5.39206 0.816406 5.17323 0.816406 4.93112C0.816406 4.689 0.960612 4.47017 1.18302 4.37479L11.2705 0.0489446ZM2.95687 4.93112L11.5087 8.59849L20.0606 4.93112L11.5087 1.26377L2.95687 4.93112Z" fill="#575757"/>
<path id="Vector_2" fill-rule="evenodd" clip-rule="evenodd" d="M5.26505 6.48926C5.59911 6.48926 5.86994 6.76017 5.86994 7.09452V10.4329C5.86994 10.8848 6.1406 11.2926 6.55684 11.468C9.62167 12.7593 13.0773 12.7593 16.1422 11.468C16.5585 11.2926 16.8291 10.8848 16.8291 10.4329V7.09452C16.8291 6.76017 17.0999 6.48926 17.434 6.48926C17.768 6.48926 18.0389 6.76017 18.0389 7.09452V10.4329C18.0389 11.3718 17.4765 12.2194 16.6117 12.5838C13.2466 14.0014 9.45241 14.0014 6.08737 12.5838C5.22253 12.2194 4.66016 11.3718 4.66016 10.4329V7.09452C4.66016 6.76017 4.93098 6.48926 5.26505 6.48926Z" fill="#575757"/>
<path id="Vector_3" fill-rule="evenodd" clip-rule="evenodd" d="M10.9043 4.93046C10.9043 4.59617 11.1752 4.3252 11.5092 4.3252H20.636C21.6775 4.3252 22.5218 5.17003 22.5218 6.21218V11.5794C22.5218 11.9138 22.2509 12.1847 21.9169 12.1847C21.5828 12.1847 21.312 11.9138 21.312 11.5794V6.21218C21.312 5.83861 21.0093 5.53573 20.636 5.53573H11.5092C11.1752 5.53573 10.9043 5.26473 10.9043 4.93046Z" fill="#575757"/>
<path id="Vector_4" fill-rule="evenodd" clip-rule="evenodd" d="M20.1914 13.0218C20.1914 12.0238 20.9999 11.2148 21.9972 11.2148C22.9945 11.2148 23.803 12.0238 23.803 13.0218V14.2234C23.803 15.2213 22.9945 16.0303 21.9972 16.0303C20.9999 16.0303 20.1914 15.2213 20.1914 14.2234V13.0218ZM21.9972 12.4254C21.6681 12.4254 21.4012 12.6924 21.4012 13.0218V14.2234C21.4012 14.5527 21.6681 14.8198 21.9972 14.8198C22.3263 14.8198 22.5932 14.5527 22.5932 14.2234V13.0218C22.5932 12.6924 22.3263 12.4254 21.9972 12.4254Z" fill="#575757"/>
</g>
</svg>