<?xml version="1.0" encoding="UTF-8"?>
<svg xmlns="http://www.w3.org/2000/svg" width="75" height="57" viewBox="0 0 75 57" fill="none"><g id="make the payment icon"><path id="Vector" d="M6.92012 34.1401V34.1402C6.92012 38.4115 10.394 41.885 14.667 41.885C18.9341 41.885 22.4063 38.4113 22.4063 34.1402C22.4063 29.8719 18.9339 26.4014 14.667 26.4014C10.3949 26.4014 6.9209 29.8717 6.92012 34.1401ZM25.0764 34.1394C25.0764 39.8831 20.4062 44.5556 14.667 44.5556C8.92304 44.5556 4.25 39.8836 4.25 34.1394C4.25 28.4006 8.92294 23.7292 14.667 23.7292C20.4063 23.7292 25.0764 28.4004 25.0764 34.1394Z" fill="#FFC500" stroke="white" stroke-width="0.5"/><path id="Vector_2" d="M12.1771 33.3434V33.3279V33.1805C12.2023 33.1805 12.2346 33.1873 12.2656 33.2078C12.2938 33.2264 12.311 33.2497 12.3211 33.2684C12.3217 33.2696 12.3223 33.2707 12.3228 33.2718C12.3321 33.2902 12.3358 33.3062 12.3374 33.316C12.3383 33.3213 12.3388 33.3262 12.3392 33.3306L12.3395 33.3371L12.3396 33.3402L12.3396 33.3418L12.3396 33.3426L12.3396 33.343L12.3396 33.3432M12.1771 33.3434V33.3805V33.5805H11.8398C11.5668 33.5805 11.3278 33.7964 11.3278 34.0857C11.3278 34.3515 11.5431 34.5909 11.8398 34.5909H12.5143H12.704L12.7141 34.7803C12.7531 35.5145 12.636 36.2163 12.3203 36.881L12.2765 36.9731L12.1761 36.9918L11.5849 37.1016C11.2564 37.1941 11.0579 37.5076 11.1333 37.7813C11.2231 38.1076 11.5418 38.3117 11.8251 38.2352L11.8343 38.2327L11.8343 38.2329L13.8578 37.7875L13.8682 37.7852L13.8683 37.7855C14.1311 37.7421 14.4428 37.7828 14.6775 37.9223L14.682 37.9249L14.682 37.925C15.0579 38.162 15.4695 38.2654 15.9244 38.2654C16.2333 38.2654 16.5468 38.1971 16.829 38.0923L16.8359 38.0897L16.8359 38.0899L17.2751 37.9449C17.5883 37.7988 17.7146 37.4716 17.5788 37.1755C17.4343 36.8607 17.0991 36.7285 16.7934 36.8662L16.785 36.8699L16.785 36.8697L16.4124 37.0174C16.106 37.1466 15.6961 37.1563 15.402 36.962C14.9952 36.6935 14.5159 36.5888 13.9889 36.6235L13.71 36.642L13.7826 36.372C13.9259 35.84 13.9624 35.3058 13.9261 34.7672L13.9117 34.5538H14.1257H15.9618C16.2349 34.5538 16.4738 34.3378 16.4738 34.0486C16.4738 33.7828 16.2586 33.5434 15.9618 33.5434H13.8634H13.7196L13.6738 33.4071C13.6577 33.3593 13.642 33.3113 13.6264 33.2635C13.5654 33.0765 13.5053 32.8923 13.4225 32.7283L13.4208 32.7248L13.4208 32.7248C13.0406 31.9341 12.9888 31.5683 12.9888 31.4133C12.9888 30.6251 13.613 30.0256 14.4629 30.0256C15.2835 30.0256 15.937 30.6701 15.937 31.4876C15.937 31.8207 16.1829 32.067 16.5239 32.067C16.8649 32.067 17.1109 31.8207 17.1109 31.4876C17.1109 30.0409 15.9281 28.8667 14.4629 28.8667C12.9585 28.8667 11.815 30.0056 11.815 31.4504C11.815 31.8889 11.9868 32.4495 12.3245 33.267L12.3396 33.3037L12.3396 33.3432M12.1771 33.3434L12.3396 33.3434L12.3396 33.3432M12.1771 33.3434C12.3396 33.3433 12.3396 33.3433 12.3396 33.3432" fill="#FFC500" stroke="#FFC500" stroke-width="0.4"/><path id="Vector_3" d="M41.5781 45.5593H2.11579V21.9661H38.7189C38.9995 21.9661 39.2686 21.8375 39.467 21.6087C39.6654 21.3798 39.7768 21.0694 39.7768 20.7458C39.7768 20.4221 39.6654 20.1117 39.467 19.8829C39.2686 19.654 38.9995 19.5254 38.7189 19.5254H2.11579V12.2034H64.8842V14.0583C64.8842 14.382 64.9957 14.6924 65.1941 14.9212C65.3925 15.1501 65.6615 15.2786 65.9421 15.2786C66.2227 15.2786 66.4918 15.1501 66.6902 14.9212C66.8885 14.6924 67 14.382 67 14.0583V1.22034C67 0.896685 66.8885 0.586287 66.6902 0.357429C66.4918 0.128571 66.2227 0 65.9421 0H1.05789C0.777324 0 0.508244 0.128571 0.30985 0.357429C0.111456 0.586287 0 0.896685 0 1.22034L0 46.7797C0 47.1033 0.111456 47.4137 0.30985 47.6426C0.508244 47.8714 0.777324 48 1.05789 48H41.5781C41.8587 48 42.1277 47.8714 42.3261 47.6426C42.5245 47.4137 42.636 47.1033 42.636 46.7797C42.636 46.456 42.5245 46.1456 42.3261 45.9167C42.1277 45.6879 41.8587 45.5593 41.5781 45.5593ZM2.11579 2.44068H64.8842V9.76271H2.11579V2.44068Z" fill="#00387D"/><path id="Vector_4" d="M30.2816 34.2321V34.3821H30.4316H38.4561C38.7385 34.3821 39.0095 34.4949 39.2094 34.6959C39.4094 34.897 39.5219 35.1699 39.5219 35.4547C39.5219 35.7394 39.4094 36.0123 39.2094 36.2134C39.0095 36.4144 38.7385 36.5272 38.4561 36.5272H29.2158C28.9334 36.5272 28.6624 36.4144 28.4625 36.2134C28.2625 36.0123 28.15 35.7394 28.15 35.4547V30.5644C28.15 30.2796 28.2625 30.0067 28.4625 29.8057C28.6624 29.6046 28.9334 29.4918 29.2158 29.4918H38.4561C38.7385 29.4918 39.0095 29.6046 39.2094 29.8057C39.4094 30.0067 39.5219 30.2796 39.5219 30.5644C39.5219 30.8491 39.4094 31.122 39.2094 31.3231C39.0095 31.5241 38.7385 31.6369 38.4561 31.6369H30.4316H30.2816V31.7869V34.2321Z" fill="#FFC500" stroke="white" stroke-width="0.3"/><path id="Vector_5" d="M39.0332 41.4175H32.458C32.1756 41.4175 31.9046 41.3047 31.7047 41.1036C31.5047 40.9025 31.3922 40.6296 31.3922 40.3449C31.3922 40.0602 31.5047 39.7873 31.7047 39.5862C31.9046 39.3851 32.1756 39.2723 32.458 39.2723H39.0332C39.3156 39.2723 39.5866 39.3851 39.7865 39.5862C39.9865 39.7873 40.099 40.0602 40.099 40.3449C40.099 40.6296 39.9865 40.9025 39.7865 41.1036C39.5866 41.3047 39.3156 41.4175 39.0332 41.4175Z" fill="#FFC500" stroke="white" stroke-width="0.3"/><path id="Vector_6" d="M7.7002 4.89038H6.0791C5.75665 4.89038 5.4474 5.01919 5.21939 5.24847C4.99138 5.47774 4.86328 5.78871 4.86328 6.11296C4.86328 6.4372 4.99138 6.74817 5.21939 6.97745C5.4474 7.20672 5.75665 7.33553 6.0791 7.33553H7.7002C8.02265 7.33553 8.3319 7.20672 8.55991 6.97745C8.78792 6.74817 8.91602 6.4372 8.91602 6.11296C8.91602 5.78871 8.78792 5.47774 8.55991 5.24847C8.3319 5.01919 8.02265 4.89038 7.7002 4.89038Z" fill="#FFB600"/><path id="Vector_7" d="M15.8057 4.89038H14.1846C13.8621 4.89038 13.5529 5.01919 13.3249 5.24847C13.0968 5.47774 12.9688 5.78871 12.9688 6.11296C12.9688 6.4372 13.0968 6.74817 13.3249 6.97745C13.5529 7.20672 13.8621 7.33553 14.1846 7.33553H15.8057C16.1281 7.33553 16.4374 7.20672 16.6654 6.97745C16.8934 6.74817 17.0215 6.4372 17.0215 6.11296C17.0215 5.78871 16.8934 5.47774 16.6654 5.24847C16.4374 5.01919 16.1281 4.89038 15.8057 4.89038Z" fill="#FFB600"/><path id="Vector_8" d="M59 27C57.4178 27 55.871 27.4399 54.5554 28.264C53.2398 29.0881 52.2145 30.2594 51.609 31.6299C51.0035 33.0003 50.845 34.5083 51.1537 35.9632C51.4624 37.418 52.2243 38.7544 53.3431 39.8033C54.462 40.8522 55.8874 41.5665 57.4393 41.8559C58.9911 42.1453 60.5997 41.9967 62.0615 41.4291C63.5233 40.8614 64.7727 39.9001 65.6518 38.6668C66.5308 37.4334 67 35.9834 67 34.5C66.9976 32.5116 66.1539 30.6052 64.6542 29.1992C63.1544 27.7932 61.121 27.0023 59 27ZM63.6217 32.7543L58.3432 37.7543C58.2369 37.8547 58.1103 37.9345 57.9709 37.9889C57.8315 38.0433 57.682 38.0713 57.531 38.0713C57.3801 38.0713 57.2306 38.0433 57.0912 37.9889C56.9518 37.9345 56.8252 37.8547 56.7189 37.7543L54.3783 35.5371C54.2698 35.4377 54.1835 35.3191 54.1245 35.1881C54.0654 35.0572 54.0348 34.9165 54.0343 34.7743C54.0338 34.6321 54.0635 34.4912 54.1217 34.3599C54.1799 34.2286 54.2654 34.1094 54.3732 34.0094C54.481 33.9094 54.609 33.8305 54.7497 33.7773C54.8903 33.7241 55.0409 33.6977 55.1925 33.6996C55.3442 33.7015 55.494 33.7317 55.633 33.7885C55.7721 33.8452 55.8978 33.9273 56.0027 34.03L57.5265 35.4771L61.9928 31.2457C62.2062 31.0438 62.4964 30.9296 62.7996 30.9282C63.1028 30.9269 63.3941 31.0385 63.6095 31.2386C63.8249 31.4386 63.9467 31.7107 63.9482 31.9949C63.9496 32.2792 63.8305 32.5523 63.6171 32.7543H63.6217Z" fill="#FFC500"/><path id="Vector_9" d="M74.2052 20.5201L59.3215 16.0481C59.1119 15.984 58.8881 15.984 58.6785 16.0481L43.7948 20.5201C43.5649 20.5891 43.3635 20.7305 43.2203 20.9234C43.0771 21.1162 42.9998 21.3501 43 21.5904V33.8587C42.9987 38.8224 44.4829 43.6726 47.2609 47.7832C50.0389 51.8938 53.9832 55.0761 58.5847 56.9195C58.8512 57.0268 59.1488 57.0268 59.4153 56.9195C64.0168 55.0761 67.9611 51.8938 70.7391 47.7832C73.5171 43.6726 75.0013 38.8224 75 33.8587V21.5904C75.0002 21.3501 74.9229 21.1162 74.7797 20.9234C74.6365 20.7305 74.435 20.5891 74.2052 20.5201ZM59 45.0686C57.013 45.0686 55.0706 44.4785 53.4185 43.3729C51.7663 42.2672 50.4786 40.6958 49.7182 38.8572C48.9578 37.0185 48.7589 34.9954 49.1465 33.0435C49.5342 31.0917 50.491 29.2988 51.896 27.8916C53.3011 26.4844 55.0912 25.5261 57.04 25.1378C58.9889 24.7496 61.0089 24.9488 62.8446 25.7104C64.6804 26.472 66.2494 27.7617 67.3534 29.4164C68.4573 31.0711 69.0465 33.0165 69.0465 35.0066C69.0434 37.6742 67.9839 40.2317 66.1005 42.118C64.2171 44.0044 61.6635 45.0655 59 45.0686Z" fill="#FFC500"/></g></svg>