<svg width="95" height="95" viewBox="0 0 95 95" fill="none" xmlns="http://www.w3.org/2000/svg">
<path d="M47.6636 34.6696C54.4933 34.6696 60.029 40.2052 60.029 47.0352C60.029 48.9393 59.5632 50.7242 58.7924 52.3357L67.0403 60.5836C71.2817 57.0801 74.645 52.4883 76.5163 47.0352C72.2873 34.7068 60.6968 26.426 47.6636 26.426C43.3727 26.426 39.2715 27.3987 35.5 29.0433L42.3628 35.9061C43.9746 35.1353 45.7592 34.6696 47.6636 34.6696Z" fill="#FFC500"/>
<path d="M45.5586 39.1005L55.6035 49.1454C55.7808 48.4654 55.9084 47.7688 55.9084 47.035C55.9084 42.4888 52.2111 38.7915 47.6648 38.7915C46.931 38.7915 46.2345 38.9193 45.5586 39.1005Z" fill="#FFC500"/>
<path d="M22.9324 22.3042L20.0181 25.2183L28.3237 33.5239C24.0699 37.011 20.6818 41.5779 18.8105 47.0352C23.0396 59.3636 34.6302 67.6444 47.6635 67.6444C51.9582 67.6444 56.0679 66.6964 59.827 65.0269L69.4802 74.6803L72.3943 71.7663L22.9324 22.3042ZM47.6635 59.4007C40.8335 59.4007 35.2978 53.8652 35.2978 47.0352C35.2978 45.1308 35.7636 43.3462 36.5344 41.7345L39.7289 44.929C39.5475 45.6049 39.4197 46.3014 39.4197 47.0352C39.4197 51.5815 43.117 55.2788 47.6635 55.2788C48.397 55.2788 49.0936 55.1512 49.7697 54.9698L52.964 58.1641C51.3525 58.9349 49.5676 59.4007 47.6635 59.4007Z" fill="#1055A0"/>
<circle cx="47.5" cy="47.5" r="46" stroke="#1055A0" stroke-width="3"/>
</svg>