<svg width="497" height="43" viewBox="0 0 497 43" fill="none" xmlns="http://www.w3.org/2000/svg">
<path d="M68.0946 0H9.45636C4.23376 0 0 4.15233 0 9.2745V31.0837C0 36.2058 4.23376 40.3582 9.45636 40.3582H68.0946C73.3172 40.3582 77.551 36.2058 77.551 31.0837V9.2745C77.551 4.15233 73.3172 0 68.0946 0Z" fill="white"/>
<mask id="mask0_2953_920" style="mask-type:luminance" maskUnits="userSpaceOnUse" x="18" y="13" width="43" height="15">
<path d="M60.0027 13.4668H18.1992V27.4309H60.0027V13.4668Z" fill="white"/>
</mask>
<g mask="url(#mask0_2953_920)">
<path d="M33.5254 26.4678L35.6487 14.4985H38.9665L36.9094 26.4678H33.5254Z" fill="#3C58BF"/>
<path d="M33.5254 26.4678L36.2459 14.4985H38.9665L36.9094 26.4678H33.5254Z" fill="#293688"/>
<path d="M48.9257 14.6312C48.2622 14.3651 47.2005 14.0991 45.8734 14.0991C42.5556 14.0991 40.1669 15.7615 40.1669 18.1555C40.1669 19.9508 41.8258 20.8817 43.1529 21.4802C44.4799 22.0787 44.8781 22.4777 44.8781 23.0096C44.8781 23.8076 43.8164 24.2065 42.8875 24.2065C41.5603 24.2065 40.8305 24.007 39.7024 23.5416L39.2379 23.3421L38.7734 26.0684C39.5698 26.401 41.0295 26.7334 42.5556 26.7334C46.0724 26.7334 48.3949 25.071 48.3949 22.5441C48.3949 21.1477 47.5322 20.0838 45.5416 19.2193C44.3473 18.6208 43.6174 18.2884 43.6174 17.69C43.6174 17.1579 44.2145 16.626 45.5416 16.626C46.6697 16.626 47.4659 16.8255 48.0631 17.0915L48.3949 17.2245L48.9257 14.6312Z" fill="#3C58BF"/>
<path d="M48.9257 14.6312C48.2622 14.3651 47.2005 14.0991 45.8734 14.0991C42.5556 14.0991 40.7641 15.7615 40.7641 18.1555C40.7641 19.9508 41.8258 20.8817 43.1529 21.4802C44.4799 22.0787 44.8781 22.4777 44.8781 23.0096C44.8781 23.8076 43.8164 24.2065 42.8875 24.2065C41.5603 24.2065 40.8305 24.007 39.7024 23.5416L39.2379 23.3421L38.7734 26.0684C39.5698 26.401 41.0295 26.7334 42.5556 26.7334C46.0724 26.7334 48.3949 25.071 48.3949 22.5441C48.3949 21.1477 47.5322 20.0838 45.5416 19.2193C44.3473 18.6208 43.6174 18.2884 43.6174 17.69C43.6174 17.1579 44.2145 16.626 45.5416 16.626C46.6697 16.626 47.4659 16.8255 48.0631 17.0915L48.3949 17.2245L48.9257 14.6312Z" fill="#293688"/>
<path d="M54.6257 14.4985C53.8294 14.4985 53.2322 14.565 52.9004 15.363L47.9238 26.4678H51.5071L52.1705 24.4729H56.4172L56.8154 26.4678H60.0004L57.2135 14.4985H54.6257ZM53.0995 22.4781C53.2986 21.8796 54.4266 18.9538 54.4266 18.9538C54.4266 18.9538 54.692 18.2223 54.8911 17.7569L55.0902 18.8873C55.0902 18.8873 55.7537 21.8796 55.8864 22.5445H53.0995V22.4781Z" fill="#3C58BF"/>
<path d="M55.4219 14.4985C54.6257 14.4985 54.0285 14.565 53.6967 15.363L47.9238 26.4678H51.5071L52.1705 24.4729H56.4172L56.8154 26.4678H60.0004L57.2135 14.4985H55.4219ZM53.0995 22.4781C53.3649 21.8131 54.4266 18.9538 54.4266 18.9538C54.4266 18.9538 54.692 18.2223 54.8911 17.7569L55.0902 18.8873C55.0902 18.8873 55.7537 21.8796 55.8864 22.5445H53.0995V22.4781Z" fill="#293688"/>
<path d="M27.4219 22.8764L27.0901 21.1476C26.4929 19.1526 24.5687 16.9583 22.4453 15.8943L25.4312 26.5338H29.0144L34.3891 14.5645H30.8059L27.4219 22.8764Z" fill="#3C58BF"/>
<path d="M27.4219 22.8764L27.0901 21.1476C26.4929 19.1526 24.5687 16.9583 22.4453 15.8943L25.4312 26.5338H29.0144L34.3891 14.5645H31.4695L27.4219 22.8764Z" fill="#293688"/>
<path d="M18.1992 14.498L18.7965 14.631C23.0431 15.6285 25.9628 18.1553 27.0908 21.1476L25.8964 15.4955C25.6973 14.6975 25.1002 14.498 24.3703 14.498H18.1992Z" fill="#FFBC00"/>
<path d="M18.1992 14.498C22.446 15.4955 25.9628 18.0888 27.0908 21.0812L25.9628 16.3599C25.7637 15.5619 25.1002 15.0965 24.3703 15.0965L18.1992 14.498Z" fill="#F7981D"/>
<path d="M18.1992 14.498C22.446 15.4955 25.9628 18.0888 27.0908 21.0812L26.2945 18.4878C26.0955 17.6898 25.8301 16.8919 24.9011 16.5594L18.1992 14.498Z" fill="#ED7C00"/>
<path d="M30.7436 22.4772L28.4875 20.2163L27.4259 22.7432L27.1605 21.0808C26.5632 19.0859 24.639 16.8915 22.5156 15.8276L25.5016 26.467H29.0847L30.7436 22.4772Z" fill="#051244"/>
<path d="M36.9094 26.4678L34.0562 23.542L33.5254 26.4678H36.9094Z" fill="#051244"/>
<path d="M44.5463 22.3447C44.8117 22.6107 44.9444 22.8102 44.8781 23.0762C44.8781 23.8741 43.8164 24.2731 42.8875 24.2731C41.5603 24.2731 40.8305 24.0736 39.7024 23.6081L39.2379 23.4086L38.7734 26.135C39.5698 26.4674 41.0295 26.8 42.5556 26.8C44.679 26.8 46.4043 26.2015 47.3996 25.1375L44.5463 22.3447Z" fill="#051244"/>
<path d="M48.3926 26.4673H51.5113L52.1748 24.4725H56.4216L56.8196 26.4673H60.0047L58.8767 21.6132L54.8954 17.7563L55.0944 18.8203C55.0944 18.8203 55.758 21.8127 55.8907 22.4776H53.1038C53.3693 21.8127 54.4309 18.9533 54.4309 18.9533C54.4309 18.9533 54.6963 18.2218 54.8954 17.7563" fill="#051244"/>
</g>
<path d="M235.858 0H177.22C171.997 0 167.764 4.15233 167.764 9.2745V31.0837C167.764 36.2058 171.997 40.3582 177.22 40.3582H235.858C241.081 40.3582 245.315 36.2058 245.315 31.0837V9.2745C245.315 4.15233 241.081 0 235.858 0Z" fill="white"/>
<mask id="mask1_2953_920" style="mask-type:luminance" maskUnits="userSpaceOnUse" x="178" y="10" width="56" height="20">
<path d="M233.442 10.2876H178.049V29.6726H233.442V10.2876Z" fill="white"/>
</mask>
<g mask="url(#mask1_2953_920)">
<path d="M182.797 15.121H184.731L183.764 12.6689L182.797 15.121Z" fill="#2FABF7"/>
<path d="M206.8 13.0183C206.624 12.9307 206.36 12.9307 206.096 12.9307H204.338V14.3319H206.096C206.36 14.3319 206.624 14.3319 206.8 14.2443C206.976 14.1567 207.064 13.894 207.064 13.6313C207.152 13.281 206.976 13.1059 206.8 13.0183Z" fill="#228FE0"/>
<path d="M225.617 10.3911V11.4421L225.089 10.3911H220.957V11.4421L220.429 10.3911H214.802C213.835 10.3911 213.043 10.5662 212.34 10.9165V10.3911H208.383V10.9165C207.944 10.5662 207.416 10.3911 206.713 10.3911H192.557L191.589 12.5805L190.622 10.3911H186.138V11.4421L185.61 10.3911H181.83L180.071 14.5072L178.049 19.0611H180.071H182.533L183.061 17.6599H184.292L184.819 19.0611H189.919V18.0102L190.358 19.0611H192.908L193.348 18.0102V19.0611H205.57V16.7842H205.746C205.921 16.7842 205.921 16.7842 205.921 17.0469V18.9736H212.252V18.448C212.78 18.7107 213.571 18.9736 214.626 18.9736H217.264L217.791 17.5723H219.022L219.55 18.9736H224.65V17.6599L225.441 18.9736H229.574V10.3911H225.617ZM195.898 17.7474H194.403V12.9308L192.293 17.7474H190.974L188.864 12.9308V17.7474H185.874L185.259 16.4339H182.269L181.742 17.835H180.071L182.709 11.6172H184.907L187.369 17.4847V11.6172H189.743L191.677 15.8208L193.436 11.6172H195.898V17.7474ZM201.877 12.9308H198.448V14.0693H201.789V15.2953H198.448V16.5214H201.877V17.835H196.953V11.6172H201.877V12.9308ZM208.471 15.4705C208.647 15.8208 208.735 16.0835 208.735 16.609V17.835H207.24V17.0469C207.24 16.6966 207.24 16.1711 206.977 15.8208C206.713 15.558 206.449 15.558 205.921 15.558H204.339V17.835H202.844V11.6172H206.185C206.977 11.6172 207.504 11.6172 207.944 11.8799C208.383 12.1426 208.647 12.5805 208.647 13.2811C208.647 14.2445 208.032 14.7699 207.592 14.945C208.032 15.0326 208.295 15.2953 208.471 15.4705ZM211.109 17.7474H209.614V11.5296H211.109V17.7474ZM228.431 17.7474H226.32L223.507 13.1059V17.7474H220.517L219.99 16.4339H216.912L216.385 17.835H214.714C214.011 17.835 213.131 17.6599 212.604 17.1344C212.076 16.609 211.813 15.9083 211.813 14.7699C211.813 13.8942 211.988 13.0184 212.604 12.3178C213.043 11.7923 213.835 11.6172 214.802 11.6172H216.209V12.9308H214.802C214.274 12.9308 214.011 13.0184 213.659 13.2811C213.395 13.5438 213.219 14.0693 213.219 14.6823C213.219 15.3829 213.307 15.8208 213.659 16.171C213.923 16.4339 214.274 16.5214 214.714 16.5214H215.33L217.352 11.7048H219.55L222.012 17.5723V11.7048H224.21L226.76 15.9959V11.7048H228.255V17.7474H228.431Z" fill="#0571C1"/>
<path d="M217.441 15.121H219.464L218.497 12.6689L217.441 15.121Z" fill="#228FE0"/>
<path d="M202.491 27.7307V22.7388L200.205 25.191L202.491 27.7307Z" fill="#228FE0"/>
<path d="M193.082 23.3521V24.4905H196.335V25.7165H193.082V27.0302H196.687L198.358 25.1911L196.775 23.3521H193.082Z" fill="#2FABF7"/>
<path d="M205.833 23.3521H203.986V24.9284H205.921C206.448 24.9284 206.8 24.6657 206.8 24.1402C206.712 23.6148 206.36 23.3521 205.833 23.3521Z" fill="#228FE0"/>
<path d="M233.002 24.8412V20.9004H231.947H229.309C228.517 20.9004 227.902 21.0755 227.462 21.4258V20.9004H223.418C222.802 20.9004 222.011 21.0755 221.659 21.4258V20.9004H214.537V21.4258C214.01 20.9879 213.042 20.9004 212.603 20.9004H207.855V21.4258C207.415 20.9879 206.36 20.9004 205.832 20.9004H200.557L199.326 22.2139L198.183 20.9004H190.27V29.4827H198.007L199.238 28.1691L200.381 29.4827H205.129V27.4686H205.745C206.36 27.4686 207.151 27.4686 207.767 27.2058V29.5703H211.724V27.2933H211.899C212.163 27.2933 212.163 27.2933 212.163 27.5561V29.5703H224.121C224.912 29.5703 225.704 29.3952 226.143 29.0449V29.5703H229.924C230.716 29.5703 231.507 29.4827 232.034 29.1324C232.914 28.607 233.441 27.6437 233.441 26.5052C233.441 25.8922 233.265 25.2792 233.002 24.8412ZM205.745 26.2425H203.986V28.3443H201.172L199.414 26.33L197.567 28.3443H191.764V22.1264H197.655L199.414 24.1406L201.26 22.1264H205.92C207.063 22.1264 208.382 22.4768 208.382 24.1406C208.294 25.8922 207.063 26.2425 205.745 26.2425ZM214.537 25.8922C214.713 26.1549 214.801 26.5052 214.801 27.0306V28.2567H213.306V27.4686C213.306 27.1182 213.306 26.5052 213.042 26.2425C212.867 25.9797 212.515 25.9797 211.987 25.9797H210.405V28.2567H208.91V22.0388H212.251C212.954 22.0388 213.57 22.0388 214.01 22.3015C214.449 22.5643 214.801 23.0022 214.801 23.7028C214.801 24.6661 214.185 25.1916 213.746 25.3667C214.185 25.5419 214.449 25.717 214.537 25.8922ZM220.604 23.3525H217.175V24.4909H220.516V25.717H217.175V26.943H220.604V28.2567H215.68V22.0388H220.604V23.3525ZM224.297 28.2567H221.483V26.943H224.297C224.561 26.943 224.737 26.943 224.912 26.7679C225 26.6803 225.088 26.5052 225.088 26.33C225.088 26.1549 225 25.9797 224.912 25.8922C224.825 25.8046 224.649 25.717 224.385 25.717C222.978 25.6295 221.308 25.717 221.308 23.7903C221.308 22.9146 221.835 21.9512 223.418 21.9512H226.319V23.4401H223.594C223.33 23.4401 223.154 23.4401 222.978 23.5276C222.802 23.6152 222.802 23.7903 222.802 23.9655C222.802 24.2282 222.978 24.3158 223.154 24.4033C223.33 24.4909 223.506 24.4909 223.681 24.4909H224.473C225.264 24.4909 225.792 24.6661 226.143 25.0164C226.407 25.2792 226.583 25.717 226.583 26.33C226.583 27.6437 225.792 28.2567 224.297 28.2567ZM231.859 27.6437C231.507 27.994 230.891 28.2567 230.012 28.2567H227.199V26.943H230.012C230.276 26.943 230.452 26.943 230.628 26.7679C230.716 26.6803 230.804 26.5052 230.804 26.33C230.804 26.1549 230.716 25.9797 230.628 25.8922C230.54 25.8046 230.364 25.717 230.1 25.717C228.693 25.6295 227.023 25.717 227.023 23.7903C227.023 22.9146 227.55 21.9512 229.133 21.9512H232.034V23.4401H229.397C229.133 23.4401 228.957 23.4401 228.781 23.5276C228.605 23.6152 228.605 23.7903 228.605 23.9655C228.605 24.2282 228.693 24.3158 228.957 24.4033C229.133 24.4909 229.309 24.4909 229.485 24.4909H230.276C231.067 24.4909 231.595 24.6661 231.947 25.0164C232.034 25.0164 232.034 25.104 232.034 25.104C232.298 25.4543 232.386 25.8922 232.386 26.33C232.386 26.8555 232.21 27.2933 231.859 27.6437Z" fill="#0571C1"/>
<path d="M212.956 23.5271C212.78 23.4395 212.516 23.4395 212.253 23.4395H210.494V24.8406H212.253C212.516 24.8406 212.78 24.8406 212.956 24.7531C213.132 24.6655 213.22 24.4028 213.22 24.1401C213.308 23.7898 213.132 23.6146 212.956 23.5271Z" fill="#228FE0"/>
<path d="M206.8 13.0183C206.624 12.9307 206.36 12.9307 206.096 12.9307H204.338V14.3319H206.096C206.36 14.3319 206.624 14.3319 206.8 14.2443C206.976 14.1567 207.064 13.894 207.064 13.6313C207.151 13.281 206.976 13.1059 206.8 13.0183Z" fill="#228FE0"/>
<path d="M217.441 15.121H219.464L218.497 12.6689L217.441 15.121Z" fill="#228FE0"/>
<path d="M202.491 27.7307V22.7388L200.205 25.191L202.491 27.7307Z" fill="#228FE0"/>
<path d="M205.833 23.3521H203.986V24.9284H205.921C206.448 24.9284 206.8 24.6657 206.8 24.1402C206.712 23.6148 206.36 23.3521 205.833 23.3521Z" fill="#228FE0"/>
<path d="M212.956 23.5271C212.78 23.4395 212.516 23.4395 212.253 23.4395H210.494V24.8406H212.253C212.516 24.8406 212.78 24.8406 212.956 24.7531C213.132 24.6655 213.22 24.4028 213.22 24.1401C213.308 23.7898 213.132 23.6146 212.956 23.5271Z" fill="#228FE0"/>
<path d="M205.217 28.0816L203.986 26.7679V28.2567H201.084L199.326 26.2425L197.392 28.2567H191.588V22.1264H197.479L199.326 24.1406L200.205 23.0898L198.007 20.9004H190.27V29.4827H198.007L199.326 28.1691L200.469 29.4827H205.217V28.0816Z" fill="#2FABF7"/>
<path d="M196.074 18.9736L194.931 17.7474H194.403V17.222L193.084 15.9083L192.205 17.7474H190.974L188.864 12.9308V17.7474H185.874L185.259 16.4339H182.269L181.654 17.7474H180.071L182.709 11.6172H184.907L187.369 17.4847V11.6172H188.688L187.457 10.3911H186.138V11.4421L185.698 10.3911H181.83L180.071 14.5072L178.049 18.9736H180.071H182.621L183.149 17.6599H184.38L184.995 18.9736H189.919V17.9226L190.358 18.9736H192.908L193.348 17.9226V18.9736H196.074Z" fill="#2FABF7"/>
<path d="M192.028 14.9452L190.621 13.5439L191.676 15.8209L192.028 14.9452Z" fill="#2FABF7"/>
<path d="M232.036 29.0444C232.827 28.5189 233.354 27.6432 233.442 26.6798L232.212 25.4538C232.299 25.7165 232.387 25.9793 232.387 26.3295C232.387 26.8551 232.212 27.2929 231.86 27.6432C231.508 27.9935 230.893 28.2562 230.013 28.2562H227.2V26.9427H230.013C230.277 26.9427 230.453 26.9427 230.629 26.7675C230.717 26.6798 230.805 26.5047 230.805 26.3295C230.805 26.1544 230.717 25.9793 230.629 25.8917C230.541 25.8041 230.365 25.7165 230.101 25.7165C228.694 25.629 227.024 25.7165 227.024 23.7899C227.024 22.9141 227.551 22.126 228.87 21.9508L227.903 20.9874C227.727 21.075 227.639 21.1626 227.551 21.1626V20.6372H223.507C222.891 20.6372 222.1 20.8123 221.748 21.1626V20.6372H214.538V21.1626C214.011 20.7247 213.044 20.6372 212.604 20.6372H207.856V21.1626C207.416 20.7247 206.361 20.6372 205.834 20.6372H200.558L199.327 21.9508L198.184 20.6372H197.217L199.855 23.2644L201.174 21.8633H205.834C206.977 21.8633 208.296 22.2136 208.296 23.8774C208.296 25.629 207.065 25.9793 205.746 25.9793H203.987V27.2929L205.306 28.6065V27.2929H205.746C206.361 27.2929 207.152 27.2929 207.768 27.0302V29.3948H211.725V27.1178H211.901C212.164 27.1178 212.164 27.1178 212.164 27.3805V29.3948H224.122C224.914 29.3948 225.705 29.2196 226.145 28.8692V29.3948H229.925C230.629 29.4823 231.42 29.3948 232.036 29.0444ZM214.538 25.8917C214.714 26.1544 214.802 26.5047 214.802 27.0302V28.2562H213.307V27.4681C213.307 27.1178 213.307 26.5047 213.044 26.242C212.868 25.9793 212.516 25.9793 211.988 25.9793H210.406V28.2562H208.911V22.0384H212.252C212.956 22.0384 213.571 22.0384 214.011 22.3011C214.45 22.5638 214.802 23.0017 214.802 23.7023C214.802 24.6657 214.187 25.1911 213.747 25.3663C214.187 25.5414 214.45 25.7165 214.538 25.8917ZM220.605 23.352H217.176V24.4905H220.517V25.7165H217.176V26.9427H220.605V28.2562H215.681V22.0384H220.605V23.352ZM224.298 28.2562H221.484V26.9427H224.298C224.562 26.9427 224.738 26.9427 224.914 26.7675C225.002 26.6798 225.089 26.5047 225.089 26.3295C225.089 26.1544 225.002 25.9793 224.914 25.8917C224.826 25.8041 224.65 25.7165 224.386 25.7165C222.979 25.629 221.309 25.7165 221.309 23.7899C221.309 22.9141 221.836 21.9508 223.419 21.9508H226.32V23.4396H223.595C223.331 23.4396 223.155 23.4396 222.979 23.5271C222.803 23.6147 222.803 23.7899 222.803 23.965C222.803 24.2278 222.979 24.3154 223.155 24.403C223.331 24.4905 223.507 24.4905 223.683 24.4905H224.474C225.265 24.4905 225.793 24.6657 226.145 25.016C226.408 25.2787 226.584 25.7165 226.584 26.3295C226.584 27.6432 225.793 28.2562 224.298 28.2562Z" fill="#228FE0"/>
<path d="M228.52 23.9649C228.52 24.2276 228.607 24.3152 228.871 24.4028C229.047 24.4903 229.223 24.4903 229.399 24.4903H230.19C230.718 24.4903 231.069 24.5779 231.421 24.7531L230.102 23.4395H229.311C229.047 23.4395 228.871 23.4395 228.695 23.5271C228.607 23.6146 228.52 23.7898 228.52 23.9649Z" fill="#228FE0"/>
<path d="M225.439 18.71L225.616 18.9735H225.704L225.439 18.71Z" fill="#228FE0"/>
<path d="M220.605 13.894L222.1 17.4846V15.3828L220.605 13.894Z" fill="#228FE0"/>
<path d="M205.572 16.784H205.748C205.924 16.784 205.924 16.784 205.924 17.0467V18.9734H212.254V18.4479C212.782 18.7107 213.573 18.9734 214.628 18.9734H217.266L217.794 17.5722H219.025L219.552 18.9734H224.652V18.0976L223.421 16.8716V17.8349H220.432L219.992 16.4337H216.915L216.387 17.8349H214.716C214.013 17.8349 213.134 17.6597 212.606 17.1343C212.079 16.6089 211.815 15.9082 211.815 14.7697C211.815 13.894 211.991 13.0182 212.606 12.3176C213.046 11.7922 213.837 11.617 214.804 11.617H216.211V12.9306H214.804C214.277 12.9306 214.013 13.0182 213.661 13.2809C213.397 13.5436 213.222 14.0692 213.222 14.6822C213.222 15.3827 213.31 15.8206 213.661 16.1709C213.925 16.4337 214.277 16.5213 214.716 16.5213H215.332L217.354 11.7046H218.233L217.002 10.4785H214.716C213.749 10.4785 212.958 10.6537 212.254 11.0039V10.4785H208.386V11.0039C207.946 10.6537 207.419 10.4785 206.715 10.4785H192.559L191.592 12.6679L190.625 10.4785H186.756L187.987 11.7046H189.745L191.24 14.9449L191.768 15.4703L193.35 11.617H195.812V17.8349H194.317V13.0182L192.823 16.5213L195.373 19.061H205.484L205.572 16.784ZM209.617 11.617H211.111V17.8349H209.617V11.617ZM201.879 12.9306H198.45V14.0692H201.791V15.2952H198.45V16.5213H201.879V17.8349H196.955V11.617H201.879V12.9306ZM204.341 17.7473H202.846V11.5295H206.188C206.979 11.5295 207.506 11.5295 207.946 11.7922C208.386 12.0549 208.65 12.4928 208.65 13.1933C208.65 14.1567 208.034 14.6822 207.594 14.8573C207.946 14.9449 208.21 15.2076 208.298 15.3827C208.474 15.733 208.562 15.9958 208.562 16.5213V17.7473H207.067V16.9591C207.067 16.6089 207.067 16.0833 206.803 15.733C206.715 15.5579 206.451 15.5579 205.924 15.5579H204.341V17.7473Z" fill="#228FE0"/>
</g>
<path d="M319.782 1.06201H261.144C255.921 1.06201 251.688 5.21435 251.688 10.3365V32.1457C251.688 37.2678 255.921 41.4202 261.144 41.4202H319.782C325.005 41.4202 329.238 37.2678 329.238 32.1457V10.3365C329.238 5.21435 325.005 1.06201 319.782 1.06201Z" fill="white"/>
<mask id="mask2_2953_920" style="mask-type:luminance" maskUnits="userSpaceOnUse" x="261" y="16" width="58" height="11">
<path d="M318.16 16.8887H261.975V26.4971H318.16V16.8887Z" fill="white"/>
</mask>
<g mask="url(#mask2_2953_920)">
<path d="M291.84 26.4122C294.42 26.4122 296.511 24.2831 296.511 21.6568C296.511 19.0304 294.42 16.9014 291.84 16.9014C289.259 16.9014 287.168 19.0304 287.168 21.6568C287.168 24.2831 289.259 26.4122 291.84 26.4122Z" fill="#F26E21"/>
<path d="M266.682 23.934C266.132 24.4356 265.421 24.6531 264.293 24.6531H263.825V18.6827H264.293C265.421 18.6827 266.104 18.8859 266.682 19.4131C267.285 19.9547 267.645 20.7931 267.645 21.6593C267.645 22.5261 267.285 23.394 266.682 23.934ZM264.643 17.1538H262.08V26.1807H264.63C265.984 26.1807 266.962 25.8576 267.82 25.1387C268.838 24.2861 269.443 23.0004 269.443 21.6712C269.443 19.0062 267.47 17.1538 264.643 17.1538Z" fill="#0B161F"/>
<path d="M270.248 26.1807H271.99V17.1538H270.248V26.1807Z" fill="#0B161F"/>
<path d="M276.253 20.6165C275.206 20.2244 274.898 19.9665 274.898 19.4815C274.898 18.9124 275.447 18.4794 276.199 18.4794C276.722 18.4794 277.15 18.6955 277.608 19.2087L278.518 18.0056C277.768 17.3414 276.87 17.0034 275.89 17.0034C274.309 17.0034 273.101 18.1134 273.101 19.5869C273.101 20.8339 273.663 21.4696 275.301 22.0664C275.984 22.309 276.332 22.4705 276.507 22.5806C276.855 22.8112 277.031 23.1347 277.031 23.5137C277.031 24.2459 276.454 24.7863 275.675 24.7863C274.844 24.7863 274.174 24.3674 273.771 23.5822L272.646 24.6795C273.449 25.8688 274.415 26.399 275.743 26.399C277.553 26.399 278.826 25.1789 278.826 23.4337C278.827 21.9982 278.238 21.3481 276.253 20.6165Z" fill="#0B161F"/>
<path d="M279.375 21.6714C279.375 24.3273 281.44 26.3845 284.095 26.3845C284.847 26.3845 285.489 26.2344 286.281 25.8577V23.7846C285.583 24.4894 284.966 24.7731 284.175 24.7731C282.419 24.7731 281.171 23.4868 281.171 21.6589C281.171 19.9269 282.458 18.559 284.095 18.559C284.925 18.559 285.556 18.8562 286.281 19.5743V17.5027C285.518 17.1112 284.886 16.9497 284.135 16.9497C281.494 16.9502 279.375 19.0486 279.375 21.6714Z" fill="#0B161F"/>
<path d="M300.414 23.2173L298.027 17.1538H296.123L299.919 26.4119H300.856L304.719 17.1538H302.828L300.414 23.2173Z" fill="#0B161F"/>
<path d="M305.512 26.1807H310.459V24.6531H307.255V22.2141H310.336V20.6863H307.255V18.6826H310.459V17.1538H305.512V26.1807Z" fill="#0B161F"/>
<path d="M313.866 21.3089H313.358V18.5731H313.893C314.981 18.5731 315.572 19.0354 315.572 19.9135C315.572 20.8198 314.981 21.3089 313.866 21.3089ZM317.365 19.8177C317.365 18.1269 316.213 17.1538 314.2 17.1538H311.613V26.1807H313.357V22.5529H313.586L315.998 26.1807H318.144L315.326 22.3777C316.642 22.1073 317.365 21.1994 317.365 19.8177Z" fill="#0B161F"/>
</g>
<path d="M403.665 1.06201H345.027C339.804 1.06201 335.57 5.21435 335.57 10.3365V32.1457C335.57 37.2678 339.804 41.4202 345.027 41.4202H403.665C408.888 41.4202 413.121 37.2678 413.121 32.1457V10.3365C413.121 5.21435 408.888 1.06201 403.665 1.06201Z" fill="white"/>
<path d="M348.211 30.547V25.2151H346.646V23.5649H351.678V25.2151H350.114V30.547H348.211ZM352.608 30.547V23.5649H354.597C355.376 23.5649 355.918 23.6008 356.225 23.6724C356.532 23.7438 356.797 23.8639 357.019 24.0323C357.271 24.223 357.464 24.4663 357.599 24.7619C357.734 25.0577 357.802 25.3837 357.802 25.7396C357.802 26.2802 357.669 26.7198 357.403 27.0583C357.138 27.397 356.751 27.6218 356.242 27.7333L358.145 30.5469H355.994L354.391 27.8141V30.5469L352.608 30.547ZM354.392 26.8653H354.744C355.155 26.8653 355.454 26.7954 355.643 26.6554C355.833 26.5156 355.927 26.2962 355.927 25.9971C355.927 25.6473 355.839 25.3987 355.663 25.2508C355.486 25.1031 355.19 25.0291 354.773 25.0291H354.392V26.8653Z" fill="#00AFD8"/>
<path d="M358.051 30.5474L360.459 23.5654H362.844L365.257 30.5474H363.363L363.011 29.2979H360.307L359.944 30.5474H358.051ZM360.717 27.9387H362.61L361.899 25.6351C361.877 25.5654 361.847 25.4524 361.809 25.2966C361.771 25.141 361.722 24.9407 361.661 24.6958C361.622 24.8598 361.581 25.0235 361.54 25.187C361.501 25.337 361.461 25.4864 361.418 25.6351L360.717 27.9387ZM365.925 30.5474V23.5654H367.761L370.398 27.1566C370.449 27.2298 370.532 27.3767 370.648 27.5977C370.764 27.8186 370.892 28.0819 371.032 28.3871C370.998 28.1303 370.97 27.8726 370.949 27.6144C370.933 27.4145 370.924 27.214 370.923 27.0135V23.5654H372.749V30.5474H370.923L368.285 26.9421C368.231 26.8689 368.146 26.7219 368.03 26.5009C367.914 26.2799 367.788 26.02 367.651 25.7211C367.689 26.0137 367.717 26.2726 367.734 26.4985C367.751 26.6984 367.76 26.8988 367.761 27.0994V30.5474H365.925ZM374.557 28.2917C374.84 28.6129 375.119 28.8528 375.394 29.0119C375.669 29.1709 375.943 29.2503 376.217 29.2503C376.471 29.2503 376.68 29.182 376.844 29.0451C377.007 28.9085 377.089 28.7351 377.089 28.5253C377.089 28.2933 377.018 28.1144 376.877 27.989C376.735 27.8633 376.415 27.7338 375.916 27.6001C375.233 27.4159 374.749 27.1756 374.466 26.8799C374.183 26.5843 374.042 26.179 374.042 25.6637C374.042 24.996 374.265 24.4518 374.712 24.0304C375.159 23.6092 375.738 23.3984 376.45 23.3984C376.835 23.3984 377.2 23.4501 377.545 23.5534C377.89 23.6567 378.216 23.8133 378.525 24.0231L377.929 25.3919C377.712 25.2077 377.491 25.0684 377.263 24.9745C377.036 24.8809 376.811 24.8339 376.588 24.8339C376.36 24.8339 376.174 24.8889 376.031 24.9985C375.887 25.1081 375.816 25.2488 375.816 25.4204C375.816 25.5952 375.879 25.7353 376.004 25.8401C376.13 25.9449 376.372 26.0452 376.732 26.1407L376.817 26.1644C377.593 26.3744 378.103 26.6048 378.348 26.856C378.513 27.0278 378.639 27.2336 378.725 27.4736C378.811 27.7137 378.854 27.98 378.854 28.2724C378.854 29.0135 378.611 29.6087 378.124 30.0587C377.638 30.5084 376.989 30.7334 376.178 30.7334C375.692 30.7334 375.249 30.6507 374.85 30.4854C374.451 30.3201 374.067 30.061 373.698 29.7081L374.557 28.2917ZM379.922 30.5474V23.5654H384.2V25.0963H381.777V26.3076H384.062V27.8052H381.777V30.5474H379.922ZM385.235 30.5474V23.5654H389.513V25.0963H387.09V26.3076H389.375V27.8052H387.09V28.9832H389.513V30.5473L385.235 30.5474ZM390.772 30.5474V23.5654H392.761C393.54 23.5654 394.082 23.6012 394.389 23.6728C394.696 23.7443 394.961 23.8643 395.183 24.0328C395.435 24.2234 395.628 24.4667 395.763 24.7624C395.898 25.0581 395.966 25.3841 395.966 25.74C395.966 26.2806 395.833 26.7202 395.567 27.0587C395.302 27.3974 394.915 27.6222 394.406 27.7337L396.309 30.5473H394.158L392.556 27.8145V30.5473L390.772 30.5474ZM392.556 26.8657H392.908C393.319 26.8657 393.618 26.7958 393.807 26.6558C393.996 26.516 394.091 26.2966 394.091 25.9975C394.091 25.6477 394.003 25.3991 393.826 25.2513C393.65 25.1035 393.353 25.0295 392.937 25.0295H392.556V26.8657Z" fill="#00AFD8"/>
<path d="M368.471 12.1403L369.738 16.9348C369.798 17.1507 369.853 17.3757 369.904 17.6099C369.954 17.8441 370.007 18.1128 370.062 18.4158C370.131 18.0576 370.19 17.7626 370.238 17.5306C370.286 17.2987 370.333 17.1 370.379 16.9348L371.564 12.1403H374.34L371.488 22.2254H368.94L367.693 17.9199C367.647 17.7682 367.571 17.4721 367.465 17.0313C367.419 16.8339 367.383 16.6799 367.355 16.5697C367.332 16.6662 367.3 16.8017 367.259 16.9762C367.153 17.4216 367.073 17.7363 367.018 17.9199L365.791 22.2254H363.236L360.391 12.1403H363.167L364.324 16.9623C364.379 17.2104 364.433 17.4584 364.486 17.7063C364.539 17.9543 364.588 18.2092 364.634 18.4709C364.677 18.2685 364.722 18.0665 364.768 17.8647C364.838 17.5633 364.911 17.2624 364.985 16.9622L366.253 12.1401H368.471V12.1403ZM375.36 22.2254V12.1403H378.136V22.2254H375.36ZM380.354 22.2254V12.1403H383.227C384.352 12.1403 385.136 12.1918 385.579 12.2952C386.022 12.3984 386.405 12.5719 386.726 12.8152C387.089 13.0908 387.368 13.4421 387.563 13.8693C387.758 14.2964 387.856 14.7672 387.856 15.2815C387.856 16.0623 387.664 16.6971 387.281 17.1862C386.897 17.6753 386.338 18.0001 385.603 18.1609L388.352 22.2254H385.245L382.931 18.2782V22.2256H380.354V22.2254ZM382.931 16.9073H383.44C384.033 16.9073 384.466 16.8063 384.739 16.6043C385.012 16.4022 385.149 16.0853 385.149 15.6536C385.149 15.1485 385.021 14.789 384.766 14.5755C384.511 14.362 384.083 14.2551 383.481 14.2551H382.931V16.9073ZM389.399 22.2254V12.1403H395.578V14.3516H392.079V16.1014H395.378V18.2644H392.079V19.966H395.578V22.2254H389.399Z" fill="#006E90"/>
<path d="M346.73 12.1401H359.313V14.1371H346.73V12.1401Z" fill="url(#paint0_linear_2953_920)"/>
<path d="M346.73 16.0166H359.313V18.0136H346.73V16.0166Z" fill="url(#paint1_linear_2953_920)"/>
<path d="M346.73 20.2451H359.313V22.2421H346.73V20.2451Z" fill="url(#paint2_linear_2953_920)"/>
<path d="M397.295 14.5151L400.648 16.9335L397.295 19.3518V14.5151ZM402.395 14.5151L405.748 16.9335L402.395 19.3518V14.5151Z" fill="#006E90"/>
<path d="M487.544 1.85303H428.906C423.683 1.85303 419.449 6.00536 419.449 11.1275V32.9367C419.449 38.0589 423.683 42.2112 428.906 42.2112H487.544C492.766 42.2112 497 38.0589 497 32.9367V11.1275C497 6.00536 492.766 1.85303 487.544 1.85303Z" fill="white"/>
<path d="M429.759 25.3134C429.753 25.1278 429.747 24.9039 429.739 24.6458C429.723 24.3836 429.79 24.0992 429.817 23.7775C429.85 23.4548 429.893 23.1049 430.015 22.748C430.117 22.3879 430.207 21.9926 430.403 21.6246C430.49 21.435 430.578 21.2404 430.67 21.0447C430.767 20.8521 430.9 20.6777 431.016 20.4891C431.244 20.1019 431.539 19.761 431.841 19.4202C432.133 19.0642 432.493 18.793 432.822 18.4793C433.182 18.2232 433.525 17.9267 433.894 17.718C434.256 17.4881 434.614 17.2824 434.966 17.1129C435.313 16.9244 435.658 16.7973 435.972 16.6561C436.458 16.4665 436.889 16.3193 437.245 16.2144C437.096 15.8474 436.969 15.4652 436.874 15.0578C436.775 14.6383 436.691 14.2097 436.683 13.7227C437.149 13.8537 437.54 14.0443 437.92 14.244C438.299 14.4457 438.644 14.6706 438.967 14.9146C439.62 15.3976 440.175 15.9553 440.679 16.5533C441.062 17.006 441.095 17.6383 440.811 18.1214L440.751 18.2202C440.289 18.9977 439.737 19.7207 439.071 20.3681C438.742 20.6928 438.377 20.9963 437.973 21.2757C437.769 21.4128 437.555 21.5459 437.337 21.674C437.111 21.798 436.873 21.912 436.611 22.0128C436.593 21.7325 436.597 21.4663 436.617 21.2091C436.642 20.956 436.675 20.7079 436.714 20.4629C436.8 19.9799 436.924 19.521 437.082 19.0844C437.098 19.037 437.117 18.9926 437.135 18.9462C436.981 18.9654 436.82 18.9866 436.645 19.0118C436.373 19.0703 436.061 19.1106 435.751 19.2014C435.432 19.274 435.106 19.3758 434.774 19.4968C434.427 19.5997 434.116 19.7772 433.762 19.9194C433.452 20.112 433.094 20.2703 432.8 20.5052C432.491 20.7291 432.18 20.955 431.925 21.2343C431.796 21.3695 431.645 21.4935 431.528 21.6377C431.416 21.7859 431.304 21.9352 431.194 22.0794C430.951 22.3607 430.802 22.6864 430.637 22.988C430.457 23.2844 430.347 23.593 430.253 23.8824C430.164 24.1718 430.037 24.434 430 24.6811C429.953 24.9291 429.911 25.1439 429.878 25.3224C429.812 25.6824 429.773 25.8892 429.773 25.8892C429.773 25.8892 429.77 25.6794 429.759 25.3134ZM437.857 27.783C437.515 27.9816 437.175 28.1208 436.865 28.27C436.384 28.4737 435.96 28.633 435.606 28.749C435.767 29.111 435.905 29.4902 436.012 29.8946C436.119 30.311 436.218 30.7366 436.243 31.2216C435.77 31.1057 435.375 30.9262 434.99 30.7386C434.604 30.549 434.251 30.3352 433.922 30.1003C433.257 29.6374 432.685 29.0959 432.163 28.5141C431.767 28.0724 431.714 27.4421 431.984 26.95L432.042 26.8512C432.481 26.0596 433.01 25.3204 433.657 24.6539C433.976 24.318 434.332 24.0044 434.725 23.713C434.927 23.5698 435.133 23.4306 435.348 23.2965C435.57 23.1654 435.805 23.0434 436.064 22.9365C436.089 23.2148 436.093 23.4821 436.08 23.7392C436.062 23.9933 436.039 24.2424 436.008 24.4885C435.936 24.9735 435.825 25.4354 435.681 25.8781C435.665 25.9255 435.646 25.9698 435.632 26.0172C435.784 25.994 435.946 25.9678 436.119 25.9366C436.39 25.871 436.7 25.8216 437.006 25.7208C437.323 25.6391 437.647 25.5281 437.974 25.396C438.318 25.2841 438.624 25.0965 438.971 24.9443C439.277 24.7416 439.632 24.5742 439.916 24.3302C440.218 24.0982 440.522 23.8612 440.767 23.5759C440.897 23.4367 441.041 23.3076 441.157 23.1614C441.263 23.0081 441.371 22.8569 441.475 22.7086C441.71 22.4192 441.85 22.0905 442.004 21.7839C442.177 21.4814 442.276 21.1708 442.36 20.8784C442.44 20.5859 442.559 20.3207 442.589 20.0726C442.629 19.8236 442.662 19.6067 442.691 19.4283C442.752 19.0662 442.781 18.8595 442.781 18.8595C442.781 18.8595 442.797 19.0672 442.816 19.4323C442.826 19.6178 442.838 19.8427 442.855 20.0999C442.878 20.361 442.822 20.6484 442.801 20.9701C442.779 21.2928 442.743 21.6447 442.635 22.0037C442.542 22.3658 442.464 22.7641 442.279 23.1372C442.199 23.3298 442.115 23.5264 442.03 23.7251C441.938 23.9207 441.812 24.0992 441.702 24.2918C441.485 24.6861 441.202 25.034 440.91 25.3839C440.628 25.747 440.275 26.0313 439.957 26.353C439.603 26.6203 439.268 26.9268 438.906 27.1466C438.556 27.3877 438.202 27.6045 437.857 27.783Z" fill="#020288"/>
<path d="M457.829 21.9856H461.669L462.336 24.127H464.697L461.03 13.7227H458.524L454.818 24.1283H457.106L457.829 21.9856ZM459.742 16.0718H459.772L461.06 20.1857H458.408L459.742 16.0718ZM454.187 21.0454C454.187 20.0156 453.854 19.0014 452.579 18.5248C453.013 18.308 453.854 17.8885 453.854 16.3939C453.854 15.3212 453.202 13.7253 450.65 13.7253H445.594V24.1322H450C452.131 24.1322 452.696 23.7699 453.289 23.1868C453.839 22.6531 454.187 21.8674 454.187 21.0454ZM447.682 15.5251H450.175C451.16 15.5251 451.769 15.7848 451.769 16.6393C451.769 17.4678 451.089 17.8002 450.231 17.8002H447.682V15.5251ZM450.347 22.3336H447.682V19.5507H450.449C451.234 19.5507 452.014 19.9026 452.014 20.8117C452.013 21.8674 451.404 22.3336 450.347 22.3336ZM481.428 17.9859L485.92 24.127H483.123L479.906 19.5624L478.892 20.6065V24.127H476.718V13.7227H478.892V17.9535L482.865 13.7227H485.675L481.428 17.9859ZM454.819 29.9057C454.819 28.911 454.58 28.7474 454.142 28.5552C454.67 28.3773 454.967 27.8747 454.967 27.2838C454.967 26.8241 454.709 25.7788 453.29 25.7788H450.595V31.1082H451.688V29.024H452.837C453.662 29.024 453.707 29.307 453.707 30.0317C453.707 30.5797 453.75 30.8576 453.824 31.1069H455.057V30.9679C454.819 30.8783 454.819 30.6835 454.819 29.9057ZM452.989 28.1279H451.687V26.6995H453.074C453.726 26.6995 453.853 27.1124 453.853 27.3968C453.851 27.9214 453.571 28.1279 452.989 28.1279ZM445.595 25.7788H449.93V26.7254H448.316V31.1108H447.205V26.7254H445.595V25.7788ZM457.293 25.7788L455.393 31.1082H456.567L456.937 30.0083H458.903L459.246 31.1082H460.456L458.58 25.7788H457.293ZM457.236 29.0889L457.92 26.9826H457.93L458.595 29.0889H457.236ZM471.497 25.7788H475.289V26.7254H472.611V27.9279H474.956V28.8707H472.611V31.1121H471.497V25.7788ZM464.427 25.7788H465.467V31.1082H464.352L462.178 27.3072H462.161V31.1082H461.124V25.7788H462.295L464.413 29.4888H464.426L464.427 25.7788ZM485.215 29.9057C485.215 28.911 484.974 28.7474 484.538 28.5552C485.063 28.3773 485.366 27.8747 485.366 27.2838C485.366 26.8241 485.105 25.7788 483.687 25.7788H480.993V31.1082H482.087V29.024H483.236C484.058 29.024 484.106 29.307 484.106 30.0317C484.106 30.5797 484.149 30.8576 484.224 31.1069H485.453V30.9679C485.215 30.8783 485.215 30.6835 485.215 29.9057ZM483.389 28.1279H482.085V26.6995H483.47C484.124 26.6995 484.251 27.1124 484.251 27.3968C484.251 27.9214 483.97 28.1279 483.389 28.1279ZM470.646 29.5057C470.646 31.1043 469.011 31.2497 468.546 31.2497C466.601 31.2497 466.27 30.1316 466.27 29.4681H467.335C467.343 29.7654 467.492 30.329 468.466 30.329C468.989 30.329 469.577 30.1992 469.577 29.6421C469.577 29.2239 469.175 29.1149 468.613 28.9785L468.042 28.8434C467.18 28.6461 466.35 28.45 466.35 27.276C466.35 26.6826 466.669 25.6372 468.398 25.6372C470.032 25.6372 470.468 26.7047 470.476 27.3579H469.411C469.381 27.1202 469.292 26.5579 468.318 26.5579C467.897 26.5579 467.389 26.7125 467.389 27.1942C467.389 27.6098 467.732 27.6994 467.955 27.7526L469.251 28.0721C469.977 28.2487 470.646 28.5487 470.646 29.5057ZM477.127 30.1654H480.082V31.1108H476.037V25.7814H479.957V26.7267H477.127V27.8461H479.725V28.7889H477.127V30.1654ZM468.019 24.1322H465.991V13.7266H468.28L472.412 20.9714H472.44V13.7266H474.468V24.1335H472.297L468.049 16.7146H468.022L468.019 24.1322Z" fill="#020288"/>
<path d="M152.073 0H93.2436C88.0738 0 83.8828 4.15233 83.8828 9.2745V31.0837C83.8828 36.2058 88.0738 40.3582 93.2436 40.3582H152.073C157.243 40.3582 161.434 36.2058 161.434 31.0837V9.2745C161.434 4.15233 157.243 0 152.073 0Z" fill="white"/>
<path d="M140.859 20.5203C140.859 26.1513 136.145 30.7536 130.251 30.7536C124.414 30.7536 119.643 26.1513 119.643 20.5203C119.643 14.8894 124.357 10.2871 130.195 10.2871C136.145 10.2871 140.859 14.8894 140.859 20.5203Z" fill="#FFB600"/>
<path d="M125.676 20.534C125.676 26.165 120.961 30.7672 115.067 30.7672C109.23 30.7672 104.459 26.165 104.459 20.534C104.459 14.903 109.174 10.3008 115.011 10.3008C120.961 10.3008 125.676 14.903 125.676 20.534Z" fill="#E92039"/>
<path d="M119.457 23.4528L119.62 22.5783C119.566 22.5783 119.457 22.6298 119.349 22.6298C118.969 22.6298 118.915 22.424 118.969 22.3211L119.294 20.5209H119.892L120.054 19.5436H119.512L119.62 18.9263H118.535C118.535 18.9263 117.883 22.3211 117.883 22.7326C117.883 23.3499 118.263 23.6071 118.752 23.6071C119.077 23.6071 119.349 23.5042 119.457 23.4528ZM119.837 21.8068C119.837 23.247 120.869 23.6071 121.737 23.6071C122.551 23.6071 122.877 23.4528 122.877 23.4528L123.094 22.4755C123.094 22.4755 122.497 22.7326 121.954 22.7326C120.76 22.7326 120.977 21.9096 120.977 21.9096H123.202C123.202 21.9096 123.365 21.241 123.365 20.9838C123.365 20.3151 122.985 19.4921 121.791 19.4921C120.651 19.3892 119.837 20.5209 119.837 21.8068ZM121.737 20.3151C122.334 20.3151 122.225 20.9838 122.225 21.0352H121.031C121.031 20.9838 121.14 20.3151 121.737 20.3151ZM128.63 23.4528C128.63 23.4528 128.033 23.6071 127.599 23.6071C126.296 23.6071 125.645 22.7326 125.645 21.4467C125.645 19.4921 126.893 18.4634 128.142 18.4634C128.739 18.4634 129.39 18.7206 129.39 18.7206L129.227 19.8007C129.227 19.8007 128.793 19.4921 128.25 19.4921C127.49 19.4921 126.839 20.1608 126.839 21.3953C126.839 22.0125 127.165 22.5783 127.925 22.5783C128.305 22.5783 128.847 22.3211 128.847 22.3211L128.63 23.4528ZM113.487 19.3892C112.727 19.3892 112.184 19.595 112.184 19.595L112.021 20.4694C112.021 20.4694 112.51 20.2637 113.215 20.2637C113.595 20.2637 113.921 20.3151 113.921 20.6237C113.921 20.8295 113.867 20.8809 113.867 20.8809C113.867 20.8809 113.541 20.8809 113.378 20.8809C112.455 20.8809 111.424 21.241 111.424 22.424C111.424 23.3499 112.075 23.5556 112.455 23.5556C113.215 23.5556 113.541 23.0927 113.595 23.0927L113.541 23.5042H114.518L114.952 20.6752C114.952 19.4407 113.867 19.3892 113.487 19.3892ZM113.704 21.7039C113.704 21.8582 113.595 22.6812 112.944 22.6812C112.618 22.6812 112.51 22.424 112.51 22.2697C112.51 22.0125 112.673 21.6525 113.487 21.6525C113.65 21.7039 113.704 21.7039 113.704 21.7039ZM115.983 23.5556C115.061 23.5556 114.789 23.4528 114.735 23.3499L114.898 22.424C114.898 22.424 115.386 22.5783 115.875 22.5783C116.146 22.5783 116.526 22.5269 116.526 22.2183C116.526 21.7553 115.169 21.8582 115.169 20.6752C115.169 19.6464 115.983 19.3378 116.798 19.3378C117.449 19.3378 117.829 19.4407 117.829 19.4407L117.666 20.3665C117.666 20.3665 117.069 20.3151 116.906 20.3151C116.526 20.3151 116.309 20.418 116.309 20.6752C116.309 21.1895 117.612 20.9323 117.612 22.2183C117.612 23.6071 116.255 23.5556 115.983 23.5556ZM137.641 18.5663L137.423 19.955C137.423 19.955 136.989 19.4407 136.392 19.4407C135.415 19.4407 134.547 20.5723 134.547 21.9096C134.547 22.7326 134.981 23.6071 135.904 23.6071C136.555 23.6071 136.935 23.1956 136.935 23.1956L136.881 23.5556H137.966L138.78 18.6177L137.641 18.5663ZM137.152 21.2924C137.152 21.8582 136.881 22.5783 136.284 22.5783C135.904 22.5783 135.687 22.2697 135.687 21.7553C135.687 20.9323 136.066 20.418 136.555 20.418C136.935 20.418 137.152 20.6752 137.152 21.2924ZM107.57 23.5042H106.539L107.408 18.5663H108.982L109.036 21.601L110.121 18.5663H111.913L111.044 23.5042H109.904L110.501 19.8007L109.09 23.5042H108.33L108.222 19.8007L107.57 23.5042ZM124.397 23.5042V23.5556H123.202L123.908 19.5436H124.939L124.831 20.1094C124.831 20.1094 125.211 19.4921 125.699 19.4921C125.862 19.4921 125.916 19.4921 125.916 19.4921C125.808 19.7493 125.645 20.0065 125.536 20.6752C124.777 20.418 124.722 21.8068 124.397 23.5042ZM133.515 23.5042V23.5556H132.321L133.027 19.5436H134.058L133.95 20.1094C133.95 20.1094 134.33 19.4921 134.818 19.4921C134.981 19.4921 135.035 19.4921 135.035 19.4921C134.927 19.7493 134.764 20.0065 134.655 20.6752C133.895 20.418 133.841 21.8068 133.515 23.5042ZM131.127 19.3892C130.367 19.3892 129.824 19.595 129.824 19.595L129.662 20.4694C129.662 20.4694 130.15 20.2637 130.856 20.2637C131.236 20.2637 131.561 20.3151 131.561 20.6237C131.561 20.8295 131.507 20.8809 131.507 20.8809C131.507 20.8809 131.181 20.8809 131.019 20.8809C130.096 20.8809 129.065 21.241 129.065 22.424C129.065 23.3499 129.716 23.5556 130.096 23.5556C130.856 23.5556 131.181 23.0927 131.236 23.0927L131.181 23.5042H132.158L132.593 20.6752C132.647 19.4407 131.507 19.3892 131.127 19.3892ZM131.399 21.7039C131.399 21.8582 131.29 22.6812 130.639 22.6812C130.313 22.6812 130.204 22.424 130.204 22.2697C130.204 22.0125 130.367 21.6525 131.181 21.6525C131.344 21.7039 131.344 21.7039 131.399 21.7039Z" fill="white"/>
<defs>
<linearGradient id="paint0_linear_2953_920" x1="346.73" y1="13.1386" x2="359.313" y2="13.1386" gradientUnits="userSpaceOnUse">
<stop stop-color="#41E700" stop-opacity="0"/>
<stop offset="0.736" stop-color="#3ACD00"/>
<stop offset="0.781" stop-color="#36BE00"/>
<stop offset="0.926" stop-color="#299100"/>
<stop offset="1" stop-color="#248000"/>
</linearGradient>
<linearGradient id="paint1_linear_2953_920" x1="346.73" y1="17.0151" x2="359.313" y2="17.0151" gradientUnits="userSpaceOnUse">
<stop stop-color="#41E700" stop-opacity="0"/>
<stop offset="0.736" stop-color="#3ACD00"/>
<stop offset="0.781" stop-color="#36BE00"/>
<stop offset="0.926" stop-color="#299100"/>
<stop offset="1" stop-color="#248000"/>
</linearGradient>
<linearGradient id="paint2_linear_2953_920" x1="346.73" y1="21.2436" x2="359.313" y2="21.2436" gradientUnits="userSpaceOnUse">
<stop stop-color="#41E700" stop-opacity="0"/>
<stop offset="0.736" stop-color="#3ACD00"/>
<stop offset="0.781" stop-color="#36BE00"/>
<stop offset="0.926" stop-color="#299100"/>
<stop offset="1" stop-color="#248000"/>
</linearGradient>
</defs>
</svg>