<?xml version="1.0" encoding="UTF-8"?>
<svg xmlns="http://www.w3.org/2000/svg" width="123" height="70" viewBox="0 0 123 70" fill="none"><path d="M24.8221 7.81077V10.8684H8.50568C8.13708 10.8684 7.78357 11.0148 7.52293 11.2754C7.26229 11.5361 7.11586 11.8896 7.11586 12.2582C7.11586 12.6268 7.26229 12.9803 7.52293 13.2409C7.78357 13.5016 8.13708 13.648 8.50568 13.648H24.8221V16.7056H15.6215C15.2529 16.7056 14.8994 16.852 14.6388 17.1127C14.3782 17.3733 14.2317 17.7268 14.2317 18.0954C14.2317 18.464 14.3782 18.8175 14.6388 19.0782C14.8994 19.3388 15.2529 19.4852 15.6215 19.4852H24.8221V57.8442C24.8221 58.3971 25.0418 58.9274 25.4327 59.3183C25.8237 59.7093 26.354 59.9289 26.9069 59.9289H34.4119C34.8877 62.6746 36.3177 65.164 38.4498 66.9583C40.5818 68.7526 43.2789 69.7365 46.0655 69.7365C48.8521 69.7365 51.5492 68.7526 53.6812 66.9583C55.8132 65.164 57.2432 62.6746 57.7191 59.9289H89.9629C90.4387 62.6746 91.8687 65.164 94.0008 66.9583C96.1328 68.7526 98.8299 69.7365 101.616 69.7365C104.403 69.7365 107.1 68.7526 109.232 66.9583C111.364 65.164 112.794 62.6746 113.27 59.9289H120.511C121.064 59.9289 121.594 59.7093 121.985 59.3183C122.376 58.9274 122.596 58.3971 122.596 57.8442V39.0122C122.595 38.5613 122.449 38.1227 122.179 37.7613L107.933 18.9293C107.739 18.6704 107.487 18.4602 107.198 18.3155C106.908 18.1708 106.589 18.0954 106.265 18.0954H84.8066V2.08473C84.8066 1.53182 84.587 1.00156 84.196 0.610603C83.8051 0.219641 83.2748 0 82.7219 0H26.9208C26.3678 0 25.8376 0.219641 25.4466 0.610603C25.0557 1.00156 24.836 1.53182 24.836 2.08473V5.03114H1.38982C1.02121 5.03114 0.667709 5.17756 0.407068 5.43821C0.146426 5.69885 0 6.05235 0 6.42096C0 6.78956 0.146426 7.14306 0.407068 7.40371C0.667709 7.66435 1.02121 7.81077 1.38982 7.81077H24.8221ZM101.61 65.5716C100.095 65.5715 98.6135 65.123 97.3531 64.2824C96.0927 63.4418 95.1094 62.2469 94.5272 60.8483C93.9449 59.4497 93.7898 57.9101 94.0813 56.4234C94.3729 54.9368 95.098 53.5697 96.1654 52.4946C97.2328 51.4195 98.5945 50.6845 100.079 50.3822C101.564 50.08 103.104 50.224 104.507 50.7961C105.91 51.3683 107.112 52.3429 107.961 53.5972C108.811 54.8515 109.27 56.3293 109.281 57.8442C109.287 58.8558 109.093 59.8586 108.71 60.795C108.327 61.7314 107.763 62.5829 107.05 63.3008C106.337 64.0188 105.49 64.5889 104.556 64.9786C103.622 65.3682 102.621 65.5698 101.61 65.5716ZM84.8066 22.1954H105.223L118.412 39.6932V55.8151H113.256C112.78 53.0694 111.35 50.5799 109.218 48.7856C107.086 46.9913 104.389 46.0074 101.603 46.0074C98.816 46.0074 96.1189 46.9913 93.9869 48.7856C91.8548 50.5799 90.4248 53.0694 89.949 55.8151H84.8066V22.1954ZM46.0585 65.5716C44.5436 65.5715 43.0625 65.123 41.8021 64.2824C40.5418 63.4418 39.5584 62.2469 38.9762 60.8483C38.3939 59.4497 38.2388 57.9101 38.5303 56.4234C38.8219 54.9368 39.547 53.5697 40.6144 52.4946C41.6818 51.4195 43.0436 50.6845 44.5281 50.3822C46.0126 50.08 47.5533 50.224 48.9561 50.7961C50.3588 51.3683 51.5608 52.3429 52.4104 53.5972C53.2601 54.8515 53.7193 56.3293 53.7303 57.8442C53.7358 58.8558 53.5415 59.8586 53.1586 60.795C52.7757 61.7314 52.2117 62.5829 51.4989 63.3008C50.7862 64.0188 49.9387 64.5889 49.0051 64.9786C48.0715 65.3682 47.0702 65.5698 46.0585 65.5716ZM28.9916 4.16945H80.6372V55.8151H57.7052C57.2293 53.0694 55.7993 50.5799 53.6673 48.7856C51.5353 46.9913 48.8382 46.0074 46.0516 46.0074C43.265 46.0074 40.5679 46.9913 38.4359 48.7856C36.3038 50.5799 34.8738 53.0694 34.398 55.8151H28.9777L28.9916 4.16945Z" fill="#005AA2"/><path d="M46.0585 52.8967C45.0689 52.8967 44.1016 53.1902 43.2788 53.7399C42.456 54.2897 41.8147 55.0711 41.436 55.9854C41.0573 56.8996 40.9583 57.9056 41.1513 58.8762C41.3444 59.8467 41.8209 60.7382 42.5206 61.438C43.2203 62.1377 44.1119 62.6142 45.0824 62.8073C46.053 63.0003 47.059 62.9012 47.9732 62.5226C48.8874 62.1439 49.6689 61.5026 50.2186 60.6798C50.7684 59.857 51.0619 58.8896 51.0619 57.9001C51.0582 56.5742 50.5299 55.3037 49.5924 54.3662C48.6548 53.4287 47.3844 52.9004 46.0585 52.8967ZM46.0585 60.1238C45.6187 60.1238 45.1888 59.9934 44.8231 59.749C44.4574 59.5047 44.1724 59.1574 44.0041 58.751C43.8358 58.3447 43.7917 57.8976 43.8775 57.4662C43.9633 57.0349 44.1751 56.6387 44.4861 56.3277C44.7971 56.0167 45.1933 55.8049 45.6247 55.7191C46.056 55.6333 46.5032 55.6773 46.9095 55.8456C47.3158 56.0139 47.6631 56.2989 47.9075 56.6646C48.1518 57.0303 48.2822 57.4603 48.2822 57.9001C48.2822 58.4898 48.0479 59.0554 47.6309 59.4725C47.2139 59.8895 46.6483 60.1238 46.0585 60.1238Z" fill="#FFCE00"/><path d="M101.61 52.8967C100.62 52.8967 99.6526 53.1902 98.8298 53.7399C98.007 54.2897 97.3657 55.0711 96.987 55.9854C96.6084 56.8996 96.5093 57.9056 96.7023 58.8762C96.8954 59.8467 97.3719 60.7382 98.0716 61.438C98.7714 62.1377 99.6629 62.6142 100.633 62.8073C101.604 63.0003 102.61 62.9012 103.524 62.5226C104.438 62.1439 105.22 61.5026 105.77 60.6798C106.319 59.857 106.613 58.8896 106.613 57.9001C106.609 56.5742 106.081 55.3037 105.143 54.3662C104.206 53.4287 102.935 52.9004 101.61 52.8967ZM101.61 60.1238C101.17 60.1238 100.74 59.9934 100.374 59.749C100.008 59.5047 99.7234 59.1574 99.5551 58.751C99.3868 58.3447 99.3428 57.8976 99.4286 57.4662C99.5144 57.0349 99.7261 56.6387 100.037 56.3277C100.348 56.0167 100.744 55.8049 101.176 55.7191C101.607 55.6333 102.054 55.6773 102.461 55.8456C102.867 56.0139 103.214 56.2989 103.458 56.6646C103.703 57.0303 103.833 57.4603 103.833 57.9001C103.833 58.4898 103.599 59.0554 103.182 59.4725C102.765 59.8895 102.199 60.1238 101.61 60.1238Z" fill="#FFCE00"/><path d="M54.0222 45.0721C57.793 45.0694 61.4783 43.9487 64.6122 41.8518C67.7461 39.7549 70.188 36.7758 71.6291 33.2913C73.0702 29.8068 73.4458 25.9733 72.7085 22.2753C71.9712 18.5773 70.154 15.181 67.4867 12.5156C64.8194 9.85026 61.4217 8.03556 57.7232 7.30093C54.0247 6.5663 50.1914 6.94473 46.708 8.38837C43.2245 9.83201 40.2473 12.276 38.1526 15.4115C36.058 18.547 34.94 22.2331 34.94 26.0038C34.9474 31.0612 36.9606 35.9091 40.538 39.4839C44.1154 43.0587 48.9648 45.0685 54.0222 45.0721ZM54.0222 9.70129C57.2426 9.70403 60.3899 10.6613 63.0665 12.4522C65.743 14.2431 67.8286 16.7872 69.0597 19.763C70.2908 22.7388 70.6122 26.0127 69.9833 29.1711C69.3543 32.3295 67.8033 35.2306 65.5261 37.5078C63.2489 39.7849 60.3479 41.336 57.1895 41.9649C54.0311 42.5939 50.7571 42.2725 47.7813 41.0413C44.8055 39.8102 42.2614 37.7246 40.4706 35.0481C38.6797 32.3716 37.7224 29.2242 37.7196 26.0038C37.727 21.6837 39.4474 17.5428 42.5035 14.4892C45.5596 11.4357 49.702 9.71886 54.0222 9.71518V9.70129Z" fill="#FFCE00"/><path d="M54.0222 28.0881H60.5265C61.0794 28.0881 61.6097 27.8684 62.0006 27.4775C62.3916 27.0865 62.6112 26.5562 62.6112 26.0033C62.6112 25.4504 62.3916 24.9202 62.0006 24.5292C61.6097 24.1382 61.0794 23.9186 60.5265 23.9186H56.1069V12.9946C56.1069 12.4417 55.8873 11.9115 55.4963 11.5205C55.1053 11.1296 54.5751 10.9099 54.0222 10.9099C53.4693 10.9099 52.939 11.1296 52.5481 11.5205C52.1571 11.9115 51.9375 12.4417 51.9375 12.9946V26.0033C51.9375 26.2771 51.9914 26.5482 52.0961 26.8011C52.2009 27.054 52.3545 27.2839 52.5481 27.4775C52.7416 27.671 52.9715 27.8246 53.2244 27.9294C53.4773 28.0341 53.7484 28.0881 54.0222 28.0881Z" fill="#FFCE00"/></svg>