<svg width="44" height="41" viewBox="0 0 44 41" fill="none" xmlns="http://www.w3.org/2000/svg">
<path d="M13.5938 11.6602V4.7868C13.5938 3.87533 13.9015 3.00119 14.4493 2.35668C14.9972 1.71218 15.7402 1.3501 16.5149 1.3501H39.8845C40.6593 1.3501 41.4023 1.71218 41.9501 2.35668C42.4979 3.00119 42.8057 3.87533 42.8057 4.7868V35.7171C42.8057 36.6286 42.4979 37.5027 41.9501 38.1472C41.4023 38.7917 40.6593 39.1538 39.8845 39.1538H16.5149C15.7402 39.1538 14.9972 38.7917 14.4493 38.1472C13.9015 37.5027 13.5938 36.6286 13.5938 35.7171V28.8437" stroke="white" stroke-width="2" stroke-linecap="round" stroke-linejoin="round"/>
<path fill-rule="evenodd" clip-rule="evenodd" d="M31.7692 19.3036L23.1213 10.801V17.6031H16.2029C7.61904 17.6031 0.636719 24.468 0.636719 32.9077V39.7097H4.09588V32.9077C4.09588 26.3454 9.5285 21.0041 16.2029 21.0041H23.1213V27.8062L31.7692 19.3036Z" fill="#FFD117"/>
</svg>
