<svg width="56" height="57" viewBox="0 0 56 57" fill="none" xmlns="http://www.w3.org/2000/svg">
<path d="M26.1379 24.3306C25.3923 24.6599 24.8209 25.478 24.8209 26.412C24.8209 28.0079 24.428 29.6979 23.7953 31.097C23.1625 32.4962 22.2732 33.586 21.4476 34.0626C20.9421 34.3545 19.8779 34.7222 18.9079 35.4317C18.7577 35.5416 18.6097 35.6653 18.4667 35.7988C18.0268 34.9943 17.171 34.4449 16.1965 34.4449H13.4614C13.1024 33.4443 12.1384 32.7204 11.0212 32.7204H4.12127C2.70308 32.7204 1.53613 33.8856 1.53613 35.3037V54.271C1.53613 55.6891 2.70308 56.8627 4.12127 56.8627H11.0212C12.1366 56.8627 13.0993 56.1362 13.4598 55.1366H16.1965C17.2235 55.1366 18.1169 54.5255 18.5324 53.6496C19.0912 54.0411 19.7685 54.271 20.4978 54.271H36.0305C36.9911 54.271 37.804 53.8075 38.3344 53.1899C38.8647 52.5722 39.1792 51.8269 39.4223 51.0949C40.0688 49.148 40.9356 46.4548 41.6437 44.0691C41.9977 42.8763 42.3126 41.7569 42.5413 40.8476C42.7701 39.9383 42.9236 39.3189 42.9236 38.7543C42.9236 36.8565 41.3713 35.3037 39.4796 35.3037H31.7141V29.0038C31.7141 26.5106 30.1638 24.8545 28.5445 24.3121C28.1397 24.1765 27.7239 24.099 27.3168 24.0965C26.9097 24.094 26.5107 24.1659 26.1379 24.3306ZM27.9904 25.9422C28.958 26.2663 29.9895 27.2032 29.9895 29.0038V36.1693C29.9904 36.6462 30.3783 37.0317 30.8552 37.0299H39.4796C40.4422 37.0299 41.2041 37.7871 41.2041 38.7543C41.2041 38.8362 41.0861 39.5587 40.8673 40.4282C40.6486 41.2978 40.3381 42.3934 39.9882 43.5723C39.2883 45.9302 38.4285 48.6226 37.787 50.5543C37.5788 51.1814 37.3172 51.7345 37.0292 52.07C36.7411 52.4055 36.497 52.5533 36.0305 52.5533H20.4978C19.5352 52.5533 18.7799 51.8004 18.7799 50.8288V39.0524C18.7799 37.8778 19.2357 37.3304 19.9251 36.8261C20.6146 36.3218 21.5369 36.0062 22.3132 35.558C23.6182 34.8047 24.6333 33.4345 25.3682 31.8094C26.1032 30.1843 26.5455 28.2847 26.5455 26.412C26.5455 26.0528 26.6142 26.0093 26.8384 25.9102C26.9505 25.8606 27.1174 25.8276 27.3168 25.8277C27.5162 25.8278 27.7485 25.8611 27.9904 25.9422ZM4.12127 34.4449H11.0212C11.5138 34.4449 11.8868 34.8111 11.8868 35.3037V54.271C11.8868 54.7636 11.5138 55.1366 11.0212 55.1366H4.12127C3.62867 55.1366 3.26236 54.7636 3.26236 54.271V35.3037C3.26236 34.8111 3.62867 34.4449 4.12127 34.4449ZM13.6114 36.1693H16.1965C16.6891 36.1693 17.0554 36.5356 17.0554 37.0282V39.0524V52.5533C17.0554 53.0459 16.6891 53.4121 16.1965 53.4121H13.6114V36.1693Z" fill="#FFD117"/>
<circle cx="7" cy="51" r="2" fill="white"/>
<path d="M26.9634 0.412591L25.0637 3.49437L21.485 4.31113C20.8446 4.45742 20.5941 5.21902 21.0269 5.70382L23.4318 8.42522L23.1186 12.0072C23.0619 12.647 23.7199 13.1166 24.3245 12.8677L27.7113 11.4666L31.098 12.8677C31.7031 13.1184 32.363 12.6481 32.3056 12.0072L31.9924 8.42522L34.3973 5.70382C34.83 5.21902 34.5795 4.45743 33.9392 4.31113L30.3554 3.49437L28.4557 0.412591C28.2983 0.157053 28.016 0.000607622 27.7113 1.44811e-06C27.4052 -0.000549323 27.1214 0.156042 26.9634 0.412591ZM27.7112 2.50584L29.0551 4.68667C29.1767 4.88322 29.3739 5.02346 29.6025 5.07568L32.132 5.6533L30.4344 7.57647C30.2796 7.75089 30.2037 7.97939 30.2239 8.20966L30.4478 10.7475L28.0479 9.75729C27.8325 9.66884 27.5897 9.66884 27.3742 9.75729L24.976 10.7475L25.1999 8.20966C25.2195 7.97938 25.1442 7.75091 24.9894 7.57647L23.2868 5.6533L25.8214 5.07568C26.0498 5.02347 26.2472 4.8832 26.3687 4.68667L27.7112 2.50584ZM14.0158 4.72035L12.7191 6.76813L10.2754 7.31207C9.629 7.45648 9.3746 8.20398 9.8089 8.68288L11.4526 10.4915L11.2388 12.8761C11.1837 13.5074 11.8515 13.9686 12.4632 13.7215L14.7738 12.7936L17.0844 13.7215C17.6955 13.9669 18.3616 13.5063 18.3071 12.8761L18.0933 10.4915L19.737 8.68288C20.1714 8.20294 19.915 7.45466 19.2671 7.31207L16.8268 6.76813L15.53 4.72035C15.37 4.46813 15.0831 4.3142 14.7738 4.3145C14.4642 4.31364 14.1763 4.46764 14.0158 4.72035ZM39.8925 4.72035L38.5957 6.76813L36.152 7.31207C35.5056 7.45648 35.2513 8.20399 35.6855 8.68288L37.3293 10.4915L37.1155 12.8761C37.0604 13.5074 37.7282 13.9686 38.3398 13.7215L40.6504 12.7936L42.9594 13.7215C43.571 13.9685 44.2389 13.5074 44.1837 12.8761L43.97 10.4915L45.6137 8.68288C46.0481 8.20294 45.7916 7.45466 45.1438 7.31207L42.7035 6.76813L41.4067 4.72035C41.2467 4.46813 40.9595 4.3142 40.6504 4.3145C40.3404 4.31364 40.053 4.46764 39.8925 4.72035ZM14.7737 6.78497L15.5063 7.9419C15.6301 8.13647 15.8312 8.27497 16.0637 8.32586L17.443 8.63573L16.5134 9.65962C16.358 9.83173 16.282 10.0564 16.3029 10.2827L16.4241 11.6266L15.1172 11.1028C14.8976 11.0144 14.6498 11.0144 14.4301 11.1028L13.1232 11.6266L13.2428 10.2827C13.2624 10.056 13.1855 9.83124 13.029 9.65962L12.1027 8.63573L13.4838 8.32586C13.7158 8.27456 13.9161 8.13612 14.0395 7.9419L14.7737 6.78497ZM40.6504 6.78497L41.383 7.9419C41.5068 8.13647 41.7079 8.27497 41.9404 8.32586L43.3197 8.63573L42.3901 9.65962C42.2346 9.83173 42.1587 10.0564 42.1795 10.2827L42.2991 11.6266L40.9922 11.1028C40.7729 11.0148 40.526 11.0148 40.3068 11.1028L38.9999 11.6266L39.1195 10.2827C39.1391 10.056 39.0622 9.83123 38.9057 9.65962L37.9795 8.63573L39.3588 8.32586C39.5915 8.27495 39.7925 8.13645 39.9162 7.9419L40.6504 6.78497ZM3.66855 8.16251L2.67491 9.70172L0.807209 10.1093C0.15492 10.2526 -0.101336 10.9939 0.337326 11.4683L1.59201 12.8273L1.4271 14.6174C1.36975 15.2436 2.04358 15.7024 2.66158 15.4577L4.42992 14.7589L6.19656 15.4577C6.81456 15.7024 7.48852 15.2436 7.43103 14.6174L7.26776 12.8273L8.52244 11.4683C8.96113 10.9939 8.70494 10.2527 8.05256 10.1093L6.18486 9.70172L5.19122 8.16251C5.0299 7.91297 4.74138 7.76036 4.42992 7.76003C4.11836 7.76036 3.82977 7.91294 3.66855 8.16251ZM50.2314 8.16251L49.2394 9.70172L47.37 10.1093C46.7178 10.2526 46.4615 10.9939 46.9002 11.4683L48.1565 12.8273L47.9916 14.6174C47.9343 15.2436 48.6081 15.7024 49.2261 15.4577L50.9928 14.7589L52.7611 15.4577C53.3791 15.7024 54.053 15.2436 53.9955 14.6174L53.8306 12.8273L55.087 11.4683C55.5257 10.9939 55.2695 10.2527 54.6171 10.1093L52.7478 9.70172L51.7558 8.16251C51.5942 7.91248 51.3049 7.75981 50.9927 7.76003C50.681 7.76036 50.3926 7.91297 50.2314 8.16251ZM4.42979 10.2103L4.85082 10.8654C4.97531 11.0579 5.17756 11.1951 5.41163 11.246L6.20989 11.4211L5.67433 12.0021C5.5166 12.1719 5.43903 12.3942 5.45891 12.6185L5.528 13.3813L4.77521 13.0833C4.5536 12.9954 4.30314 12.9954 4.08137 13.0833L3.33023 13.3813L3.39932 12.6185C3.41888 12.3944 3.34262 12.1722 3.18553 12.0021L2.64828 11.4211L3.44488 11.246C3.67953 11.1955 3.8825 11.0583 4.00739 10.8654L4.42979 10.2103ZM50.9926 10.2103L51.4153 10.8654C51.5395 11.0576 51.7409 11.1948 51.9745 11.246L52.7744 11.4211L52.2372 12.0021C52.0801 12.1722 52.0032 12.3944 52.0234 12.6185L52.0925 13.3813L51.338 13.0833C51.1167 12.9959 50.8671 12.9959 50.6458 13.0833L49.8947 13.3813L49.9638 12.6185C49.9833 12.3942 49.9058 12.1719 49.7484 12.0021L49.2128 11.4211L50.0094 11.246C50.244 11.1955 50.447 11.0583 50.5719 10.8654L50.9926 10.2103ZM27.7112 16.3722C27.2376 16.374 26.8541 16.7575 26.8523 17.231V19.8211C26.8532 20.2953 27.2369 20.6798 27.7112 20.6816C28.1881 20.6835 28.5759 20.2979 28.5768 19.8211V17.231C28.575 16.7548 28.1874 16.3703 27.7112 16.3722ZM21.5624 17.9821C21.333 17.9821 21.1129 18.0737 20.9511 18.2364C20.6167 18.5727 20.6167 19.116 20.9511 19.4523L22.7851 21.2862C23.1214 21.6206 23.6647 21.6206 24.001 21.2862C24.3399 20.9491 24.3399 20.4007 24.001 20.0636L22.1738 18.2364C22.0118 18.0737 21.7919 17.9821 21.5624 17.9821ZM33.8145 17.9838C33.601 17.9949 33.3994 18.085 33.2486 18.2364L31.423 20.0636C31.0841 20.4007 31.0841 20.9491 31.423 21.2862C31.7599 21.624 32.3071 21.624 32.644 21.2862L34.4713 19.4523C34.8057 19.116 34.8057 18.5728 34.4713 18.2364C34.2982 18.0627 34.0594 17.9708 33.8145 17.9838Z" fill="white"/>
</svg>
