<?xml version="1.0" encoding="UTF-8"?>
<svg xmlns="http://www.w3.org/2000/svg" width="98" height="106" viewBox="0 0 98 106" fill="none"><path fill-rule="evenodd" clip-rule="evenodd" d="M31.4105 92.9007L36.065 87.1089C36.3131 86.837 36.4697 86.4941 36.5128 86.1284C36.5558 85.7628 36.4831 85.3929 36.3048 85.0708C36.0183 84.5721 35.5553 84.199 35.0072 84.0251C34.6539 83.9208 34.2768 83.9299 33.9289 84.0513C33.5811 84.1726 33.2802 84.4001 33.0685 84.7016L28.4141 90.4934C28.166 90.7651 28.0094 91.1079 27.9664 91.4733C27.9233 91.8387 27.996 92.2085 28.1742 92.5304C28.4594 93.03 28.9223 93.4037 29.4707 93.5772C29.8242 93.6816 30.2015 93.6725 30.5495 93.5512C30.8975 93.4298 31.1987 93.2023 31.4105 92.9007ZM3.9659 77.4265L13.2759 81.5227C13.4087 81.5799 13.5587 81.5827 13.6937 81.5305C13.7596 81.5047 13.8198 81.4661 13.8708 81.417C13.9219 81.3678 13.9627 81.3091 13.991 81.2442L26.755 52.2245C26.7838 52.1593 26.7995 52.089 26.8011 52.0177C26.8026 51.9464 26.7901 51.8755 26.7643 51.8091C26.7384 51.7427 26.6996 51.682 26.6502 51.6305C26.6009 51.5791 26.5418 51.5379 26.4765 51.5094L17.1676 47.4198C17.102 47.3908 17.0313 47.375 16.9596 47.3735C16.8879 47.372 16.8166 47.3847 16.7498 47.4109C16.6838 47.4366 16.6235 47.4751 16.5724 47.5242C16.5214 47.5734 16.4806 47.6322 16.4525 47.6972L3.68626 76.7069C3.62874 76.8397 3.62557 76.9897 3.67742 77.1247C3.73001 77.258 3.83338 77.365 3.9648 77.4221L3.9659 77.4265ZM39.1974 98.4471C39.1489 99.0455 39.3154 99.6417 39.6671 100.128C39.9022 100.483 40.2167 100.779 40.5856 100.992C40.9068 101.177 41.2767 101.262 41.6467 101.234C42.0452 101.162 42.4251 101.01 42.7634 100.787C43.1017 100.564 43.3914 100.276 43.6153 99.9382L44.5061 98.8329C44.8563 98.4344 45.0565 97.9262 45.072 97.396C45.0534 96.9064 44.8822 96.435 44.5824 96.0475C44.2491 95.6013 43.8156 95.2397 43.3168 94.9919C42.9756 94.8112 42.5975 94.711 42.2115 94.699L39.1952 98.4571L39.1974 98.4471ZM40.4254 92.6995L36.9989 96.9704C36.9619 97.0107 36.9272 97.0532 36.895 97.0975C36.6452 97.3981 36.3087 97.6143 35.9315 97.7166C35.5543 97.8189 35.1547 97.8022 34.7872 97.669C34.4756 97.5661 34.1848 97.4085 33.9284 97.2036C33.6799 97.0105 33.4689 96.7734 33.3061 96.504C33.1204 96.2039 33.0364 95.852 33.0664 95.5004C33.0965 95.1488 33.2391 94.8162 33.473 94.552L38.1274 88.7602C38.3151 88.4918 38.5814 88.2881 38.8896 88.1773C39.1978 88.0664 39.5328 88.0539 39.8484 88.1413C40.1227 88.2256 40.3762 88.3669 40.5923 88.5558C40.8317 88.7612 41.0268 89.0132 41.1659 89.2963C41.3882 89.8442 41.447 90.4446 41.3354 91.0252C41.2238 91.6058 40.9465 92.1416 40.537 92.568C40.4973 92.6094 40.4593 92.6533 40.4254 92.6995ZM81.9372 76.55C81.9577 76.5958 81.9758 76.6426 81.9913 76.6904L83.8018 81.3404C83.8564 81.4737 83.9609 81.5804 84.093 81.6378C84.2252 81.6952 84.3745 81.6987 84.5092 81.6476L93.9872 77.967C94.1203 77.9122 94.2267 77.8076 94.2839 77.6755C94.3411 77.5434 94.3445 77.3941 94.2933 77.2596L82.8446 47.8155C82.82 47.764 82.7982 47.7113 82.7794 47.6574C82.7209 47.5493 82.6273 47.4643 82.5141 47.4165C82.4006 47.3658 82.2732 47.3549 82.1527 47.3855C82.1015 47.4076 82.0491 47.4268 81.9957 47.443L72.6173 51.0905C72.5514 51.1169 72.4914 51.1561 72.4408 51.2058C72.3901 51.2555 72.3498 51.3147 72.3221 51.3801C72.2639 51.5121 72.2595 51.6616 72.31 51.7968L73.1688 54.0074C73.1776 54.0284 73.1865 54.0505 73.1942 54.0726V54.0792L81.9349 76.5533L81.9372 76.55ZM24.3963 84.7779L26.3615 82.3318C26.6663 81.8495 27.0918 81.4552 27.5959 81.1878C28.0999 80.9205 28.665 80.7894 29.2353 80.8076C29.5653 80.8497 29.8813 80.9665 30.1593 81.1491C30.4244 81.3194 30.6489 81.5458 30.817 81.8123C30.9504 82.0038 31.0322 82.2265 31.0545 82.4588C31.0768 82.6912 31.0387 82.9253 30.9441 83.1387L26.5638 88.5779C26.2148 88.664 25.8467 88.6249 25.5237 88.4673C25.1268 88.2833 24.7789 88.0084 24.5079 87.6649C24.2266 87.3239 24.0317 86.9201 23.9398 86.4877C23.8817 86.2075 23.8856 85.9179 23.9513 85.6393C24.017 85.3607 24.1428 85.0999 24.32 84.8751C24.3465 84.8442 24.372 84.811 24.3963 84.7779ZM42.9057 59.9108C43.0707 59.7494 43.2354 59.5891 43.3997 59.43C44.6343 58.2329 45.8502 57.0856 46.7886 56.2655C47.4273 55.6072 48.199 55.0925 49.0522 54.7557C50.0519 54.5785 51.0766 54.5984 52.0686 54.8142C53.1739 54.9668 54.6583 55.2188 56.2533 55.4885C59.1591 55.9803 62.4264 56.533 64.8481 56.7209C66.3787 56.8675 67.9216 56.8244 69.4417 56.5927C70.0302 56.4937 70.6114 56.3556 71.1815 56.1793L78.9816 76.2339C76.9445 77.0551 76.404 78.5329 75.7762 80.2483C75.5183 81.1798 75.079 82.0511 74.4836 82.8124C73.8882 83.5738 73.1485 84.2101 72.3067 84.685L50.3189 67.0245C49.6357 66.408 48.7802 66.0153 47.8674 65.8993C47.3901 65.8441 46.9065 65.8915 46.4491 66.0383C45.9916 66.1851 45.5707 66.4279 45.2146 66.7504C44.6277 67.346 44.2496 68.1158 44.137 68.9444L44.1104 69.0549C44.0026 69.5095 43.9196 69.9696 43.8617 70.4332C43.7987 70.8754 43.7291 71.3495 43.6241 71.8259C43.4871 72.4529 43.2948 73.0666 43.0494 73.6596C42.8473 74.1539 42.59 74.6237 42.2823 75.06C41.9415 75.5358 41.5243 75.9518 41.0476 76.2913C40.684 76.5587 40.2671 76.7446 39.8252 76.8363C39.4157 76.8949 38.9986 76.8712 38.5983 76.7666C38.2209 76.6729 37.8513 76.5498 37.493 76.3986C37.3084 76.3245 37.6732 76.4704 37.6378 75.3596V75.3143C37.5626 73.2971 37.4167 69.2826 37.3935 67.2069C37.3343 66.6475 37.3873 66.082 37.5494 65.5434C37.9533 64.8998 38.446 64.3164 39.0128 63.8103C39.9622 62.8321 41.3616 61.4217 42.804 60.0114C42.836 59.9826 42.867 59.9528 42.8968 59.9207L42.9057 59.9108ZM67.8578 93.313C67.8236 93.4556 67.7827 93.5959 67.7362 93.7352C67.3182 94.9657 66.4794 96.0091 65.3676 96.6819C64.73 97.0923 63.9947 97.3256 63.2371 97.3579C62.4796 97.3901 61.7271 97.2201 61.0569 96.8654C61.0227 97.0058 60.9818 97.1451 60.9364 97.2832C60.5187 98.5136 59.6798 99.5568 58.5678 100.229C57.679 100.786 56.6219 101.01 55.5835 100.863C55.5435 101.201 55.4695 101.535 55.3624 101.858C54.9436 103.088 54.105 104.131 52.9937 104.804C52.2213 105.304 51.3083 105.542 50.39 105.482C49.4718 105.422 48.5972 105.068 47.8961 104.472L45.1141 102.236C44.2672 103.155 43.1166 103.737 41.8744 103.874C40.9829 103.945 40.0907 103.746 39.3145 103.302C38.5855 102.886 37.9627 102.307 37.4952 101.61C37.2086 101.187 36.9807 100.727 36.8177 100.242C35.887 100.519 34.8932 100.498 33.9748 100.184C33.3643 99.9854 32.7937 99.6808 32.2892 99.2838C31.7833 98.8863 31.3547 98.3993 31.0248 97.8469C30.7347 97.364 30.5368 96.8315 30.4412 96.2763C29.8561 96.3305 29.266 96.2689 28.7048 96.095C27.5027 95.7262 26.4871 94.9116 25.8663 93.8181C25.4018 93.0163 25.208 92.086 25.3137 91.1654C25.0144 91.0976 24.7227 91.0002 24.4427 90.8747C23.6592 90.5135 22.9707 89.9746 22.4319 89.3007C21.8932 88.6269 21.5189 87.8367 21.339 86.9929C21.1241 85.9578 21.2806 84.88 21.7811 83.9489C21.2199 82.8052 20.4687 81.7651 19.5595 80.8728C18.9236 80.4165 18.1817 80.13 17.4042 80.0405L16.4094 82.3042C16.0663 83.0754 15.4323 83.6798 14.6456 83.9856C13.8588 84.2914 12.9831 84.2738 12.2092 83.9367L2.89929 79.846C2.12805 79.5029 1.52362 78.869 1.21763 78.0823C0.911652 77.2956 0.928911 76.4199 1.26565 75.6458L14.0319 46.6306C14.3749 45.8593 15.0089 45.255 15.7957 44.9492C16.5824 44.6434 17.4582 44.6609 18.232 44.9981L27.542 49.0899C28.3134 49.4327 28.918 50.0666 29.224 50.8534C29.5301 51.6402 29.5126 52.516 29.1756 53.29L28.7545 54.2461C30.3899 55.2342 32.1401 56.0185 33.966 56.5816C36.4187 57.1707 38.9215 57.5274 41.4411 57.6471L41.5517 57.5366C42.8029 56.3208 44.0519 55.148 45.0444 54.2793C45.9686 53.3456 47.0963 52.6385 48.3393 52.2135C49.6835 51.9217 51.0741 51.9171 52.4201 52.2002C53.6437 52.3693 55.1115 52.618 56.6877 52.8844C59.5294 53.3652 62.7237 53.9057 65.0448 54.0869C66.3647 54.2161 67.6955 54.1831 69.0073 53.9886C69.4176 53.9196 69.8236 53.827 70.2232 53.7111L69.8507 52.754C69.6995 52.3642 69.6265 51.9484 69.636 51.5304C69.6454 51.1124 69.7372 50.7004 69.9059 50.3178C70.0747 49.9353 70.3171 49.5897 70.6194 49.3009C70.9217 49.0121 71.278 48.7856 71.6678 48.6345L81.1491 44.9417C81.5388 44.7905 81.9545 44.7175 82.3724 44.727C82.7903 44.7365 83.2023 44.8282 83.5847 44.997C83.9672 45.1657 84.3126 45.4082 84.6014 45.7105C84.8901 46.0128 85.1164 46.369 85.2674 46.7588L96.7548 76.3024C96.9061 76.6923 96.9791 77.1081 96.9696 77.5262C96.9601 77.9443 96.8684 78.3564 96.6997 78.739C96.5309 79.1217 96.2885 79.4673 95.9862 79.7562C95.6839 80.0452 95.3276 80.2717 94.9377 80.423L85.4598 84.1091C85.0699 84.2604 84.654 84.3334 84.236 84.3239C83.8179 84.3145 83.4058 84.2227 83.0231 84.054C82.6405 83.8853 82.2949 83.6428 82.0059 83.3405C81.717 83.0382 81.4904 82.6819 81.3392 82.292L79.9554 78.733C79.5241 78.9993 79.1514 79.3504 78.8598 79.7649C78.5682 80.1795 78.3637 80.6489 78.2587 81.1447C77.6211 83.4347 76.1533 85.405 74.1415 86.6712C74.4135 87.2155 74.5747 87.8083 74.6157 88.4154C74.6957 89.6568 74.3054 90.8828 73.5225 91.8496C72.7447 92.8251 71.6278 93.4716 70.3945 93.66C69.5338 93.7922 68.6532 93.6712 67.86 93.3119L67.8578 93.313ZM66.128 88.705L57.2613 81.5791C56.9884 81.3592 56.6393 81.2568 56.2909 81.2943C55.9424 81.3318 55.6232 81.5063 55.4033 81.7792C55.1834 82.0521 55.081 82.4012 55.1185 82.7496C55.156 83.0981 55.3304 83.4173 55.6034 83.6372L64.8592 91.0759C65.0859 91.3142 65.2408 91.6116 65.3063 91.9339C65.3718 92.2563 65.3452 92.5906 65.2294 92.8985C65.1222 93.2126 64.9601 93.5052 64.7508 93.7628C64.5437 94.0225 64.2927 94.244 64.0092 94.4172C63.6933 94.6226 63.3197 94.7208 62.9436 94.6973C62.5676 94.6738 62.2091 94.5298 61.9213 94.2868L53.7376 87.7058C53.6723 87.6529 53.602 87.6067 53.5276 87.5676L53.4171 87.4814C53.1442 87.2616 52.7951 87.1591 52.4466 87.1966C52.0982 87.2342 51.7789 87.4086 51.5591 87.6815C51.3392 87.9544 51.2368 88.3035 51.2743 88.6519C51.3118 89.0004 51.4862 89.3196 51.7591 89.5395L57.8515 94.436C58.1509 94.6649 58.3686 94.9842 58.4723 95.3465C58.576 95.7088 58.5603 96.0949 58.4274 96.4476C58.2097 97.0791 57.7801 97.6157 57.2116 97.9663C56.8958 98.172 56.5221 98.2704 56.146 98.2469C55.7699 98.2235 55.4114 98.0793 55.1237 97.8359L50.5322 94.1431C50.2589 93.9232 49.9094 93.8209 49.5606 93.8588C49.2119 93.8966 48.8924 94.0714 48.6726 94.3448C48.4527 94.6181 48.3504 94.9676 48.3883 95.3164C48.4261 95.6652 48.6009 95.9846 48.8743 96.2045L52.0045 98.7201C52.0784 98.831 52.169 98.9298 52.2731 99.013C52.5727 99.2418 52.7907 99.561 52.8948 99.9233C52.9989 100.286 52.9836 100.672 52.8512 101.025C52.6316 101.655 52.2025 102.191 51.6353 102.543C51.3194 102.749 50.9457 102.847 50.5694 102.824C50.1932 102.801 49.8345 102.657 49.5463 102.414L46.7831 100.195C47.3837 99.3792 47.7083 98.3933 47.7093 97.3805C47.6893 96.3365 47.3413 95.3253 46.7145 94.4901C46.1335 93.7006 45.3741 93.0594 44.4984 92.6189C44.2407 92.4901 43.9735 92.3811 43.6993 92.2928C43.9584 91.6265 44.0773 90.9139 44.0484 90.1995C44.0195 89.4852 43.8434 88.7845 43.5313 88.1413C43.2348 87.5341 42.8177 86.9936 42.3055 86.553C41.8065 86.121 41.2214 85.8 40.5889 85.6112C40.1265 85.473 39.6441 85.414 39.162 85.4366C39.0885 84.853 38.9007 84.2896 38.6094 83.7787C37.9878 82.6859 36.9726 81.8715 35.7709 81.5017C35.039 81.2717 34.2595 81.2382 33.5106 81.4045C33.3992 81.0602 33.2459 80.7309 33.0541 80.4241C32.6733 79.8132 32.1611 79.2948 31.5549 78.9067C30.9486 78.5185 30.2634 78.2704 29.5492 78.1803C28.5315 78.0953 27.5094 78.2816 26.5872 78.7202C25.6649 79.1589 24.8754 79.8341 24.299 80.6772L23.5021 81.672C22.9073 80.5969 22.1322 79.6319 21.2108 78.8192C20.4165 78.1919 19.4846 77.7623 18.4918 77.5658L27.6812 56.6756C29.4304 57.7158 31.3001 58.5387 33.2486 59.126C35.1217 59.6149 37.0343 59.937 38.9642 60.0887C38.2634 60.7917 37.629 61.4361 37.1216 61.96C36.3302 62.6653 35.6639 63.4994 35.1509 64.427C34.7993 65.3123 34.6643 66.2688 34.7574 67.2168C34.7773 69.3932 34.9276 73.4065 35.0017 75.4071V75.4403C35.1122 78.2776 35.1122 78.2798 36.5104 78.8402C36.9919 79.0419 37.4881 79.2064 37.9948 79.332C38.741 79.5195 39.5175 79.5537 40.2773 79.4326C41.0989 79.2716 41.8758 78.9341 42.5542 78.4434C43.2743 77.9333 43.9047 77.3073 44.4199 76.5909C44.8473 75.9908 45.2051 75.3441 45.4865 74.6632C45.7904 73.9262 46.0279 73.1634 46.1961 72.3841C46.3387 71.7386 46.4106 71.2456 46.4747 70.7958C46.5217 70.4243 46.5873 70.0554 46.6714 69.6905L46.6979 69.58C46.7414 69.2377 46.8665 68.911 47.0627 68.6272C47.1387 68.5736 47.2249 68.5361 47.316 68.5171C47.407 68.4981 47.501 68.4979 47.5921 68.5167C47.9779 68.5832 48.3346 68.7647 48.6156 69.0372L48.64 69.0571L71.2611 87.2371C71.2962 87.2701 71.3331 87.3011 71.3716 87.33C71.5499 87.4894 71.6949 87.6825 71.7983 87.8982C71.9017 88.1139 71.9614 88.3479 71.974 88.5867C72.0076 89.1423 71.8405 89.6915 71.5031 90.1341C71.469 90.1711 71.4372 90.2103 71.4081 90.2513C71.0505 90.6758 70.5516 90.9569 70.0032 91.0427C69.5277 91.122 69.0402 91.01 68.647 90.731C68.606 90.6946 68.5628 90.6606 68.5177 90.6293L66.6387 89.1173C66.5348 89.0178 66.4243 88.9205 66.3071 88.8266C66.2501 88.7799 66.1891 88.7385 66.1247 88.7028L66.128 88.705Z" fill="#005AA2" stroke="#005AA2"/><path fill-rule="evenodd" clip-rule="evenodd" d="M55.9479 16.1119C54.359 14.4669 52.2683 13.4433 50.0321 13.2154C47.796 12.9875 45.5526 13.5694 43.6844 14.8619C41.8161 16.1545 40.4386 18.0777 39.7863 20.304C39.1341 22.5303 39.2476 24.9218 40.1075 27.0711C40.9674 29.2204 42.5205 30.9946 44.5022 32.0912C46.4838 33.1879 48.7714 33.5393 50.9753 33.0855C53.1791 32.6316 55.1627 31.4007 56.5883 29.6024C58.0138 27.8041 58.793 25.5497 58.7931 23.2233C58.7947 21.9023 58.5442 20.594 58.056 19.3736C57.5677 18.1532 56.8513 17.0447 55.9479 16.1119ZM43.6468 24.7711C43.4868 24.6455 43.3523 24.4885 43.251 24.3091C43.1496 24.1297 43.0834 23.9314 43.0561 23.7254C43.0287 23.5195 43.0409 23.31 43.0917 23.109C43.1426 22.9079 43.2312 22.7192 43.3525 22.5535C43.4738 22.3879 43.6255 22.2487 43.7988 22.1437C43.9721 22.0388 44.1636 21.9702 44.3625 21.9419C44.5614 21.9137 44.7637 21.9262 44.9579 21.9789C45.1521 22.0315 45.3344 22.1233 45.4944 22.2489L48.169 24.3543L52.4002 18.9023C52.6552 18.5745 53.0256 18.365 53.4298 18.32C53.834 18.2749 54.2389 18.3979 54.5555 18.662C54.8721 18.926 55.0744 19.3095 55.1179 19.728C55.1614 20.1465 55.0426 20.5657 54.7876 20.8935L49.6307 27.5469C49.3811 27.8676 49.0205 28.0747 48.6256 28.1243C48.2307 28.1739 47.8328 28.062 47.5164 27.8124L43.6545 24.7738L43.6468 24.7711ZM33.3394 36.0058C30.8606 32.2569 29.6028 27.7865 29.7493 23.2458V5.23433L49.0793 0L68.4119 5.23433V23.2458C68.5584 27.7865 67.3006 32.2569 64.8218 36.0058C62.019 40.0666 57.1814 43.7517 49.0793 46.4227C40.9773 43.7517 36.141 40.0599 33.3394 36.0058ZM49.0793 9.98545C52.0378 9.98485 54.9049 11.0464 57.1922 12.9892C59.4794 14.9319 61.0453 17.6358 61.6229 20.6399C62.2005 23.644 61.7541 26.7625 60.3598 29.4641C58.9655 32.1656 56.7095 34.283 53.9764 35.4555C51.2432 36.6279 48.202 36.7829 45.3708 35.894C42.5397 35.005 40.0939 33.1272 38.4501 30.5804C36.8063 28.0336 36.0664 24.9755 36.3563 21.9272C36.6462 18.8789 37.9481 16.029 40.04 13.8631C41.226 12.6324 42.635 11.6563 44.1862 10.9909C45.7374 10.3254 47.4003 9.98376 49.0793 9.98545Z" fill="#FFCD00"/></svg>