<svg width="84" height="84" viewBox="0 0 84 84" fill="none" xmlns="http://www.w3.org/2000/svg">
<g id="Group">
<path id="Vector" d="M11.8186 49.3718C10.4973 49.6789 9.1316 49.8338 7.75511 49.8338H5.38867V57.915H8.08239V52.5248C9.55317 52.5019 11.0132 52.3241 12.4274 51.9942L11.8186 49.3718Z" fill="#FFC500"/>
<path id="Vector_2" d="M5.4082 60.6734C5.454 61.6431 5.57387 62.6155 5.76243 63.5651L8.40497 63.0385C8.242 62.2209 8.13964 61.3818 8.09923 60.5427L5.4082 60.6734Z" fill="#FFC500"/>
<path id="Vector_3" d="M27.3315 55.6159L14.8151 68.1323L11.7267 65.0439L9.82227 66.9484L14.8151 71.9412L29.2359 57.5204L27.3315 55.6159Z" fill="#FFC500"/>
<path id="Vector_4" d="M79.4648 0H14.8155C12.5878 0 10.7749 1.81287 10.7749 4.04058V44.0639C9.79707 44.3077 8.78692 44.4464 7.75388 44.4464H0V59.7346C0 70.5055 6.86495 80.0305 17.0836 83.4367L17.5092 83.5781L17.9348 83.4367C20.6716 82.5249 23.1566 81.1618 25.3452 79.4661H40.4058V76.7724H41.5345L44.1232 77.6357C45.0848 77.955 46.0882 78.1179 47.1051 78.1179H65.9962C68.2239 78.1179 70.0368 76.3051 70.0368 74.0773C70.0368 73.0389 69.6314 72.1002 68.9862 71.3836C69.6327 70.6671 70.0368 69.7283 70.0368 68.6899C70.0368 67.6515 69.6314 66.7127 68.9862 65.9962C69.6327 65.2797 70.0368 64.3409 70.0368 63.3025C70.0368 62.8284 69.9398 62.3785 69.789 61.9556H79.4648C81.6925 61.9556 83.5054 60.1427 83.5054 57.915V4.04058C83.5054 1.81287 81.6925 0 79.4648 0ZM80.8117 4.04058V10.7749H59.2619V2.69372H79.4648C80.2069 2.69372 80.8117 3.29712 80.8117 4.04058ZM51.1807 13.4686V18.8561H48.487V13.4686H45.7933V18.8561H43.0996V13.4686H40.4058V18.8561H37.7121V2.69372H56.5682V18.8561H53.8744V13.4686H51.1807ZM14.8155 2.69372H35.0184V10.7749H13.4686V4.04058C13.4686 3.29712 14.0734 2.69372 14.8155 2.69372ZM17.5092 80.7335C8.62799 77.5765 2.69372 69.1936 2.69372 59.7346V47.1401H7.75388C11.3648 47.1401 14.7818 45.8849 17.5092 43.5804C20.2352 45.8849 23.6536 47.1401 27.2645 47.1401H32.3247V59.7346C32.3247 69.1936 26.3904 77.5765 17.5092 80.7335ZM37.7121 76.7711H28.2949C32.5132 72.2523 35.0184 66.2252 35.0184 59.7346V57.915H37.7121V76.7711ZM67.343 63.3025C67.343 64.0459 66.7383 64.6493 65.9962 64.6493H61.9556V67.343H65.9962C66.7383 67.343 67.343 67.9464 67.343 68.6899C67.343 69.4334 66.7383 70.0368 65.9962 70.0368H61.9556V72.7305H65.9962C66.7383 72.7305 67.343 73.3339 67.343 74.0773C67.343 74.8208 66.7383 75.4242 65.9962 75.4242H47.1051C46.3778 75.4242 45.6626 75.3084 44.9757 75.0794L41.9709 74.0773H40.4058V60.6087H41.4685C42.8032 60.6087 44.0949 60.2182 45.2034 59.4774C49.7894 56.4213 52.5276 51.3046 52.5276 45.7933V36.9228C52.5276 36.4676 53.1579 36.2063 53.4798 36.5282C54.6031 37.6515 55.2213 39.1438 55.2213 40.7318V52.5276C55.2213 54.7553 57.0342 56.5682 59.2619 56.5682H64.6493H65.9962C66.7383 56.5682 67.343 57.1716 67.343 57.915C67.343 58.6585 66.7383 59.2619 65.9962 59.2619H64.6493H61.9556V61.9556H64.6493H65.9962C66.7383 61.9556 67.343 62.559 67.343 63.3025ZM65.9962 53.8744H64.6493H59.2619C58.5198 53.8744 57.915 53.271 57.915 52.5276V45.7933H75.4242V53.8744H65.9962ZM79.4648 59.2619H69.789C69.9398 58.839 70.0368 58.3891 70.0368 57.915C70.0368 57.4409 69.9398 56.9911 69.789 56.5682H78.1179V43.0995H57.915V40.7318C57.915 38.4246 57.0167 36.2561 55.3843 34.6224C54.7782 34.019 53.9404 33.6715 53.0852 33.6715C51.2925 33.6715 49.8339 35.1302 49.8339 36.9228V45.7933C49.8339 50.4022 47.5442 54.6799 43.7097 57.2362C43.0443 57.6807 42.2699 57.915 41.4685 57.915H40.4058V55.2213H35.0184V44.4464H27.2645C23.9391 44.4464 20.813 43.1521 18.4614 40.8005L17.5092 39.8482L16.557 40.8005C15.6357 41.7217 14.5932 42.4746 13.4686 43.0564V13.4686H35.0184V21.5498H59.2619V13.4686H80.8117V57.915C80.8117 58.6585 80.2069 59.2619 79.4648 59.2619Z" fill="#1055A0"/>
<path id="Vector_5" d="M18.8578 5.38745H16.1641V8.08117H18.8578V5.38745Z" fill="#FFC500"/>
<path id="Vector_6" d="M24.2425 5.38745H21.5488V8.08117H24.2425V5.38745Z" fill="#FFC500"/>
<path id="Vector_7" d="M29.6312 5.38745H26.9375V8.08117H29.6312V5.38745Z" fill="#FFC500"/>
<path id="Vector_8" d="M78.1195 5.38745H75.4258V8.08117H78.1195V5.38745Z" fill="#FFC500"/>
<path id="Vector_9" d="M67.3422 5.38745H64.6484V8.08117H67.3422V5.38745Z" fill="#FFC500"/>
<path id="Vector_10" d="M72.7308 5.38745H70.0371V8.08117H72.7308V5.38745Z" fill="#FFC500"/>
<path id="Vector_11" d="M18.8578 21.5498H16.1641V24.2435H18.8578V21.5498Z" fill="#FFC500"/>
<path id="Vector_12" d="M18.8578 16.1624H16.1641V18.8561H18.8578V16.1624Z" fill="#FFC500"/>
<path id="Vector_13" d="M18.8578 26.9372H16.1641V37.7121H18.8578V26.9372Z" fill="#FFC500"/>
<path id="Vector_14" d="M72.7292 48.487H60.6074V51.1807H72.7292V48.487Z" fill="#FFC500"/>
</g>
</svg>