<svg width="44" height="44" viewBox="0 0 44 44" fill="none" xmlns="http://www.w3.org/2000/svg">
<path d="M0.2 22C0.2 9.97572 9.97572 0.2 22 0.2C34.0243 0.2 43.8 9.97572 43.8 22C43.8 34.0243 34.0243 43.8 22 43.8C9.97572 43.8 0.2 34.0243 0.2 22ZM3.87578 22C3.87578 31.9757 12.0243 40.1242 22 40.1242C31.9757 40.1242 40.1242 31.9757 40.1242 22C40.1242 12.0243 31.9757 3.87578 22 3.87578C12.0243 3.87578 3.87578 12.0243 3.87578 22Z" fill="#FFD117" stroke="#000066" stroke-width="0.4"/>
<path d="M11.3912 28.943L11.3912 28.9429L11.3882 28.9391C10.7604 28.1438 10.8879 26.9732 11.6793 26.3484C12.4733 25.7216 13.6414 25.8477 14.2669 26.6357C14.3164 26.7041 14.5102 26.9296 14.8334 27.2278C15.1779 27.5456 15.6786 27.9546 16.3305 28.3588C17.635 29.1674 19.5468 29.9577 22.0228 29.9577C24.4987 29.9577 26.4105 29.1674 27.715 28.3588C28.367 27.9546 28.8677 27.5456 29.2121 27.2278C29.5306 26.934 29.7235 26.7107 29.7764 26.6387C30.4457 25.8499 31.5695 25.7657 32.3662 26.3947C33.1582 27.0199 33.2845 28.1441 32.6578 28.9385C32.4802 29.1603 28.7805 33.6335 22.0228 33.6335C15.2593 33.6335 11.5134 29.106 11.3912 28.943Z" fill="white" stroke="#000066" stroke-width="0.4"/>
<path d="M18.8659 16.3721C18.8659 18.5221 17.1229 20.2651 14.9729 20.2651C12.8228 20.2651 11.0799 18.5222 11.0799 16.3721C11.0799 14.222 12.8228 12.4791 14.9729 12.4791C17.1229 12.4791 18.8659 14.222 18.8659 16.3721Z" fill="white" stroke="#000066" stroke-width="0.4"/>
<path d="M32.4314 16.3721C32.4314 18.5222 30.6884 20.2651 28.5384 20.2651C26.3883 20.2651 24.6453 18.5221 24.6453 16.3721C24.6453 14.222 26.3883 12.4791 28.5384 12.4791C30.6884 12.4791 32.4314 14.222 32.4314 16.3721Z" fill="white" stroke="#000066" stroke-width="0.4"/>
</svg>
