<svg width="77" height="102" viewBox="0 0 77 102" fill="none" xmlns="http://www.w3.org/2000/svg">
<g id="get in touch with your writer">
<path id="Vector" d="M14.4395 12.4754L14.3212 14.0842C13.6774 14.1898 13.1857 14.7328 13.1857 15.3887C13.1857 15.9789 13.5836 16.4781 14.1316 16.6476L13.0355 31.578L14.5502 35.9925L16.0686 31.578L14.9706 16.6476C15.5206 16.4763 15.9166 15.9789 15.9166 15.3887C15.9166 14.7328 15.4248 14.1898 14.7829 14.0842L14.6741 12.603L17.2999 14.0805L17.4068 14.1407L19.4921 15.3121L18.9234 22.3629L19.1355 22.4394C19.0285 23.0862 18.9459 23.753 18.8877 24.4307C18.5311 25.8518 18.319 27.3275 18.319 28.8525H18.3528C18.3528 28.8652 18.3509 28.8762 18.3509 28.8889C18.3284 28.8907 18.3059 28.8925 18.2833 28.8962C16.9226 29.1258 16.3032 31.9461 16.9001 35.1908C17.4481 38.1751 18.8314 40.4816 20.1114 40.6547C21.7387 44.9052 24.3138 49.03 27.4989 52.0489C29.3007 53.7578 31.2978 55.1115 33.4262 55.9313C34.8901 56.4961 36.4179 56.8058 37.9889 56.8058C39.558 56.8058 41.0858 56.4907 42.5535 55.9313C44.7589 55.0805 46.8197 53.6631 48.6741 51.8667C51.7785 48.8587 54.2916 44.7977 55.887 40.6201C57.1126 40.2703 58.402 38.0385 58.9238 35.1908C59.4944 32.0991 58.9557 29.4009 57.7245 28.9527C57.7658 28.1984 57.7996 27.435 57.7921 26.6516C57.7845 23.3959 57.1971 20.5501 56.116 18.116L55.8964 15.9717L58.1261 14.7182L59.2598 14.0824L63.9914 11.4242C64.288 11.1363 64.288 10.6718 63.9914 10.3857L38.8166 0.215895C38.5238 -0.0719649 38.0415 -0.0719649 37.7449 0.215895L12.5701 10.3857C12.2735 10.6718 12.2735 11.1363 12.5701 11.4242L14.4395 12.4754ZM20.4118 32.3031C20.5431 31.9242 20.7233 31.6272 20.9504 31.4687C21.0443 31.4013 21.1494 31.3558 21.262 31.3375C21.5154 31.2956 21.78 31.3886 22.0409 31.5926C22.0409 31.5726 22.0428 31.5525 22.0447 31.5307C22.1103 30.913 22.7616 26.7864 25.9918 24.8971L34.7081 28.0217C38.2742 29.3808 38.2742 29.3808 41.8422 28.0217L48.8899 25.5949C49.3967 25.8536 49.8903 26.1142 50.3914 26.3383C50.3558 25.952 50.1887 25.5603 50.0311 25.2014L50.8306 24.9263C51.9643 26.2417 53.0529 28.3168 53.9238 31.5471C53.9275 31.5616 53.9275 31.578 53.9275 31.5926C53.9313 31.5908 53.9313 31.589 53.9388 31.5853V31.5908L53.95 31.5744C54.2053 31.3831 54.4624 31.2938 54.7083 31.3357C54.7702 31.3466 54.8303 31.3649 54.8885 31.3922C55.6899 31.7529 56.0259 33.5566 55.6468 35.6154C55.3615 37.1931 54.7233 38.4903 54.0476 39.0478C53.7755 39.2683 53.4977 39.3703 53.2331 39.3266C53.0867 39.3029 52.9534 39.2318 52.8295 39.1207C51.3562 43.5734 48.5446 48.017 44.9897 50.7098C42.8726 52.3185 40.4927 53.3078 37.9833 53.3078C35.5208 53.3078 33.1915 52.3586 31.1082 50.8154C27.4952 48.1281 24.6291 43.6353 23.1351 39.1243C23.0131 39.2336 22.878 39.3065 22.7316 39.3302C22.4238 39.3812 22.1028 39.2318 21.7913 38.933C21.1644 38.3245 20.5938 37.0947 20.3198 35.619C20.301 35.5206 20.2916 35.4277 20.2785 35.3311C20.2935 34.2945 20.3386 33.2943 20.4118 32.3031Z" fill="#FFC500"/>
<path id="Union" fill-rule="evenodd" clip-rule="evenodd" d="M38.2388 90.1481C23.1165 90.1481 4.4257 87.9803 0.871872 80.9374C0.302964 79.8139 0.0332885 78.5395 0.00373482 77.2477C-0.0184304 76.364 0.0554519 75.4725 0.295575 74.6081C1.06582 71.835 1.95243 69.5319 2.89999 67.6251C4.98352 63.4249 7.35706 61.1276 9.43135 59.8281C11.3686 58.618 13.0437 58.2795 13.9673 58.0928C14.1375 58.0584 14.2821 58.0292 14.3982 58.0006C16.1269 57.5781 18.0406 57.4622 19.7934 57.3559C20.0541 57.3401 20.3113 57.3246 20.5637 57.3082C21.9545 57.2182 23.2026 57.105 24.1177 56.8055C24.1481 57.0713 24.2614 57.4083 24.4443 57.8037C25.4603 59.9986 28.6244 63.9921 31.6713 67.5837L25.9221 66.2513C25.6621 65.9248 25.4067 65.6004 25.1575 65.2796C24.0705 63.8807 23.0554 62.4927 22.2786 61.2661C22.181 61.1119 22.0849 60.9569 21.9912 60.8015C21.3703 60.8577 20.7686 60.8934 20.2289 60.9254L19.9268 60.9434C18.1409 61.0517 16.5857 61.1606 15.2503 61.487L14.3982 58.0006L15.2561 61.4855C15.0431 61.538 14.8274 61.583 14.6058 61.6292C13.6934 61.8195 12.6801 62.0308 11.3348 62.8707C9.8758 63.7852 7.93249 65.5563 6.11511 69.22L6.11395 69.2224C5.28115 70.8981 4.4715 72.984 3.75362 75.5686C3.63232 76.0052 3.57574 76.5269 3.59156 77.1577L3.59176 77.1656C3.61146 78.027 3.79013 78.756 4.07375 79.3161L4.07602 79.3206C4.44519 80.0522 5.44831 81.0627 7.63542 82.1119C9.75572 83.129 12.5817 83.9868 15.9311 84.6666C22.6159 86.0235 30.8078 86.5591 38.2388 86.5591H38.24H38.2412H38.2425H38.2437H38.245H38.2462H38.2475H38.2487H38.2499H38.2511H38.2523H38.2536H38.2549H38.2561H38.2574H38.2586H38.2598H38.261H38.2623H38.2635H38.2648H38.266H38.2672H38.2684H38.2697H38.2709H38.2722H38.2734H38.2746H38.2759H38.2771H38.2784H38.2797H38.2809H38.2821H38.2833H38.2846H38.2859H38.2872H38.2885H38.2897H38.2909H38.2922H38.2934H38.2947H38.296H38.2973H38.2985H38.2998H38.301H38.3023H38.3035H38.3047H38.3059H38.3071H38.3084H38.3097H38.311H38.3123H38.3136H38.3148H38.3161H38.3174H38.3187H38.32H38.3213H38.3226H38.3239H38.3251H38.3263H38.3275H38.3287H38.33H38.3312H38.3325H38.3337H38.335H38.3363C45.7638 86.5591 53.8571 86.0097 60.4421 84.6421C63.741 83.957 66.5179 83.0952 68.6018 82.0774C70.7457 81.0302 71.7471 80.0184 72.1259 79.2684L72.1307 79.2589C72.7866 77.9696 72.9641 77.4898 72.9729 77.1559C72.9885 76.5261 72.9319 76.0048 72.8108 75.5687C70.5187 67.3237 67.3066 64.1709 65.2303 62.868C63.877 62.0228 62.8534 61.8102 61.9431 61.6212C61.729 61.5767 61.5211 61.5335 61.3168 61.4837L61.3114 61.4824C59.9793 61.1558 58.4254 61.0463 56.6405 60.9386L56.3299 60.9202C55.7911 60.8884 55.1912 60.8531 54.5723 60.7976C54.478 60.9538 54.3814 61.1098 54.2831 61.2648C53.5064 62.4905 52.4912 63.8779 51.4044 65.2764C49.9245 67.1808 48.2281 69.2124 46.6437 71.0539L42.6881 70.1368C43.328 69.4049 44.0022 68.6252 44.685 67.8227C47.8054 64.1554 51.105 60.0123 52.1304 57.7759C52.3062 57.3924 52.4152 57.0649 52.4449 56.8055C53.3609 57.1024 54.6092 57.2142 55.9994 57.3035C56.2469 57.3194 56.4989 57.3346 56.7544 57.35C58.5126 57.456 60.4333 57.5718 62.1662 57.9968C62.28 58.0245 62.4214 58.053 62.5874 58.0864C63.509 58.2719 65.1893 58.6102 67.1349 59.8261C70.1475 61.7155 73.7992 65.7242 76.2688 74.6081C76.5089 75.4725 76.5828 76.364 76.5607 77.2477C76.5276 78.5314 75.9099 79.7455 75.3403 80.8651L75.3295 80.8863C71.7757 87.9234 53.4608 90.1481 38.3367 90.1481H38.2776H38.2388ZM42.6881 70.1368L46.6437 71.0539C45.892 71.9276 45.1654 72.7585 44.4991 73.5129L43.2287 74.9512L38.2822 81.5465L34.1915 75.9218L32.0663 73.5179C30.2299 71.4407 27.9384 68.7833 25.9221 66.2513L31.6713 67.5837C31.7372 67.6614 31.8033 67.7392 31.8691 67.8165C32.8769 69.0007 33.8664 70.1355 34.7551 71.1408L41.8092 71.0539V71.1369C42.0927 70.816 42.3867 70.4816 42.6881 70.1368ZM41.8092 71.0539L34.7551 71.1408L35.791 66.8749L36.4162 64.3002L36.5062 63.9297C36.4291 63.8805 36.3555 63.8281 36.2854 63.7725C36.1347 63.6532 35.9997 63.5197 35.8788 63.3745C35.098 62.4364 34.9066 61.0101 34.9066 59.7855H38.067H38.4956H41.6559C41.6559 61.0084 41.4675 62.4362 40.6862 63.3745C40.5517 63.536 40.3997 63.6829 40.2281 63.8119C40.1638 63.8602 40.0967 63.9059 40.0268 63.949L40.1117 64.2912L40.756 66.8897L41.8092 71.0539Z" fill="#1055A0"/>
<path id="Vector_2" d="M62.036 93.9886V101.447C62.036 101.892 61.542 102.151 61.1716 101.904L57.9485 99.6938C57.7508 99.558 57.5038 99.558 57.3187 99.6938L54.0832 101.904C53.7127 102.151 53.2188 101.892 53.2188 101.447V93.9886C53.404 94.1738 53.6386 94.322 53.935 94.4208C54.1202 94.4826 54.3055 94.5072 54.503 94.5072C55.4292 94.5072 56.1578 93.8527 56.8494 93.2229C57.0593 93.0377 57.368 92.766 57.5779 92.6178C57.6027 92.6055 57.615 92.5931 57.6274 92.5807C57.6397 92.5931 57.652 92.6055 57.6768 92.6178C57.8867 92.766 58.1954 93.0377 58.4054 93.2229C59.1093 93.8527 59.8378 94.5072 60.764 94.5072C60.9493 94.5072 61.1345 94.4826 61.3198 94.4208C61.6161 94.322 61.8508 94.1738 62.036 93.9886Z" fill="#FFC500"/>
<path id="Ellipse 353" d="M61.7459 83.3564C61.7459 85.7434 59.8108 87.6785 57.4237 87.6785C55.0367 87.6785 53.1016 85.7434 53.1016 83.3564C53.1016 80.9693 55.0367 79.0342 57.4237 79.0342C59.8108 79.0342 61.7459 80.9693 61.7459 83.3564Z" fill="white"/>
<path id="Vector_3" d="M57.6311 85.8258C59.1543 85.8258 60.3891 84.591 60.3891 83.0678C60.3891 81.5446 59.1543 80.3098 57.6311 80.3098C56.1079 80.3098 54.873 81.5446 54.873 83.0678C54.873 84.591 56.1079 85.8258 57.6311 85.8258Z" fill="#FFC500"/>
<path id="Vector_4" d="M68.3309 83.0684C68.3309 82.047 65.7597 81.4448 65.4604 80.5231C65.1503 79.5681 66.8655 77.5715 66.287 76.7766C65.7026 75.9736 63.2699 76.9912 62.467 76.4069C61.672 75.8282 61.8916 73.1974 60.9365 72.8872C60.0148 72.5879 58.6497 74.8356 57.6284 74.8356C56.6069 74.8356 55.2419 72.5879 54.3203 72.8872C53.3653 73.1973 53.5848 75.8282 52.7898 76.4067C51.9869 76.9911 49.5543 75.9734 48.9699 76.7763C48.3913 77.5714 50.1064 79.568 49.7963 80.523C49.497 81.4447 46.9258 82.0469 46.9258 83.0684C46.9258 84.0898 49.497 84.692 49.7963 85.6137C50.1064 86.5687 48.3912 88.5653 48.9697 89.3602C49.554 90.1632 51.9868 89.1456 52.7896 89.7299C53.5847 90.3086 53.3651 92.9394 54.3202 93.2495C55.2419 93.5488 56.6069 91.3011 57.6284 91.3011C58.6497 91.3011 60.0147 93.5488 60.9364 93.2495C61.8914 92.9394 61.6719 90.3086 62.4668 89.7301C63.2698 89.1457 65.7025 90.1634 66.2868 89.3604C66.8654 88.5654 65.1503 86.5688 65.4604 85.6137C65.7597 84.6921 68.3309 84.0898 68.3309 83.0684ZM57.6284 87.0613C55.4269 87.0613 53.6355 85.2704 53.6355 83.0683C53.6355 80.8662 55.4269 79.0754 57.6284 79.0754C59.8299 79.0754 61.6214 80.8662 61.6214 83.0683C61.6214 85.2704 59.8299 87.0613 57.6284 87.0613Z" fill="#1055A0"/>
</g>
</svg>