<svg width="60" height="48" viewBox="0 0 84 61" fill="none" xmlns="http://www.w3.org/2000/svg">
<path d="M69.4277 6.87336C66.0034 5.07295 62.0553 4.02161 58.1556 3.88584C57.594 1.65953 55.5907 0 53.1925 0H17.2507C14.4196 0 12.1162 2.30339 12.1162 5.13453V8.98543C12.1162 9.69432 12.691 10.2691 13.3998 10.2691C14.1087 10.2691 14.6835 9.69432 14.6835 8.98543V5.13453C14.6835 3.71865 15.8349 2.56727 17.2507 2.56727H53.1925C54.6084 2.56727 55.7598 3.71865 55.7598 5.13453V37.2254H18.5344C16.4109 37.2254 14.6835 35.498 14.6835 33.3745V32.0908C14.6835 31.3813 14.1087 30.8072 13.3998 30.8072C12.691 30.8072 12.1162 31.3813 12.1162 32.0908V33.3745C12.1162 35.385 13.0646 37.1605 14.5163 38.3382C9.98071 41.491 12.3788 48.839 17.8927 48.778L22.5012 48.7781C21.6553 53.4045 25.3853 57.8098 30.0872 57.7634C34.7882 57.8101 38.5197 53.4041 37.6729 48.7781H58.443C57.597 53.4045 61.3271 57.8098 66.0289 57.7634C70.7299 57.8101 74.4614 53.4041 73.6147 48.7781H78.8652C81.6963 48.7781 83.9997 46.4753 83.9997 43.6435V30.8072C84.061 20.8331 78.3007 11.4017 69.4277 6.87336ZM30.0871 55.1962C23.3015 54.9809 23.303 45.1414 30.0872 44.9272C36.8728 45.1425 36.8711 54.9819 30.0871 55.1962ZM66.0288 55.1962C59.2432 54.9809 59.2448 45.1414 66.029 44.9272C72.8145 45.1425 72.8129 54.9819 66.0288 55.1962ZM81.4324 43.0017C81.4492 45.0657 79.554 46.4513 77.5815 46.2108V42.3599C77.5815 40.9446 78.7329 39.7926 80.1488 39.7926H81.4324V43.0017ZM81.4324 37.2254H80.1488C77.3176 37.2254 75.0143 39.5281 75.0143 42.3599V46.2108H72.6886C69.9364 41.1396 62.1199 41.1415 59.369 46.2108H36.7469C33.9947 41.1396 26.1782 41.1415 23.4273 46.2108H17.8926C13.6661 46.1017 13.6595 39.9081 17.8927 39.7926H57.0434C57.7523 39.7926 58.327 39.2185 58.327 38.509V6.45202C59.6239 6.51955 60.9085 6.71863 62.1779 6.9897V25.6727C62.1779 29.2114 65.0573 32.0908 68.5961 32.0908H81.4324V37.2254ZM68.5961 29.5236C66.4726 29.5236 64.7452 27.7962 64.7452 25.6727V7.67148C74.0909 10.6582 81.0024 19.7137 81.3784 29.5236H68.5961Z" fill="black"></path>
<path d="M62.1777 35.9418C62.1777 36.6513 62.7525 37.2255 63.4614 37.2255H72.4468C73.1557 37.2255 73.7304 36.6513 73.7304 35.9418C73.7304 35.2323 73.1557 34.6582 72.4468 34.6582H63.4614C62.7525 34.6582 62.1777 35.2323 62.1777 35.9418Z" fill="black"></path>
<path d="M9.54883 20.538C9.54883 21.2469 10.1236 21.8217 10.8325 21.8217H19.8179C20.5268 21.8217 21.1015 21.2469 21.1015 20.538C21.1015 19.8291 20.5268 19.2544 19.8179 19.2544H10.8325C10.1236 19.2544 9.54883 19.8291 9.54883 20.538Z" fill="black"></path>
<path d="M8.26519 29.5236H17.2506C18.9352 29.4961 18.9399 26.9846 17.2506 26.9563H8.26519C6.58058 26.9836 6.57596 29.4953 8.26519 29.5236Z" fill="black"></path>
<path d="M48.0575 28.24V12.8364C48.0575 12.1275 47.4828 11.5527 46.7739 11.5527C46.065 11.5527 45.4902 12.1275 45.4902 12.8364V28.24C45.5172 29.9225 48.0289 29.9309 48.0575 28.24Z" fill="black"></path>
<path d="M39.0721 28.24V12.8364C39.0721 12.1275 38.4974 11.5527 37.7885 11.5527C37.0796 11.5527 36.5049 12.1275 36.5049 12.8364V28.24C36.5318 29.9225 39.0436 29.9309 39.0721 28.24Z" fill="black"></path>
<path d="M30.0868 28.24V12.8364C30.0868 12.1275 29.5121 11.5527 28.8032 11.5527C28.0943 11.5527 27.5195 12.1275 27.5195 12.8364V28.24C27.5465 29.9225 30.0582 29.9309 30.0868 28.24Z" fill="black"></path>
<path d="M1.26492 14.5673L16.6685 14.5673C17.3774 14.5673 17.9521 13.9925 17.9521 13.2836C17.9521 12.5747 17.3774 12 16.6685 12L1.26492 12C-0.41766 12.027 -0.426041 14.5387 1.26492 14.5673Z" fill="black"></path>
<path d="M42.9236 60.3307C44.6032 60.3048 44.6171 57.7922 42.9236 57.7634H18.5346C17.8257 57.7634 17.251 58.3376 17.251 59.0471C17.251 59.7566 17.8257 60.3307 18.5346 60.3307H42.9236Z" fill="black"></path>
<path d="M75.014 60.3307C76.694 60.3047 76.7072 57.7922 75.014 57.7634H51.9086C51.1997 57.7634 50.625 58.3376 50.625 59.0471C50.625 59.7566 51.1997 60.3307 51.9086 60.3307H75.014Z" fill="black"></path>
<path d="M82.7164 60.3307C84.4029 60.3026 84.404 57.7915 82.7164 57.7634H80.1491C78.4626 57.7914 78.4614 60.3026 80.1492 60.3307H82.7164Z" fill="black"></path>
</svg>