<?xml version="1.0" encoding="UTF-8"?>
<svg xmlns="http://www.w3.org/2000/svg" width="102" height="112" viewBox="0 0 102 112" fill="none"><path d="M47.1385 36.9936V28.3355H91.2919V44.2444L95.6667 39.8692V28.3359V16.9199H91.2915H47.138H42.7632V28.3359V30.5802C44.2743 31.9911 45.8357 34.0323 47.1385 36.9936ZM69.215 20.6385C70.4233 20.6385 71.4024 21.618 71.4024 22.8259C71.4024 24.0338 70.4233 25.0133 69.215 25.0133C68.0067 25.0133 67.0276 24.0338 67.0276 22.8259C67.0276 21.618 68.0067 20.6385 69.215 20.6385Z" fill="#FFCE00"/><path d="M91.2919 89.5408H47.1385V73.6227C46.3068 74.0461 45.368 74.2863 44.3767 74.2868C44.2642 74.2868 44.1514 74.2815 44.0367 74.2767C43.5997 74.2509 43.174 74.1791 42.7637 74.068V89.5403V93.9151H47.1385H91.2919H95.6671V89.5403V49.7656L91.2923 54.1404L91.2919 89.5408Z" fill="#FFCE00"/><path d="M79.5208 80.7912C78.0543 80.7912 76.7073 80.2724 75.6517 79.4097L73.1773 83.9765L76.0721 83.1589L76.9173 86.0025L79.5199 81.1985L82.1233 86.0025L82.9685 83.1589L85.8633 83.9765L83.3889 79.4097C82.3329 80.2719 80.9863 80.7912 79.5208 80.7912Z" fill="#FFCE00"/><path d="M79.5204 79.9162C82.4197 79.9162 84.7701 77.5659 84.7701 74.6665C84.7701 71.7671 82.4197 69.4167 79.5204 69.4167C76.621 69.4167 74.2706 71.7671 74.2706 74.6665C74.2706 77.5659 76.621 79.9162 79.5204 79.9162Z" fill="#FFCE00"/><path d="M84.1465 37.4812H55.0542V39.7338H84.1465V37.4812Z" fill="#FFCE00"/><path d="M84.1465 43.0264H55.0542V45.2785H84.1465V43.0264Z" fill="#FFCE00"/><path d="M70.3263 55.1206H55.1206V57.0213H70.3263V55.1206Z" fill="#FFCE00"/><path d="M84.1465 48.5713H55.0542V50.8234H84.1465V48.5713Z" fill="#FFCE00"/><path d="M70.3263 60.8228H55.1206V62.7235H70.3263V60.8228Z" fill="#FFCE00"/><path d="M67.0849 67.4751H55.0542V69.7272H67.0849V67.4751Z" fill="#FFCE00"/><path d="M67.0849 71.8501H55.0542V74.1022H67.0849V71.8501Z" fill="#FFCE00"/><path d="M70.1489 70.3349L74.6348 68.9428L101.238 42.3393L98.1445 39.2458L71.541 65.8498L70.1489 70.3349Z" fill="#FFCE00"/><path d="M25.2343 66.4646H27.2625V105.956C27.2625 108.945 29.6848 111.365 32.6719 111.365C35.6581 111.365 38.0805 108.945 38.0805 105.956V63.0829V54.7979V40.3327C39.5976 43.4388 41.1419 49.3898 41.1275 59.9842C41.1275 62.3974 41.0496 65.0467 40.879 67.956C40.7653 69.8857 42.2374 71.5424 44.168 71.6553C44.238 71.6588 44.3071 71.6614 44.3762 71.6614C46.2154 71.6606 47.7575 70.2261 47.8669 68.3659C48.0445 65.3324 48.1267 62.547 48.1267 59.9847C48.1215 50.0723 46.9149 43.5075 45.1182 38.966C43.3433 34.4429 40.8068 31.8902 38.4536 30.723C36.9592 29.9701 35.6476 29.7999 34.8571 29.7899C34.8051 29.7877 34.753 29.7824 34.7001 29.7824H23.0806C23.0824 29.8782 23.0841 29.9907 23.0846 30.1355C23.0776 31.8491 22.889 36.9182 20.7187 42.7235L18.2959 41.7033C20.2698 36.3547 20.4654 31.6457 20.4597 30.1355C20.4597 29.978 20.4579 29.8638 20.4557 29.7824H17.7972C17.5876 29.7824 17.3842 29.8043 17.1851 29.8406L17.1856 29.8446C15.8351 29.9968 14.6631 30.5261 13.6381 31.2029C12.428 32.0118 11.3842 33.067 10.4817 34.3134C8.69324 36.8009 7.45255 40.1083 7.44599 43.8688C7.44162 46.684 8.17746 49.7354 9.88362 52.6621C11.5859 55.5928 14.226 58.3809 17.9223 60.8522C18.5195 61.2521 19.1962 61.4445 19.8651 61.4445C20.9938 61.4445 22.102 60.8986 22.777 59.8902C23.8519 58.2838 23.4214 56.1099 21.8141 55.035C18.8493 53.0484 17.0285 51.0242 15.9348 49.1444C14.8455 47.2593 14.4496 45.5019 14.4457 43.8688C14.4439 42.3438 14.8114 40.922 15.3731 39.7434C15.9256 38.5683 16.693 37.6536 17.2945 37.1903C17.4809 37.0407 17.6401 36.9462 17.7613 36.8845L17.8418 37.8723C17.3846 38.2249 16.6834 39.0132 16.1645 40.1157C15.6098 41.2794 15.3189 42.5748 15.3202 43.8675C15.3228 44.728 15.4462 45.5654 15.6885 46.3931L17.2495 42.6863L30.8069 48.395L23.5225 65.6903L9.96631 59.9825L11.4804 56.3868C10.577 55.3343 9.78782 54.2388 9.12591 53.1005C7.44949 50.2228 6.56578 47.0296 6.57147 43.8666C6.57672 40.2404 7.71373 36.6653 9.77076 33.802C10.7643 32.4287 11.9017 31.311 13.1516 30.475C14.3971 29.6521 15.8355 29.1319 17.1134 28.96L17.1138 28.9674C17.3374 28.9311 17.564 28.9075 17.7976 28.9075H24.1984C21.8859 28.414 17.9004 27.6585 15.3276 27.6943C14.6635 27.7035 14.0917 27.7648 13.67 27.8978C10.8999 28.7727 3.17051 34.0225 0.326896 49.553C-1.8115 61.2302 6.99495 70.3717 13.5418 71.9576V62.9114L14.4168 63.2798V75.8389V105.955C14.4168 108.944 16.8395 111.365 19.8262 111.365C22.1365 111.365 24.1039 109.913 24.8787 107.873C25.1057 107.277 25.2348 106.632 25.2348 105.955L25.2343 66.4646Z" fill="#005AA2"/><path d="M26.2484 27.2893C31.6847 27.2893 36.0916 22.8823 36.0916 17.4461C36.0916 12.0098 31.6847 7.60278 26.2484 7.60278C20.8121 7.60278 16.4051 12.0098 16.4051 17.4461C16.4051 22.8823 20.8121 27.2893 26.2484 27.2893Z" fill="#005AA2"/><path d="M18.2941 46.3404L17.8994 47.2778L27.0685 51.1391L27.4632 50.2017L18.2941 46.3404Z" fill="#FFCE00"/><path d="M27.5603 6.65234C28.0355 6.65234 29.9362 8.07788 30.4114 8.55305L28.5106 9.50341H25.6596L24.7092 8.55305V6.65234H27.5603Z" fill="white"/><path d="M81.7081 72.2516C81.08 71.6228 80.2433 71.2766 79.3545 71.2766C78.4657 71.2766 77.6299 71.6237 77.0018 72.2516C75.7039 73.5498 75.7039 75.6588 77.0018 76.9561C78.2996 78.2534 80.4103 78.2534 81.7081 76.9561C83.0051 75.6579 83.0051 73.5489 81.7081 72.2516ZM81.1692 74.5875L79.2803 76.1092C79.1381 76.2231 78.9622 76.2849 78.782 76.2849C78.752 76.2849 78.7219 76.2831 78.6919 76.2796C78.4807 76.2558 78.2873 76.148 78.1565 75.9802L77.4144 75.0344C77.1431 74.6882 77.2032 74.1892 77.5487 73.9181C77.8941 73.6478 78.395 73.707 78.6654 74.0523L78.911 74.365L80.1726 73.3485C80.5137 73.0747 81.0155 73.1277 81.2902 73.4695C81.565 73.8121 81.5111 74.312 81.1692 74.5875Z" fill="white"/><path d="M17.5005 48.22L17.1066 49.1582L26.2806 53.0099L26.6745 52.0717L17.5005 48.22Z" fill="#FFCE00"/><path d="M26.5157 7.8754C26.4867 7.8754 26.4577 7.87153 26.4293 7.86384L19.6146 6.00649V10.8772C19.746 11.0269 20.4255 11.4209 21.7838 11.8113C23.276 12.24 24.9551 12.4762 26.5136 12.4762C28.0757 12.4762 29.7565 12.24 31.25 11.8111C32.6088 11.421 33.2855 11.027 33.417 10.8772V6.00537L26.5979 7.86384C26.5697 7.87159 26.5447 7.8754 26.5157 7.8754Z" fill="#FFCE00"/><path d="M42.6158 11.7871L42.1383 8.13607C42.1362 8.12017 42.133 8.10439 42.1286 8.08882C42.0137 7.68487 41.6985 7.37779 41.3042 7.26521V3.60546C41.3042 3.42399 41.157 3.27683 40.9756 3.27683L38.529 3.27643L26.5158 0L13.305 3.60526L26.5158 7.20296L33.6675 5.25209H33.6677L38.5294 3.93074L40.647 3.93402V7.26521C40.2526 7.37779 39.9372 7.68487 39.8224 8.08882C39.818 8.10433 39.8147 8.12017 39.8126 8.13607L39.3351 11.7871C39.3332 11.8012 39.3323 11.8185 39.3323 11.8327C39.3323 12.5515 39.9171 13.1392 40.6359 13.1392H41.3151C42.0339 13.1392 42.6186 12.5515 42.6186 11.8327C42.6185 11.8184 42.6176 11.8012 42.6158 11.7871Z" fill="#FFCE00"/></svg>