<?xml version="1.0" encoding="UTF-8"?>
<svg xmlns="http://www.w3.org/2000/svg" width="97" height="86" viewBox="0 0 97 86" fill="none"><g id="Zero-Cost Re-Edits"><g id="Group 11894"><path id="Vector" d="M95.918 63.141C95.8357 63.4733 95.6881 63.7859 95.4838 64.0606C95.2795 64.3353 95.0226 64.5666 94.728 64.741L77.659 74.876C77.2596 75.1145 76.8032 75.2406 76.338 75.241C76.1188 75.2409 75.9004 75.2133 75.688 75.159C75.3567 75.0757 75.0451 74.9276 74.7713 74.7231C74.4976 74.5187 74.267 74.2621 74.093 73.968L70.346 67.663C69.9946 67.0693 69.8928 66.3605 70.063 65.6919C70.2332 65.0233 70.6615 64.4494 71.254 64.096L73.146 62.972C72.9652 62.5636 72.755 62.1689 72.517 61.791C71.9065 60.9098 71.1267 60.1588 70.223 59.582C70.043 59.451 69.865 59.322 69.69 59.19C68.6686 58.4514 67.7909 57.5323 67.1 56.478V77.741C67.0997 78.4675 66.8113 79.1641 66.298 79.6782C65.7847 80.1922 65.0885 80.4817 64.362 80.483H8.738C8.01156 80.4817 7.3153 80.1922 6.80199 79.6782C6.28869 79.1641 6.00027 78.4675 6 77.741V14.535C5.99961 14.3999 6.02591 14.266 6.07739 14.1411C6.12887 14.0162 6.20452 13.9026 6.3 13.807L18.775 1.30001C18.8709 1.20434 18.9848 1.12857 19.11 1.07709C19.2353 1.0256 19.3696 0.999404 19.505 1.00001H64.361C65.0875 1.00107 65.7838 1.29026 66.2973 1.80412C66.8108 2.31799 67.0995 3.01456 67.1 3.74101V30.611L67.253 30.662C69.653 31.45 72.133 32.262 74.49 33.178C74.79 33.293 75.046 33.4 75.283 33.506L82.669 30.826C83.6219 30.4827 84.672 30.5309 85.5894 30.9601C86.5069 31.3893 87.2169 32.1645 87.564 33.116L88.247 34.997C88.593 35.9503 88.5463 37.0021 88.117 37.9209C87.6878 38.8398 86.9112 39.5506 85.958 39.897L81.868 41.381C83.3206 44.1268 84.0783 47.1867 84.075 50.293C84.0051 51.0994 84.2427 51.9024 84.74 52.541C85.178 53.241 85.877 54.205 86.504 55.041L88.323 53.96C88.9167 53.6094 89.6251 53.5081 90.2934 53.6783C90.9616 53.8484 91.5352 54.2761 91.889 54.868L95.636 61.173C95.8106 61.4662 95.9254 61.791 95.9738 62.1288C96.0222 62.4666 96.0032 62.8106 95.918 63.141ZM70.026 43.478L81.683 39.249L79.8 34.057L67.154 38.641L70.026 43.478ZM54.231 44.078L51.36 47.312L55.637 47.953L54.231 44.078ZM52.21 40.459H41.85V50.82H52.21V49.52L49.174 49.065C48.991 49.0373 48.8188 48.9608 48.6756 48.8435C48.5324 48.7262 48.4234 48.5725 48.3602 48.3985C48.297 48.2246 48.2818 48.0368 48.3162 47.8549C48.3507 47.673 48.4335 47.5038 48.556 47.365L52.21 43.25V40.459ZM61.987 46.394C61.355 45.166 60.669 43.902 59.887 42.587C59.6751 42.2338 59.5031 41.8582 59.374 41.467L55.93 42.716L57.813 47.908L61.987 46.394ZM81.737 33.354L83.62 38.546L85.254 37.954C85.6927 37.7943 86.0502 37.4671 86.2478 37.0441C86.4454 36.6211 86.4671 36.137 86.308 35.698L85.626 33.817C85.4652 33.3793 85.138 33.0229 84.7157 32.8253C84.2933 32.6277 83.81 32.605 83.371 32.762L81.737 33.354ZM66.609 32.618C64.309 31.862 61.931 31.081 59.616 30.201C59.3697 30.0915 59.1024 30.0376 58.8329 30.0432C58.5635 30.0487 58.2986 30.1135 58.057 30.233C57.6223 30.4782 57.2901 30.8714 57.121 31.341C57.0116 31.5765 56.9538 31.8326 56.9513 32.0922C56.9489 32.3518 57.002 32.6089 57.107 32.8464C57.212 33.0838 57.3665 33.2961 57.5602 33.469C57.7538 33.6419 57.9822 33.7715 58.23 33.849L64.481 36.224C64.564 36.252 64.65 36.285 64.737 36.324H64.743L64.756 36.33C65.127 36.4869 65.4738 36.6956 65.786 36.95L72.339 34.572C70.455 33.883 68.507 33.241 66.609 32.618ZM9.513 13.504H18.177C18.2566 13.504 18.3329 13.4724 18.3891 13.4161C18.4454 13.3599 18.477 13.2836 18.477 13.204V4.52001L9.513 13.504ZM65.038 77.741V52.607C64.664 51.85 64.296 51.088 63.92 50.307C63.592 49.628 63.261 48.942 62.92 48.246L57.548 50.195H57.542C57.4927 50.2118 57.4422 50.2252 57.391 50.235L57.355 50.241C57.3034 50.2497 57.2513 50.2544 57.199 50.255C57.1528 50.2548 57.1067 50.2511 57.061 50.244H57.046L54.274 49.829V51.847C54.2741 51.9824 54.2476 52.1164 54.1959 52.2415C54.1442 52.3666 54.0683 52.4802 53.9727 52.576C53.877 52.6717 53.7634 52.7477 53.6384 52.7995C53.5134 52.8513 53.3793 52.878 53.244 52.878H40.819C40.6837 52.878 40.5496 52.8513 40.4246 52.7995C40.2996 52.7477 40.186 52.6717 40.0903 52.576C39.9947 52.4802 39.9188 52.3666 39.8671 52.2415C39.8154 52.1164 39.7889 51.9824 39.789 51.847V39.429C39.789 39.1557 39.8975 38.8937 40.0906 38.7003C40.2838 38.507 40.5457 38.3983 40.819 38.398H53.241C53.5143 38.3983 53.7762 38.507 53.9694 38.7003C54.1625 38.8937 54.271 39.1557 54.271 39.429V41.129L59.209 39.337C59.226 39.237 59.246 39.148 59.268 39.062C59.4782 38.237 59.9471 37.5011 60.606 36.962L57.5 35.776C56.5195 35.388 55.7311 34.6295 55.3056 33.6646C54.88 32.6998 54.8514 31.6062 55.226 30.6204C55.6006 29.6346 56.3482 28.836 57.3072 28.3973C58.2661 27.9585 59.3592 27.915 60.35 28.276C61.891 28.861 63.471 29.404 65.04 29.928V3.74101C65.0403 3.56101 64.9692 3.38824 64.8423 3.26059C64.7153 3.13293 64.543 3.0608 64.363 3.06001H20.535V13.204C20.5347 13.8296 20.2863 14.4295 19.8443 14.8721C19.4022 15.3148 18.8026 15.564 18.177 15.565H8.061V77.741C8.06281 77.9204 8.13459 78.0919 8.26105 78.2192C8.38751 78.3464 8.55865 78.4192 8.738 78.422H64.361C64.541 78.4212 64.7133 78.3491 64.8403 78.2214C64.9672 78.0938 65.0383 77.921 65.038 77.741ZM74.927 61.912L84.722 56.092C83.916 55.013 83.368 54.231 82.989 53.622C82.2854 52.659 81.9402 51.4805 82.013 50.29C82.01 47.4212 81.288 44.5989 79.913 42.081L71.1 45.281L72.391 47.453C72.522 47.6876 72.5563 47.964 72.4865 48.2234C72.4168 48.4829 72.2485 48.7048 72.0176 48.8421C71.7866 48.9793 71.5112 49.021 71.25 48.9582C70.9888 48.8955 70.7624 48.7332 70.619 48.506L65.219 39.42C64.9336 38.8915 64.484 38.4703 63.938 38.22L63.847 38.185C63.7913 38.164 63.7346 38.146 63.677 38.131C63.1678 38.0075 62.6306 38.0882 62.1801 38.3558C61.7297 38.6235 61.402 39.0568 61.267 39.563C61.1993 39.9009 61.1992 40.2489 61.2667 40.5868C61.3341 40.9247 61.4678 41.246 61.66 41.532C63.341 44.361 64.579 46.932 65.777 49.411C66.677 51.285 67.535 53.056 68.546 54.881C69.1343 55.935 69.9501 56.8448 70.934 57.544C71.098 57.668 71.266 57.79 71.434 57.913C72.5465 58.637 73.5038 59.5752 74.25 60.673C74.5021 61.0717 74.7282 61.4863 74.927 61.914V61.912ZM93.864 62.218L90.117 55.918C90.0433 55.7952 89.9239 55.7067 89.785 55.672C89.7399 55.6605 89.6935 55.6548 89.647 55.655C89.5513 55.6548 89.4574 55.6803 89.375 55.729L72.307 65.868C72.1851 65.9427 72.0971 66.062 72.0618 66.2006C72.0265 66.3392 72.0467 66.4861 72.118 66.61L75.865 72.915C75.9013 72.9761 75.9493 73.0293 76.0063 73.0717C76.0633 73.1141 76.1281 73.1448 76.197 73.162C76.3357 73.1972 76.4826 73.1764 76.606 73.104L93.675 62.962C93.7973 62.8877 93.8857 62.7683 93.921 62.6296C93.9563 62.4909 93.9359 62.3438 93.864 62.22V62.218Z" fill="#00387D" stroke="#00387D" stroke-width="0.5"/><path id="Vector_2" d="M34.7261 70.1795C34.7258 70.4528 34.6171 70.7148 34.4238 70.9079C34.2305 71.101 33.9684 71.2095 33.6951 71.2095H15.0631C14.9251 71.2138 14.7876 71.1903 14.6588 71.1405C14.53 71.0906 14.4126 71.0154 14.3134 70.9193C14.2143 70.8232 14.1354 70.7081 14.0816 70.581C14.0277 70.4538 14 70.3171 14 70.179C14 70.0409 14.0277 69.9042 14.0816 69.7771C14.1354 69.6499 14.2143 69.5348 14.3134 69.4387C14.4126 69.3426 14.53 69.2674 14.6588 69.2175C14.7876 69.1677 14.9251 69.1442 15.0631 69.1485H33.6951C33.9685 69.1488 34.2305 69.2575 34.4238 69.4508C34.6171 69.6441 34.7258 69.9061 34.7261 70.1795ZM33.6951 62.1615H15.0631C14.9251 62.1572 14.7876 62.1807 14.6588 62.2305C14.53 62.2804 14.4126 62.3556 14.3134 62.4517C14.2143 62.5478 14.1354 62.6629 14.0816 62.79C14.0277 62.9172 14 63.0539 14 63.192C14 63.3301 14.0277 63.4668 14.0816 63.5939C14.1354 63.7211 14.2143 63.8362 14.3134 63.9323C14.4126 64.0284 14.53 64.1036 14.6588 64.1535C14.7876 64.2033 14.9251 64.2268 15.0631 64.2225H33.6951C33.8331 64.2268 33.9706 64.2033 34.0994 64.1535C34.2282 64.1036 34.3456 64.0284 34.4448 63.9323C34.544 63.8362 34.6228 63.7211 34.6766 63.5939C34.7305 63.4668 34.7582 63.3301 34.7582 63.192C34.7582 63.0539 34.7305 62.9172 34.6766 62.79C34.6228 62.6629 34.544 62.5478 34.4448 62.4517C34.3456 62.3556 34.2282 62.2804 34.0994 62.2305C33.9706 62.1807 33.8331 62.1572 33.6951 62.1615ZM33.6951 47.5665H15.0631C14.9251 47.5622 14.7876 47.5857 14.6588 47.6355C14.53 47.6854 14.4126 47.7606 14.3134 47.8567C14.2143 47.9528 14.1354 48.0679 14.0816 48.195C14.0277 48.3222 14 48.4589 14 48.597C14 48.7351 14.0277 48.8718 14.0816 48.999C14.1354 49.1261 14.2143 49.2412 14.3134 49.3373C14.4126 49.4334 14.53 49.5086 14.6588 49.5585C14.7876 49.6083 14.9251 49.6318 15.0631 49.6275H33.6951C33.8331 49.6318 33.9706 49.6083 34.0994 49.5585C34.2282 49.5086 34.3456 49.4334 34.4448 49.3373C34.544 49.2412 34.6228 49.1261 34.6766 48.999C34.7305 48.8718 34.7582 48.7351 34.7582 48.597C34.7582 48.4589 34.7305 48.3222 34.6766 48.195C34.6228 48.0679 34.544 47.9528 34.4448 47.8567C34.3456 47.7606 34.2282 47.6854 34.0994 47.6355C33.9706 47.5857 33.8331 47.5622 33.6951 47.5665ZM33.6951 40.5785H15.0631C14.9251 40.5742 14.7876 40.5977 14.6588 40.6475C14.53 40.6974 14.4126 40.7726 14.3134 40.8687C14.2143 40.9648 14.1354 41.0799 14.0816 41.207C14.0277 41.3342 14 41.4709 14 41.609C14 41.7471 14.0277 41.8838 14.0816 42.0109C14.1354 42.1381 14.2143 42.2532 14.3134 42.3493C14.4126 42.4454 14.53 42.5206 14.6588 42.5705C14.7876 42.6203 14.9251 42.6438 15.0631 42.6395H33.6951C33.8331 42.6438 33.9706 42.6203 34.0994 42.5705C34.2282 42.5206 34.3456 42.4454 34.4448 42.3493C34.544 42.2532 34.6228 42.1381 34.6766 42.0109C34.7305 41.8838 34.7582 41.7471 34.7582 41.609C34.7582 41.4709 34.7305 41.3342 34.6766 41.207C34.6228 41.0799 34.544 40.9648 34.4448 40.8687C34.3456 40.7726 34.2282 40.6974 34.0994 40.6475C33.9706 40.5977 33.8331 40.5742 33.6951 40.5785ZM33.6921 25.9875H15.0631C14.9251 25.9832 14.7876 26.0067 14.6588 26.0565C14.53 26.1064 14.4126 26.1816 14.3134 26.2777C14.2143 26.3738 14.1354 26.4889 14.0816 26.616C14.0277 26.7432 14 26.8799 14 27.018C14 27.1561 14.0277 27.2928 14.0816 27.42C14.1354 27.5471 14.2143 27.6622 14.3134 27.7583C14.4126 27.8544 14.53 27.9296 14.6588 27.9795C14.7876 28.0293 14.9251 28.0528 15.0631 28.0485H33.6951C33.8331 28.0528 33.9706 28.0293 34.0994 27.9795C34.2282 27.9296 34.3456 27.8544 34.4448 27.7583C34.544 27.6622 34.6228 27.5471 34.6766 27.42C34.7305 27.2928 34.7582 27.1561 34.7582 27.018C34.7582 26.8799 34.7305 26.7432 34.6766 26.616C34.6228 26.4889 34.544 26.3738 34.4448 26.2777C34.3456 26.1816 34.2282 26.1064 34.0994 26.0565C33.9706 26.0067 33.8331 25.9832 33.6951 25.9875H33.6921ZM33.6921 19.0005H15.0631C14.9251 18.9962 14.7876 19.0197 14.6588 19.0695C14.53 19.1194 14.4126 19.1946 14.3134 19.2907C14.2143 19.3868 14.1354 19.5019 14.0816 19.629C14.0277 19.7562 14 19.8929 14 20.031C14 20.1691 14.0277 20.3058 14.0816 20.433C14.1354 20.5601 14.2143 20.6752 14.3134 20.7713C14.4126 20.8674 14.53 20.9426 14.6588 20.9925C14.7876 21.0423 14.9251 21.0658 15.0631 21.0615H33.6951C33.8331 21.0658 33.9706 21.0423 34.0994 20.9925C34.2282 20.9426 34.3456 20.8674 34.4448 20.7713C34.544 20.6752 34.6228 20.5601 34.6766 20.433C34.7305 20.3058 34.7582 20.1691 34.7582 20.031C34.7582 19.8929 34.7305 19.7562 34.6766 19.629C34.6228 19.5019 34.544 19.3868 34.4448 19.2907C34.3456 19.1946 34.2282 19.1194 34.0994 19.0695C33.9706 19.0197 33.8331 18.9962 33.6951 19.0005H33.6921Z" fill="#FFB600" stroke="#FFB600" stroke-width="0.5"/><g id="Layer 2"><path id="Vector_3" d="M49.7687 19.2315C49.6959 19.1582 49.6094 19.0999 49.5141 19.0602C49.4188 19.0205 49.3166 19 49.2134 19C49.1101 19 49.0079 19.0205 48.9126 19.0602C48.8173 19.0999 48.7308 19.1582 48.6581 19.2315L47 20.8987L45.3419 19.2315C45.269 19.1585 45.1824 19.1007 45.0872 19.0612C44.9919 19.0217 44.8898 19.0013 44.7866 19.0013C44.6835 19.0013 44.5814 19.0217 44.4861 19.0612C44.3908 19.1007 44.3043 19.1585 44.2313 19.2315C44.1584 19.3045 44.1006 19.3911 44.0611 19.4865C44.0216 19.5818 44.0013 19.684 44.0013 19.7872C44.0013 19.8904 44.0216 19.9926 44.0611 20.088C44.1006 20.1833 44.1584 20.27 44.2313 20.3429L45.8972 22.0023L44.2313 23.6616C44.158 23.7343 44.0999 23.8209 44.0601 23.9163C44.0204 24.0117 44 24.114 44 24.2173C44 24.3206 44.0204 24.4229 44.0601 24.5183C44.0999 24.6137 44.158 24.7002 44.2313 24.773C44.3044 24.8455 44.3911 24.9029 44.4864 24.9419C44.5817 24.9808 44.6837 25.0006 44.7866 25C44.8896 25.0006 44.9916 24.9808 45.0869 24.9419C45.1822 24.9029 45.2689 24.8455 45.3419 24.773L47 23.1059L48.6581 24.773C48.7311 24.8455 48.8178 24.9029 48.9131 24.9419C49.0084 24.9808 49.1104 25.0006 49.2134 25C49.3163 25.0006 49.4183 24.9808 49.5136 24.9419C49.6089 24.9029 49.6956 24.8455 49.7687 24.773C49.842 24.7002 49.9001 24.6137 49.9399 24.5183C49.9796 24.4229 50 24.3206 50 24.2173C50 24.114 49.9796 24.0117 49.9399 23.9163C49.9001 23.8209 49.842 23.7343 49.7687 23.6616L48.1028 22.0023L49.7687 20.3429C49.842 20.2702 49.9001 20.1836 49.9399 20.0882C49.9796 19.9929 50 19.8906 50 19.7872C50 19.6839 49.9796 19.5816 49.9399 19.4862C49.9001 19.3908 49.842 19.3043 49.7687 19.2315Z" fill="#FFB600"/><path id="Vector_4" d="M49.7687 43.2315C49.6959 43.1582 49.6094 43.0999 49.5141 43.0602C49.4188 43.0205 49.3166 43 49.2134 43C49.1101 43 49.0079 43.0205 48.9126 43.0602C48.8173 43.0999 48.7308 43.1582 48.6581 43.2315L47 44.8987L45.3419 43.2315C45.269 43.1585 45.1824 43.1007 45.0872 43.0612C44.9919 43.0217 44.8898 43.0013 44.7866 43.0013C44.6835 43.0013 44.5814 43.0217 44.4861 43.0612C44.3908 43.1007 44.3043 43.1585 44.2313 43.2315C44.1584 43.3045 44.1006 43.3911 44.0611 43.4865C44.0216 43.5818 44.0013 43.684 44.0013 43.7872C44.0013 43.8904 44.0216 43.9926 44.0611 44.088C44.1006 44.1833 44.1584 44.27 44.2313 44.3429L45.8972 46.0023L44.2313 47.6616C44.158 47.7343 44.0999 47.8209 44.0601 47.9163C44.0204 48.0117 44 48.114 44 48.2173C44 48.3206 44.0204 48.4229 44.0601 48.5183C44.0999 48.6137 44.158 48.7002 44.2313 48.773C44.3044 48.8455 44.3911 48.9029 44.4864 48.9419C44.5817 48.9808 44.6837 49.0006 44.7866 49C44.8896 49.0006 44.9916 48.9808 45.0869 48.9419C45.1822 48.9029 45.2689 48.8455 45.3419 48.773L47 47.1059L48.6581 48.773C48.7311 48.8455 48.8178 48.9029 48.9131 48.9419C49.0084 48.9808 49.1104 49.0006 49.2134 49C49.3163 49.0006 49.4183 48.9808 49.5136 48.9419C49.6089 48.9029 49.6956 48.8455 49.7687 48.773C49.842 48.7002 49.9001 48.6137 49.9399 48.5183C49.9796 48.4229 50 48.3206 50 48.2173C50 48.114 49.9796 48.0117 49.9399 47.9163C49.9001 47.8209 49.842 47.7343 49.7687 47.6616L48.1028 46.0023L49.7687 44.3429C49.842 44.2702 49.9001 44.1836 49.9399 44.0882C49.9796 43.9929 50 43.8906 50 43.7872C50 43.6839 49.9796 43.5816 49.9399 43.4862C49.9001 43.3908 49.842 43.3043 49.7687 43.2315Z" fill="#00387D"/></g><g id="Layer 2_2"><path id="Vector_5" d="M47 13C45.22 13 43.4799 13.5278 41.9999 14.5168C40.5198 15.5057 39.3663 16.9113 38.6851 18.5558C38.0039 20.2004 37.8257 22.01 38.1729 23.7558C38.5202 25.5016 39.3774 27.1053 40.636 28.364C41.8947 29.6226 43.4984 30.4798 45.2442 30.8271C46.99 31.1743 48.7996 30.9961 50.4442 30.3149C52.0887 29.6337 53.4943 28.4802 54.4832 27.0001C55.4722 25.5201 56 23.78 56 22C56 20.8181 55.7672 19.6478 55.3149 18.5558C54.8626 17.4639 54.1997 16.4718 53.364 15.636C52.5282 14.8003 51.5361 14.1374 50.4442 13.6851C49.3522 13.2328 48.1819 13 47 13ZM47 29C45.6155 29 44.2622 28.5895 43.111 27.8203C41.9599 27.0511 41.0627 25.9579 40.5328 24.6788C40.003 23.3997 39.8644 21.9922 40.1345 20.6344C40.4046 19.2765 41.0713 18.0292 42.0503 17.0503C43.0292 16.0713 44.2765 15.4046 45.6344 15.1345C46.9922 14.8644 48.3997 15.003 49.6788 15.5328C50.9579 16.0627 52.0511 16.9599 52.8203 18.111C53.5895 19.2622 54 20.6155 54 22C54 23.8565 53.2625 25.637 51.9498 26.9497C50.637 28.2625 48.8565 29 47 29Z" fill="#FFB600" stroke="#FFB600" stroke-width="0.5"/><path id="Vector_6" d="M50.54 18.4601C50.447 18.3664 50.3364 18.292 50.2146 18.2412C50.0927 18.1904 49.962 18.1643 49.83 18.1643C49.698 18.1643 49.5673 18.1904 49.4454 18.2412C49.3236 18.292 49.213 18.3664 49.12 18.4601L47 20.5901L44.88 18.4601C44.7868 18.3669 44.6761 18.2929 44.5543 18.2424C44.4324 18.192 44.3019 18.166 44.17 18.166C44.0381 18.166 43.9076 18.192 43.7858 18.2424C43.6639 18.2929 43.5532 18.3669 43.46 18.4601C43.3668 18.5533 43.2928 18.664 43.2423 18.7859C43.1919 18.9077 43.1659 19.0382 43.1659 19.1701C43.1659 19.302 43.1919 19.4325 43.2423 19.5544C43.2928 19.6762 43.3668 19.7869 43.46 19.8801L45.59 22.0001L43.46 24.1201C43.3663 24.2131 43.2919 24.3237 43.2411 24.4455C43.1903 24.5674 43.1642 24.6981 43.1642 24.8301C43.1642 24.9621 43.1903 25.0928 43.2411 25.2147C43.2919 25.3365 43.3663 25.4471 43.46 25.5401C43.5534 25.6328 43.6643 25.7061 43.7861 25.7559C43.9079 25.8056 44.0384 25.8309 44.17 25.8301C44.3016 25.8309 44.4321 25.8056 44.5539 25.7559C44.6757 25.7061 44.7866 25.6328 44.88 25.5401L47 23.4101L49.12 25.5401C49.2134 25.6328 49.3243 25.7061 49.4461 25.7559C49.5679 25.8056 49.6984 25.8309 49.83 25.8301C49.9616 25.8309 50.0921 25.8056 50.2139 25.7559C50.3357 25.7061 50.4466 25.6328 50.54 25.5401C50.6337 25.4471 50.7081 25.3365 50.7589 25.2147C50.8097 25.0928 50.8358 24.9621 50.8358 24.8301C50.8358 24.6981 50.8097 24.5674 50.7589 24.4455C50.7081 24.3237 50.6337 24.2131 50.54 24.1201L48.41 22.0001L50.54 19.8801C50.6337 19.7871 50.7081 19.6765 50.7589 19.5547C50.8097 19.4328 50.8358 19.3021 50.8358 19.1701C50.8358 19.0381 50.8097 18.9074 50.7589 18.7855C50.7081 18.6637 50.6337 18.5531 50.54 18.4601Z" fill="#FFB600" stroke="#FFB600" stroke-width="0.5"/></g><g id="Layer 3"><path id="Vector_7" d="M47 57C45.22 57 43.4799 57.5278 41.9999 58.5168C40.5198 59.5057 39.3663 60.9113 38.6851 62.5558C38.0039 64.2004 37.8257 66.01 38.1729 67.7558C38.5202 69.5016 39.3774 71.1053 40.636 72.364C41.8947 73.6226 43.4984 74.4798 45.2442 74.8271C46.99 75.1743 48.7996 74.9961 50.4442 74.3149C52.0887 73.6337 53.4943 72.4802 54.4832 71.0001C55.4722 69.5201 56 67.78 56 66C56 64.8181 55.7672 63.6478 55.3149 62.5558C54.8626 61.4639 54.1997 60.4718 53.364 59.636C52.5282 58.8003 51.5361 58.1374 50.4442 57.6851C49.3522 57.2328 48.1819 57 47 57ZM47 73C45.6155 73 44.2622 72.5895 43.111 71.8203C41.9599 71.0511 41.0627 69.9579 40.5328 68.6788C40.003 67.3997 39.8644 65.9922 40.1345 64.6344C40.4046 63.2765 41.0713 62.0292 42.0503 61.0503C43.0292 60.0713 44.2765 59.4046 45.6344 59.1345C46.9922 58.8644 48.3997 59.003 49.6788 59.5328C50.9579 60.0627 52.0511 60.9599 52.8203 62.111C53.5895 63.2622 54 64.6155 54 66C54 67.8565 53.2625 69.637 51.9498 70.9497C50.637 72.2625 48.8565 73 47 73Z" fill="#FFB600" stroke="#FFB600" stroke-width="0.5"/><path id="Vector_8" d="M50.54 62.4601C50.447 62.3664 50.3364 62.292 50.2146 62.2412C50.0927 62.1904 49.962 62.1643 49.83 62.1643C49.698 62.1643 49.5673 62.1904 49.4454 62.2412C49.3236 62.292 49.213 62.3664 49.12 62.4601L47 64.5901L44.88 62.4601C44.7868 62.3669 44.6761 62.2929 44.5543 62.2424C44.4324 62.192 44.3019 62.166 44.17 62.166C44.0381 62.166 43.9076 62.192 43.7858 62.2424C43.6639 62.2929 43.5532 62.3669 43.46 62.4601C43.3668 62.5533 43.2928 62.664 43.2423 62.7859C43.1919 62.9077 43.1659 63.0382 43.1659 63.1701C43.1659 63.302 43.1919 63.4325 43.2423 63.5544C43.2928 63.6762 43.3668 63.7869 43.46 63.8801L45.59 66.0001L43.46 68.1201C43.3663 68.2131 43.2919 68.3237 43.2411 68.4455C43.1903 68.5674 43.1642 68.6981 43.1642 68.8301C43.1642 68.9621 43.1903 69.0928 43.2411 69.2147C43.2919 69.3365 43.3663 69.4471 43.46 69.5401C43.5534 69.6328 43.6643 69.7061 43.7861 69.7559C43.9079 69.8056 44.0384 69.8309 44.17 69.8301C44.3016 69.8309 44.4321 69.8056 44.5539 69.7559C44.6757 69.7061 44.7866 69.6328 44.88 69.5401L47 67.4101L49.12 69.5401C49.2134 69.6328 49.3243 69.7061 49.4461 69.7559C49.5679 69.8056 49.6984 69.8309 49.83 69.8301C49.9616 69.8309 50.0921 69.8056 50.2139 69.7559C50.3357 69.7061 50.4466 69.6328 50.54 69.5401C50.6337 69.4471 50.7081 69.3365 50.7589 69.2147C50.8097 69.0928 50.8358 68.9621 50.8358 68.8301C50.8358 68.6981 50.8097 68.5674 50.7589 68.4455C50.7081 68.3237 50.6337 68.2131 50.54 68.1201L48.41 66.0001L50.54 63.8801C50.6337 63.7871 50.7081 63.6765 50.7589 63.5547C50.8097 63.4328 50.8358 63.3021 50.8358 63.1701C50.8358 63.0381 50.8097 62.9074 50.7589 62.7855C50.7081 62.6637 50.6337 62.5531 50.54 62.4601Z" fill="#FFB600" stroke="#FFB600" stroke-width="0.5"/></g></g><path id="Rectangle 2267" d="M0 24C0 22.8954 0.895431 22 2 22H3V83H0V24Z" fill="#FFB600"/><path id="Rectangle 2268" d="M0 86L-1.31134e-07 83L48 83C49.6569 83 51 84.3431 51 86L0 86Z" fill="#FFB600"/><path id="Vector 144" d="M6 83C3.55294 82.7895 2.84314 79.9649 3 79H2.70588L2 79.2632V80.5789V81.3684L2.23529 83.7368L3.41177 84H5.5L6 83Z" fill="#FFB600"/></g></svg>